<svg xmlns="http://www.w3.org/2000/svg" style="display: block; width: 1290px; height: 667px; overflow: auto;" width="1290px" height="667px" viewBox="0 0 1290 667" xmlns:xlink="http://www.w3.org/1999/xlink"><rect width="1290px" height="667px" fill="white"/><clipPath id="ygc143_23"><rect x="25" y="25" width="1239.81" height="616.467"/></clipPath><g clip-path="url(#ygc143_23)"><g style="pointer-events: visiblepainted;" transform="translate(433.01638876854986 395.99999999892134)" image-rendering="auto" shape-rendering="auto"><g style="box-sizing: initial;"><g><path fill="none" stroke="rgb(0,0,0)" d="M 114.50000000000001,-83.5 L 227.0759993757804,-83.5" stroke-opacity="1" stroke-width="1" stroke-linecap="butt" stroke-linejoin="miter" stroke-miterlimit="10"/><use transform="matrix(-1 0 0 -1 233.0759993757804 -83.5)" xlink:href="#ygc143_0"/></g><g><path fill="none" stroke="rgb(0,0,0)" d="M 53.50004382490158,-66.00000000000452 L 53.50042591794533,86.57600187886227" stroke-opacity="1" stroke-width="1" stroke-linecap="butt" stroke-linejoin="miter" stroke-miterlimit="10"/><use transform="matrix(-0.000002504280090188673 -0.9999999999968644 0.9999999999968644 -0.000002504280090188673 53.50044094362587 92.57600187884346)" xlink:href="#ygc143_1"/></g><g><path fill="none" stroke="rgb(0,0,0)" d="M 53.49995617509842,-100.99999999999548 L 53.4996341847831,-229.57599937473273" stroke-opacity="1" stroke-width="1" stroke-linecap="butt" stroke-linejoin="miter" stroke-miterlimit="10"/><use transform="matrix(0.0000025042800902633314 0.9999999999968642 -0.9999999999968642 0.0000025042800902633314 53.49961915910256 -235.57599937471392)" xlink:href="#ygc143_2"/></g><g><path fill="none" stroke="rgb(211,47,47)" d="M -7.5,-83.5 L -119.77817468419245,-83.5" stroke-opacity="1" stroke-width="1" stroke-dasharray="0.01,2" stroke-dashoffset="0" stroke-linecap="square" stroke-linejoin="miter" stroke-miterlimit="10"/><use transform="translate(-126.52817468419245 -83.5)" xlink:href="#ygc143_3"/></g><g><path fill="none" stroke="rgb(0,0,0)" d="M 37.73845443550232,-100.40573076947175 L -85.35292944029469,-232.43274470224148" stroke-opacity="1" stroke-width="1" stroke-linecap="butt" stroke-linejoin="miter" stroke-miterlimit="10"/><use transform="matrix(0.6819219103673003 0.7314249846436829 -0.7314249846436829 0.6819219103673003 -89.44446090249849 -236.82129461010356)" xlink:href="#ygc143_4"/></g><g><path fill="none" stroke="rgb(211,47,47)" d="M 53.49956926382447,-272.9999999989214 L 53.49956926382447,-322.2781746831138" stroke-opacity="1" stroke-width="1" stroke-dasharray="0.01,2" stroke-dashoffset="0" stroke-linecap="square" stroke-linejoin="miter" stroke-miterlimit="10"/><use transform="matrix(0 1 -1 0 53.49956926382447 -329.0281746831138)" xlink:href="#ygc143_5"/></g><g><path fill="none" stroke="rgb(211,47,47)" d="M -7.4995091605090565,112.49992573081308 L -119.77817468419936,112.4997844212325" stroke-opacity="1" stroke-width="1" stroke-dasharray="0.01,2" stroke-dashoffset="0" stroke-linecap="square" stroke-linejoin="miter" stroke-miterlimit="10"/><use transform="matrix(0.999999999999208 0.0000012585612761874986 -0.0000012585612761874986 0.999999999999208 -126.52817468419401 112.49977592594388)" xlink:href="#ygc143_6"/></g><g><path fill="none" stroke="rgb(211,47,47)" d="M 13.711419157430392,99.23538368182368 L -120.22584949946639,54.58425864647206" stroke-opacity="1" stroke-width="1" stroke-dasharray="0.01,2" stroke-dashoffset="0" stroke-linecap="square" stroke-linejoin="miter" stroke-miterlimit="10"/><use transform="matrix(0.9486718893048032 0.3162619901961905 -0.3162619901961905 0.9486718893048032 -126.62938475227381 52.449490212647774)" xlink:href="#ygc143_7"/></g><g><path fill="none" stroke="rgb(211,47,47)" d="M 13.711178625277967,125.76456194144936 L -120.22584079163438,170.4151340729564" stroke-opacity="1" stroke-width="1" stroke-dasharray="0.01,2" stroke-dashoffset="0" stroke-linecap="square" stroke-linejoin="miter" stroke-miterlimit="10"/><use transform="matrix(0.9486728877004025 -0.31625899535377605 0.31625899535377605 0.9486728877004025 -126.6293827836121 172.54988229159437)" xlink:href="#ygc143_8"/></g><g><path fill="none" stroke="rgb(0,0,0)" d="M 357.5,-83.5 L 470.372115251065,-83.5" stroke-opacity="1" stroke-width="1" stroke-linecap="butt" stroke-linejoin="miter" stroke-miterlimit="10"/><use transform="matrix(-1 0 0 -1 476.372115251065 -83.5)" xlink:href="#ygc143_9"/></g><g><path fill="none" stroke="rgb(0,0,0)" d="M 296.5000438249016,-66.00000000000452 L 296.50042591794534,86.57600187886227" stroke-opacity="1" stroke-width="1" stroke-linecap="butt" stroke-linejoin="miter" stroke-miterlimit="10"/><use transform="matrix(-0.0000025042800902352425 -0.9999999999968644 0.9999999999968644 -0.0000025042800902352425 296.50044094362585 92.57600187884346)" xlink:href="#ygc143_10"/></g><g><path fill="none" stroke="rgb(0,0,0)" d="M 317.0155899361395,-67.0194212338765 L 512.7136260709638,90.18867801820615" stroke-opacity="1" stroke-width="1" stroke-linecap="butt" stroke-linejoin="miter" stroke-miterlimit="10"/><use transform="matrix(-0.7796047270228738 -0.6262718815367576 0.6262718815367576 -0.7796047270228738 517.391254433101 93.94630930742669)" xlink:href="#ygc143_11"/></g><g><path fill="none" stroke="rgb(211,47,47)" d="M 312.0368107710198,-100.42284370743926 L 517.8304452596142,-324.57524948509973" stroke-opacity="1" stroke-width="1" stroke-dasharray="0.01,2" stroke-dashoffset="0" stroke-linecap="square" stroke-linejoin="miter" stroke-miterlimit="10"/><use transform="matrix(-0.6762969306788635 0.7366291207618313 -0.7366291207618313 -0.6762969306788635 522.3954495416965 -329.5474960502421)" xlink:href="#ygc143_12"/></g><g><path fill="none" stroke="rgb(211,47,47)" d="M 296.4999715551582,-100.9999999999981 L 296.4996118852915,-322.2781746831253" stroke-opacity="1" stroke-width="1" stroke-dasharray="0.01,2" stroke-dashoffset="0" stroke-linecap="square" stroke-linejoin="miter" stroke-miterlimit="10"/><use transform="matrix(0.0000016254195301446906 0.9999999999986791 -0.9999999999986791 0.0000016254195301446906 296.4996009137097 -329.0281746831164)" xlink:href="#ygc143_13"/></g><g><path fill="none" stroke="rgb(211,47,47)" d="M 296.50049083890394,130.00000250305092 L 296.50049083890394,196.7450021044404" stroke-opacity="1" stroke-width="1" stroke-dasharray="0.01,2" stroke-dashoffset="0" stroke-linecap="square" stroke-linejoin="miter" stroke-miterlimit="10"/><use transform="matrix(0 -1 1 0 296.50049083890394 203.4950021044404)" xlink:href="#ygc143_14"/></g><g><path fill="none" stroke="rgb(0,0,0)" d="M 478.80000493430975,112.1296889167953 L 365.92445195212434,112.4715125488761" stroke-opacity="1" stroke-width="1" stroke-linecap="butt" stroke-linejoin="miter" stroke-miterlimit="10"/><use transform="matrix(0.999995414661473 -0.0030283091039003097 0.0030283091039003097 0.999995414661473 359.92447946415547 112.4896824034995)" xlink:href="#ygc143_15"/></g><g><path fill="none" stroke="rgb(211,47,47)" d="M 263.9454164989047,127.29940866470947 L 101.98440300616673,200.9262354997468" stroke-opacity="1" stroke-width="0.75" stroke-dasharray="0.01,1.5" stroke-dashoffset="0" stroke-linecap="square" stroke-linejoin="miter" stroke-miterlimit="10"/><use transform="matrix(0.9103491469695582 -0.4138410692666908 0.4138410692666908 0.9103491469695582 93.79126068344071 204.65080512314702)" xlink:href="#ygc143_16"/></g><g><path fill="none" stroke="rgb(211,47,47)" d="M 539.7499309830206,129.44496638225155 L 539.5704292263017,196.74503312727578" stroke-opacity="1" stroke-width="1" stroke-dasharray="0.01,2" stroke-dashoffset="0" stroke-linecap="square" stroke-linejoin="miter" stroke-miterlimit="10"/><use transform="matrix(0.0026671759320172047 -0.999996443079948 0.999996443079948 0.0026671759320172047 539.5524257887605 203.49500911806544)" xlink:href="#ygc143_17"/></g><g><path fill="none" stroke="rgb(211,47,47)" d="M 600.7966067141886,111.94497150532646 L 672.074781398381,111.94497150532646" stroke-opacity="1" stroke-width="1" stroke-dasharray="0.01,2" stroke-dashoffset="0" stroke-linecap="square" stroke-linejoin="miter" stroke-miterlimit="10"/><use transform="matrix(-1 0 0 -1 678.824781398381 111.94497150532646)" xlink:href="#ygc143_18"/></g><g><path fill="none" stroke="rgb(211,47,47)" d="M 551.7961158752846,-101 L 551.7961158752846,-190.32049112365416" stroke-opacity="1" stroke-width="1" stroke-dasharray="0.01,2" stroke-dashoffset="0" stroke-linecap="square" stroke-linejoin="miter" stroke-miterlimit="10"/><use transform="matrix(0 1 -1 0 551.7961158752846 -197.07049112365416)" xlink:href="#ygc143_19"/></g><g><path fill="none" stroke="rgb(0,0,0)" d="M -167.85898560339552,-255.49999999892137 L -272.59238814433024,-255.4999999989213" stroke-opacity="1" stroke-width="1" stroke-linecap="butt" stroke-linejoin="miter" stroke-miterlimit="10"/><use transform="matrix(1 -5.427439334704222e-16 5.427439334704222e-16 1 -278.59238814433024 -255.4999999989213)" xlink:href="#ygc143_20"/></g><g><path fill="none" stroke="rgb(211,47,47)" d="M -125.10895048180174,-272.1984434743977 L -182.93928549486807,-325.11233053212896" stroke-opacity="1" stroke-width="1" stroke-dasharray="0.01,2" stroke-dashoffset="0" stroke-linecap="square" stroke-linejoin="miter" stroke-miterlimit="10"/><use transform="matrix(0.7377718469980326 0.6750501476017257 -0.6750501476017257 0.7377718469980326 -187.9192454621048 -329.66891902844065)" xlink:href="#ygc143_21"/></g><g><path fill="none" stroke="rgb(211,47,47)" d="M -318.7855872852642,-271.6812685148839 L -240.78085101487267,-326.0149764593218" stroke-opacity="1" stroke-width="1" stroke-dasharray="0.01,2" stroke-dashoffset="0" stroke-linecap="square" stroke-linejoin="miter" stroke-miterlimit="10"/><use transform="matrix(-0.8205621077855897 0.5715573700569964 -0.5715573700569964 -0.8205621077855897 -235.24205678731994 -329.87298870720656)" xlink:href="#ygc143_22"/></g><ellipse cx="53.5" cy="-83.5" rx="61" ry="17.5" fill="rgb(255,255,255)" fill-opacity="1" stroke="rgb(56,142,60)" stroke-opacity="1" stroke-width="1" stroke-linecap="butt" stroke-linejoin="miter" stroke-miterlimit="10"/><g transform="translate(25 -90.5)"><text font-family="Arial" font-size="12px" font-style="normal" font-weight="normal" text-decoration="none" text-anchor="middle" fill="black" dy="0.9166666666666666em" transform="translate(28.5 0)">dp:obs001</text></g><ellipse cx="53.4996" cy="-255.5" rx="61" ry="17.5" fill="rgb(255,255,255)" fill-opacity="1" stroke="rgb(56,142,60)" stroke-opacity="1" stroke-width="1" stroke-linecap="butt" stroke-linejoin="miter" stroke-miterlimit="10"/><g transform="translate(5.999569263824469 -262.4999999989214)"><text font-family="Arial" font-size="12px" font-style="normal" font-weight="normal" text-decoration="none" text-anchor="middle" fill="black" dy="0.9166666666666666em" transform="translate(47.5 0)">dp:obs001-Result</text></g><ellipse cx="53.5005" cy="112.5" rx="61" ry="17.5" fill="rgb(255,255,255)" fill-opacity="1" stroke="rgb(56,142,60)" stroke-opacity="1" stroke-width="1" stroke-linecap="butt" stroke-linejoin="miter" stroke-miterlimit="10"/><g transform="translate(27.000490838903943 105.50000250305092)"><text font-family="Arial" font-size="12px" font-style="normal" font-weight="normal" text-decoration="none" text-anchor="middle" fill="black" dy="0.9166666666666666em" transform="translate(26.5 0)">dp:AF001</text></g><ellipse cx="296.5" cy="-83.5" rx="61" ry="17.5" fill="rgb(255,255,255)" fill-opacity="1" stroke="rgb(56,142,60)" stroke-opacity="1" stroke-width="1" stroke-linecap="butt" stroke-linejoin="miter" stroke-miterlimit="10"/><g transform="translate(259.5 -90.5)"><text font-family="Arial" font-size="12px" font-style="normal" font-weight="normal" text-decoration="none" text-anchor="middle" fill="black" dy="0.9166666666666666em" transform="translate(37 0)">dp:Variable_1</text></g><ellipse cx="296.5" cy="112.5" rx="61" ry="17.5" fill="rgb(255,255,255)" fill-opacity="1" stroke="rgb(56,142,60)" stroke-opacity="1" stroke-width="1" stroke-linecap="butt" stroke-linejoin="miter" stroke-miterlimit="10"/><g transform="translate(268.50049083890394 105.50000250305092)"><text font-family="Arial" font-size="12px" font-style="normal" font-weight="normal" text-decoration="none" text-anchor="middle" fill="black" dy="0.9166666666666666em" transform="translate(28 0)">dp:ASV_X</text></g><ellipse cx="539.797" cy="111.945" rx="61" ry="17.5" fill="rgb(255,255,255)" fill-opacity="1" stroke="rgb(56,142,60)" stroke-opacity="1" stroke-width="1" stroke-linecap="butt" stroke-linejoin="miter" stroke-miterlimit="10"/><g transform="translate(518.2966067141886 104.94497150532646)"><text font-family="Arial" font-size="12px" font-style="normal" font-weight="normal" text-decoration="none" text-anchor="middle" fill="black" dy="0.9166666666666666em" transform="translate(21.5 0)">dp:Root</text></g><ellipse cx="551.796" cy="-83.5" rx="73" ry="17.5" fill="rgb(255,255,255)" fill-opacity="1" stroke="rgb(56,142,60)" stroke-opacity="1" stroke-width="1" stroke-linecap="butt" stroke-linejoin="miter" stroke-miterlimit="10"/><g transform="translate(512.7961158752846 -90.5)"><text font-family="Arial" font-size="12px" font-style="normal" font-weight="normal" text-decoration="none" text-anchor="middle" fill="black" dy="0.9166666666666666em" transform="translate(39 0)">dp:Abundance</text></g><path fill="rgb(255,255,255)" stroke="rgb(13,71,161)" d="M 0,10 C 0,4.47715250169206 4.47715250169206,0 10,0 L 136,0 C 141.52284749830795,0 146,4.47715250169206 146,10 L 146,25 C 146,30.52284749830794 141.52284749830795,35 136,35 L 10,35 C 4.47715250169206,35 0,30.52284749830794 0,25 Z" fill-opacity="1" stroke-opacity="1" stroke-width="1" stroke-linecap="butt" stroke-linejoin="miter" stroke-miterlimit="10" transform="translate(466.7956851391091 -365.99999999892134)"/><g transform="translate(508.2956851391091 -355.49999999892134)"><text font-family="Arial" font-size="12px" font-style="normal" font-weight="normal" text-decoration="none" text-anchor="middle" fill="black" dy="0.9166666666666666em" transform="translate(31.5 0)">iop:Variable</text></g><path fill="rgb(255,255,255)" stroke="rgb(0,0,0)" d="M 0,10 C 0,4.47715250169206 4.47715250169206,0 10,0 L 136,0 C 141.52284749830795,0 146,4.47715250169206 146,10 L 146,25 C 146,30.52284749830794 141.52284749830795,35 136,35 L 10,35 C 4.47715250169206,35 0,30.52284749830794 0,25 Z" fill-opacity="1" stroke-opacity="1" stroke-width="1" stroke-linecap="butt" stroke-linejoin="miter" stroke-miterlimit="10" transform="translate(-274.5 -101)"/><g transform="translate(-248.5 -90.5)"><text font-family="Arial" font-size="12px" font-style="normal" font-weight="normal" text-decoration="none" text-anchor="middle" fill="black" dy="0.9166666666666666em" transform="translate(47 0)">sosa:Observation</text></g><path fill="rgb(255,255,255)" stroke="rgb(0,0,0)" d="M 0,10 C 0,4.47715250169206 4.47715250169206,0 10,0 L 136,0 C 141.52284749830795,0 146,4.47715250169206 146,10 L 146,25 C 146,30.52284749830794 141.52284749830795,35 136,35 L 10,35 C 4.47715250169206,35 0,30.52284749830794 0,25 Z" fill-opacity="1" stroke-opacity="1" stroke-width="1" stroke-linecap="butt" stroke-linejoin="miter" stroke-miterlimit="10" transform="translate(-274.5 94.99968156930774)"/><g transform="translate(-263 105.49968156930774)"><text font-family="Arial" font-size="12px" font-style="normal" font-weight="normal" text-decoration="none" text-anchor="middle" fill="black" dy="0.9166666666666666em" transform="translate(61.5 0)">sosa:FeatureOfInterest</text></g><path fill="rgb(255,255,255)" stroke="rgb(0,0,0)" d="M 0,10 C 0,4.47715250169206 4.47715250169206,0 10,0 L 136,0 C 141.52284749830795,0 146,4.47715250169206 146,10 L 146,25 C 146,30.52284749830794 141.52284749830795,35 136,35 L 10,35 C 4.47715250169206,35 0,30.52284749830794 0,25 Z" fill-opacity="1" stroke-opacity="1" stroke-width="1" stroke-linecap="butt" stroke-linejoin="miter" stroke-miterlimit="10" transform="translate(-19.50043073617553 -365.99999999892134)"/><g transform="translate(21.99956926382447 -355.49999999892134)"><text font-family="Arial" font-size="12px" font-style="normal" font-weight="normal" text-decoration="none" text-anchor="middle" fill="black" dy="0.9166666666666666em" transform="translate(31.5 0)">sosa:Result</text></g><path fill="rgb(255,255,255)" stroke="rgb(0,0,0)" d="M 0,10 C 0,4.47715250169206 4.47715250169206,0 10,0 L 136,0 C 141.52284749830795,0 146,4.47715250169206 146,10 L 146,25 C 146,30.52284749830794 141.52284749830795,35 136,35 L 10,35 C 4.47715250169206,35 0,30.52284749830794 0,25 Z" fill-opacity="1" stroke-opacity="1" stroke-width="1" stroke-linecap="butt" stroke-linejoin="miter" stroke-miterlimit="10" transform="translate(223.49956926382447 -365.99999999892134)"/><g transform="translate(228.49956926382447 -355.49999999892134)"><text font-family="Arial" font-size="12px" font-style="normal" font-weight="normal" text-decoration="none" text-anchor="middle" fill="black" dy="0.9166666666666666em" transform="translate(68 0)">sosa:ObservableProperty</text></g><path fill="rgb(255,255,255)" stroke="rgb(13,71,161)" d="M 0,10 C 0,4.47715250169206 4.47715250169206,0 10,0 L 136,0 C 141.52284749830795,0 146,4.47715250169206 146,10 L 146,25 C 146,30.52284749830794 141.52284749830795,35 136,35 L 10,35 C 4.47715250169206,35 0,30.52284749830794 0,25 Z" fill-opacity="1" stroke-opacity="1" stroke-width="1" stroke-linecap="butt" stroke-linejoin="miter" stroke-miterlimit="10" transform="translate(223.50049083890394 205.46682742024797)"/><g transform="translate(271.50049083890394 215.96682742024797)"><text font-family="Arial" font-size="12px" font-style="normal" font-weight="normal" text-decoration="none" text-anchor="middle" fill="black" dy="0.9166666666666666em" transform="translate(25 0)">iop:Entity</text></g><path fill="rgb(255,255,255)" stroke="rgb(13,71,161)" d="M 0,10 C 0,4.47715250169206 4.47715250169206,0 10,0 L 136,0 C 141.52284749830795,0 146,4.47715250169206 146,10 L 146,25 C 146,30.52284749830794 141.52284749830795,35 136,35 L 10,35 C 4.47715250169206,35 0,30.52284749830794 0,25 Z" fill-opacity="1" stroke-opacity="1" stroke-width="1" stroke-linecap="butt" stroke-linejoin="miter" stroke-miterlimit="10" transform="translate(466.50049083890394 205.46682742024797)"/><g transform="translate(502.00049083890394 215.96682742024797)"><text font-family="Arial" font-size="12px" font-style="normal" font-weight="normal" text-decoration="none" text-anchor="middle" fill="black" dy="0.9166666666666666em" transform="translate(37.5 0)">iop:Constraint</text></g><path fill="rgb(255,255,255)" stroke="rgb(13,71,161)" d="M 0,10 C 0,4.47715250169206 4.47715250169206,0 10,0 L 136,0 C 141.52284749830795,0 146,4.47715250169206 146,10 L 146,25 C 146,30.52284749830794 141.52284749830795,35 136,35 L 10,35 C 4.47715250169206,35 0,30.52284749830794 0,25 Z" fill-opacity="1" stroke-opacity="1" stroke-width="1" stroke-linecap="butt" stroke-linejoin="miter" stroke-miterlimit="10" transform="translate(478.7961158752846 -234.04231643946173)"/><g transform="translate(519.2961158752846 -223.54231643946173)"><text font-family="Arial" font-size="12px" font-style="normal" font-weight="normal" text-decoration="none" text-anchor="middle" fill="black" dy="0.9166666666666666em" transform="translate(32.5 0)">iop:Property</text></g><path fill="rgb(255,255,255)" stroke="rgb(255,140,0)" d="M 0,10 C 0,4.47715250169206 4.47715250169206,0 10,0 L 136,0 C 141.52284749830795,0 146,4.47715250169206 146,10 L 146,25 C 146,30.52284749830794 141.52284749830795,35 136,35 L 10,35 C 4.47715250169206,35 0,30.52284749830794 0,25 Z" fill-opacity="1" stroke-opacity="1" stroke-width="1" stroke-linecap="butt" stroke-linejoin="miter" stroke-miterlimit="10" transform="translate(680.7966067141886 94.44497150532646)"/><g transform="translate(718.2966067141886 104.94497150532646)"><text font-family="Arial" font-size="12px" font-style="normal" font-weight="normal" text-decoration="none" text-anchor="middle" fill="black" dy="0.9166666666666666em" transform="translate(35.5 0)">PO_0009005</text></g><ellipse cx="-106.859" cy="-255.5" rx="61" ry="17.5" fill="rgb(255,255,255)" fill-opacity="1" stroke="rgb(56,142,60)" stroke-opacity="1" stroke-width="1" stroke-linecap="butt" stroke-linejoin="miter" stroke-miterlimit="10"/><g transform="translate(-130.35898560339552 -262.4999999989214)"><text font-family="Arial" font-size="12px" font-style="normal" font-weight="normal" text-decoration="none" text-anchor="middle" fill="black" dy="0.9166666666666666em" transform="translate(23.5 0)">dp:Y1S1</text></g><ellipse cx="-342.016" cy="-255.5" rx="61" ry="17.5" fill="rgb(255,255,255)" fill-opacity="1" stroke="rgb(56,142,60)" stroke-opacity="1" stroke-width="1" stroke-linecap="butt" stroke-linejoin="miter" stroke-miterlimit="10"/><g transform="translate(-358.01638876854986 -262.4999999989213)"><text font-family="Arial" font-size="12px" font-style="normal" font-weight="normal" text-decoration="none" text-anchor="middle" fill="black" dy="0.9166666666666666em" transform="translate(16 0)">dp:Y1</text></g><path fill="rgb(255,255,255)" stroke="rgb(255,140,0)" d="M 0,10 C 0,4.47715250169206 4.47715250169206,0 10,0 L 136,0 C 141.52284749830795,0 146,4.47715250169206 146,10 L 146,25 C 146,30.52284749830794 141.52284749830795,35 136,35 L 10,35 C 4.47715250169206,35 0,30.52284749830794 0,25 Z" fill-opacity="1" stroke-opacity="1" stroke-width="1" stroke-linecap="butt" stroke-linejoin="miter" stroke-miterlimit="10" transform="translate(-281.5 -365.99999999892134)"/><g transform="translate(-254.5 -355.49999999892134)"><text font-family="Arial" font-size="12px" font-style="normal" font-weight="normal" text-decoration="none" text-anchor="middle" fill="black" dy="0.9166666666666666em" transform="translate(46 0)">time:TimeInterval</text></g><path fill="rgb(255,255,255)" stroke="rgb(255,140,0)" d="M 0,10 C 0,4.47715250169206 4.47715250169206,0 10,0 L 136,0 C 141.52284749830795,0 146,4.47715250169206 146,10 L 146,25 C 146,30.52284749830794 141.52284749830795,35 136,35 L 10,35 C 4.47715250169206,35 0,30.52284749830794 0,25 Z" fill-opacity="1" stroke-opacity="1" stroke-width="1" stroke-linecap="butt" stroke-linejoin="miter" stroke-miterlimit="10" transform="translate(-274.5 33.99700844224637)"/><g transform="translate(-231.5 44.49700844224637)"><text font-family="Arial" font-size="12px" font-style="normal" font-weight="normal" text-decoration="none" text-anchor="middle" fill="black" dy="0.9166666666666666em" transform="translate(30 0)">thing:Place</text></g><path fill="rgb(255,255,255)" stroke="rgb(255,140,0)" d="M 0,10 C 0,4.47715250169206 4.47715250169206,0 10,0 L 136,0 C 141.52284749830795,0 146,4.47715250169206 146,10 L 146,25 C 146,30.52284749830794 141.52284749830795,35 136,35 L 10,35 C 4.47715250169206,35 0,30.52284749830794 0,25 Z" fill-opacity="1" stroke-opacity="1" stroke-width="1" stroke-linecap="butt" stroke-linejoin="miter" stroke-miterlimit="10" transform="translate(-274.5 156.0023546963691)"/><g transform="translate(-242.5 166.5023546963691)"><text font-family="Arial" font-size="12px" font-style="normal" font-weight="normal" text-decoration="none" text-anchor="middle" fill="black" dy="0.9166666666666666em" transform="translate(41 0)">envo:00000114</text></g><path fill="rgb(211,47,47)" stroke="rgb(0,0,0)" d="M 0,0 L 256.875,0 L 266.875,10 L 266.875,29.946861592266405 L 0,29.946861592266405 Z" fill-opacity="1" stroke-opacity="1" stroke-width="1" stroke-linecap="butt" stroke-linejoin="miter" stroke-miterlimit="10" transform="translate(478.79660671418856 -21.95188440959504)"/><g transform="translate(484.73410671418856 -13.978453613461836)"><text font-family="Arial" font-size="12px" font-style="normal" font-weight="normal" text-decoration="none" text-anchor="middle" fill="black" dy="0.9166666666666666em" transform="translate(127.5 0)">Nombre de variables = nb(ASV) * nb(constraint)</text></g><path fill="rgb(255,255,255)" stroke="rgb(255,140,0)" d="M 0,10 C 0,4.47715250169206 4.47715250169206,0 10,0 L 136,0 C 141.52284749830795,0 146,4.47715250169206 146,10 L 146,25 C 146,30.52284749830794 141.52284749830795,35 136,35 L 10,35 C 4.47715250169206,35 0,30.52284749830794 0,25 Z" fill-opacity="1" stroke-opacity="1" stroke-width="1" stroke-linecap="butt" stroke-linejoin="miter" stroke-miterlimit="10" transform="translate(-19.499509161096057 205.46682742024797)"/><g transform="translate(27.500490838903943 215.96682742024797)"><text font-family="Arial" font-size="12px" font-style="normal" font-weight="normal" text-decoration="none" text-anchor="middle" fill="black" dy="0.9166666666666666em" transform="translate(26 0)">ncbitaxon</text></g><g transform="translate(362.86608675040856 -78.5)"><text font-family="Arial" font-size="12px" font-style="normal" font-weight="normal" text-decoration="none" text-anchor="middle" fill="black" dy="0.9166666666666666em" transform="translate(54 0)">iop:hasProperty 1..1</text></g><g transform="matrix(0.0000025042800897791902 0.9999999999968643 -0.9999999999968643 0.0000025042800897791902 291.5000529504586 -62.35600954766774)"><text font-family="Arial" font-size="12px" font-style="normal" font-weight="normal" text-decoration="none" text-anchor="middle" fill="black" dy="0.9166666666666666em" transform="translate(75 0)">iop:hasObjectOfInterest 1..1</text></g><g transform="matrix(0.7796047270228736 0.6262718815367577 -0.6262718815367577 0.7796047270228736 366.12637206502967 -21.154253042621143)"><text font-family="Arial" font-size="12px" font-style="normal" font-weight="normal" text-decoration="none" text-anchor="middle" fill="black" dy="0.9166666666666666em" transform="translate(58.5 0)">iop:hasConstraint 0..n</text></g><g transform="translate(107.28799968789022 -78.50000000000001)"><text font-family="Arial" font-size="12px" font-style="normal" font-weight="normal" text-decoration="none" text-anchor="middle" fill="black" dy="0.9166666666666666em" transform="translate(63.5 0)">sosa:ObservedProperty</text></g><g transform="matrix(0.0000025042800897791902 0.9999999999968643 -0.9999999999968643 0.0000025042800897791902 48.50006609792912 -57.106009547684195)"><text font-family="Arial" font-size="12px" font-style="normal" font-weight="normal" text-decoration="none" text-anchor="middle" fill="black" dy="0.9166666666666666em" transform="translate(71.5 0)">sosa:hasFeatureOfInterest</text></g><g transform="matrix(0.0000025042800903457443 0.9999999999968643 -0.9999999999968643 0.0000025042800903457443 72.49969125225743 -206.78804726855572)"><text font-family="Arial" font-size="12px" font-style="normal" font-weight="normal" text-decoration="none" text-anchor="middle" fill="black" dy="0.9166666666666666em" transform="translate(41.5 0)">sosa:hasResult</text></g><g transform="matrix(0.999995414661473 -0.003028309103879488 0.003028309103879488 0.999995414661473 373.30491525183095 93.44907500035677)"><text font-family="Arial" font-size="12px" font-style="normal" font-weight="normal" text-decoration="none" text-anchor="middle" fill="black" dy="0.9166666666666666em" transform="translate(49 0)">iop:constrains 1..n</text></g><g transform="matrix(1 1.2246467991473532e-16 -1.2246467991473532e-16 1 -273.37103782120636 -274.49999999892134)"><text font-family="Arial" font-size="12px" font-style="normal" font-weight="normal" text-decoration="none" text-anchor="middle" fill="black" dy="0.9166666666666666em" transform="translate(50.5 0)">time:IntervalDuring</text></g><g transform="matrix(0.6819219103673002 0.7314249846436829 -0.7314249846436829 0.6819219103673002 -52.871243147306146 -225.45552806538734)"><text font-family="Arial" font-size="12px" font-style="normal" font-weight="normal" text-decoration="none" text-anchor="middle" fill="black" dy="0.9166666666666666em" transform="translate(63 0)">sosa:phenomenonTime</text></g></g></g></g><defs><path fill="rgb(0,0,0)" stroke="rgb(0,0,0)" d="M 6,-2.25 L 0,0 L 6,2.25 Z" fill-opacity="1" stroke-opacity="1" stroke-width="1" stroke-linecap="butt" stroke-linejoin="miter" stroke-miterlimit="10" id="ygc143_0"/><path fill="rgb(0,0,0)" stroke="rgb(0,0,0)" d="M 6,-2.25 L 0,0 L 6,2.25 Z" fill-opacity="1" stroke-opacity="1" stroke-width="1" stroke-linecap="butt" stroke-linejoin="miter" stroke-miterlimit="10" id="ygc143_1"/><path fill="rgb(0,0,0)" stroke="rgb(0,0,0)" d="M 6,-2.25 L 0,0 L 6,2.25 Z" fill-opacity="1" stroke-opacity="1" stroke-width="1" stroke-linecap="butt" stroke-linejoin="miter" stroke-miterlimit="10" id="ygc143_2"/><path fill="rgb(211,47,47)" stroke="rgb(211,47,47)" d="M 0,0 L 3.75,-2.25 L 7.5,0 L 3.75,2.25 Z" fill-opacity="1" stroke-opacity="1" stroke-width="1" stroke-linecap="butt" stroke-linejoin="miter" stroke-miterlimit="10" id="ygc143_3"/><path fill="rgb(0,0,0)" stroke="rgb(0,0,0)" d="M 6,-2.25 L 0,0 L 6,2.25 Z" fill-opacity="1" stroke-opacity="1" stroke-width="1" stroke-linecap="butt" stroke-linejoin="miter" stroke-miterlimit="10" id="ygc143_4"/><path fill="rgb(211,47,47)" stroke="rgb(211,47,47)" d="M 0,0 L 3.75,-2.25 L 7.5,0 L 3.75,2.25 Z" fill-opacity="1" stroke-opacity="1" stroke-width="1" stroke-linecap="butt" stroke-linejoin="miter" stroke-miterlimit="10" id="ygc143_5"/><path fill="rgb(211,47,47)" stroke="rgb(211,47,47)" d="M 0,0 L 3.75,-2.25 L 7.5,0 L 3.75,2.25 Z" fill-opacity="1" stroke-opacity="1" stroke-width="1" stroke-linecap="butt" stroke-linejoin="miter" stroke-miterlimit="10" id="ygc143_6"/><path fill="rgb(211,47,47)" stroke="rgb(211,47,47)" d="M 0,0 L 3.75,-2.25 L 7.5,0 L 3.75,2.25 Z" fill-opacity="1" stroke-opacity="1" stroke-width="1" stroke-linecap="butt" stroke-linejoin="miter" stroke-miterlimit="10" id="ygc143_7"/><path fill="rgb(211,47,47)" stroke="rgb(211,47,47)" d="M 0,0 L 3.75,-2.25 L 7.5,0 L 3.75,2.25 Z" fill-opacity="1" stroke-opacity="1" stroke-width="1" stroke-linecap="butt" stroke-linejoin="miter" stroke-miterlimit="10" id="ygc143_8"/><path fill="rgb(0,0,0)" stroke="rgb(0,0,0)" d="M 6,-2.25 L 0,0 L 6,2.25 Z" fill-opacity="1" stroke-opacity="1" stroke-width="1" stroke-linecap="butt" stroke-linejoin="miter" stroke-miterlimit="10" id="ygc143_9"/><path fill="rgb(0,0,0)" stroke="rgb(0,0,0)" d="M 6,-2.25 L 0,0 L 6,2.25 Z" fill-opacity="1" stroke-opacity="1" stroke-width="1" stroke-linecap="butt" stroke-linejoin="miter" stroke-miterlimit="10" id="ygc143_10"/><path fill="rgb(0,0,0)" stroke="rgb(0,0,0)" d="M 6,-2.25 L 0,0 L 6,2.25 Z" fill-opacity="1" stroke-opacity="1" stroke-width="1" stroke-linecap="butt" stroke-linejoin="miter" stroke-miterlimit="10" id="ygc143_11"/><path fill="rgb(211,47,47)" stroke="rgb(211,47,47)" d="M 0,0 L 3.75,-2.25 L 7.5,0 L 3.75,2.25 Z" fill-opacity="1" stroke-opacity="1" stroke-width="1" stroke-linecap="butt" stroke-linejoin="miter" stroke-miterlimit="10" id="ygc143_12"/><path fill="rgb(211,47,47)" stroke="rgb(211,47,47)" d="M 0,0 L 3.75,-2.25 L 7.5,0 L 3.75,2.25 Z" fill-opacity="1" stroke-opacity="1" stroke-width="1" stroke-linecap="butt" stroke-linejoin="miter" stroke-miterlimit="10" id="ygc143_13"/><path fill="rgb(211,47,47)" stroke="rgb(211,47,47)" d="M 0,0 L 3.75,-2.25 L 7.5,0 L 3.75,2.25 Z" fill-opacity="1" stroke-opacity="1" stroke-width="1" stroke-linecap="butt" stroke-linejoin="miter" stroke-miterlimit="10" id="ygc143_14"/><path fill="rgb(0,0,0)" stroke="rgb(0,0,0)" d="M 6,-2.25 L 0,0 L 6,2.25 Z" fill-opacity="1" stroke-opacity="1" stroke-width="1" stroke-linecap="butt" stroke-linejoin="miter" stroke-miterlimit="10" id="ygc143_15"/><path fill="rgb(211,47,47)" stroke="rgb(211,47,47)" d="M 0,0 L 5,-3 L 10,0 L 5,3 Z" fill-opacity="1" stroke-opacity="1" stroke-width="1" stroke-linecap="butt" stroke-linejoin="miter" stroke-miterlimit="10" id="ygc143_16"/><path fill="rgb(211,47,47)" stroke="rgb(211,47,47)" d="M 0,0 L 3.75,-2.25 L 7.5,0 L 3.75,2.25 Z" fill-opacity="1" stroke-opacity="1" stroke-width="1" stroke-linecap="butt" stroke-linejoin="miter" stroke-miterlimit="10" id="ygc143_17"/><path fill="rgb(211,47,47)" stroke="rgb(211,47,47)" d="M 0,0 L 3.75,-2.25 L 7.5,0 L 3.75,2.25 Z" fill-opacity="1" stroke-opacity="1" stroke-width="1" stroke-linecap="butt" stroke-linejoin="miter" stroke-miterlimit="10" id="ygc143_18"/><path fill="rgb(211,47,47)" stroke="rgb(211,47,47)" d="M 0,0 L 3.75,-2.25 L 7.5,0 L 3.75,2.25 Z" fill-opacity="1" stroke-opacity="1" stroke-width="1" stroke-linecap="butt" stroke-linejoin="miter" stroke-miterlimit="10" id="ygc143_19"/><path fill="rgb(0,0,0)" stroke="rgb(0,0,0)" d="M 6,-2.25 L 0,0 L 6,2.25 Z" fill-opacity="1" stroke-opacity="1" stroke-width="1" stroke-linecap="butt" stroke-linejoin="miter" stroke-miterlimit="10" id="ygc143_20"/><path fill="rgb(211,47,47)" stroke="rgb(211,47,47)" d="M 0,0 L 3.75,-2.25 L 7.5,0 L 3.75,2.25 Z" fill-opacity="1" stroke-opacity="1" stroke-width="1" stroke-linecap="butt" stroke-linejoin="miter" stroke-miterlimit="10" id="ygc143_21"/><path fill="rgb(211,47,47)" stroke="rgb(211,47,47)" d="M 0,0 L 3.75,-2.25 L 7.5,0 L 3.75,2.25 Z" fill-opacity="1" stroke-opacity="1" stroke-width="1" stroke-linecap="butt" stroke-linejoin="miter" stroke-miterlimit="10" id="ygc143_22"/></defs></svg>