<svg xmlns="http://www.w3.org/2000/svg" style="display: block; width: 1198px; height: 437px; overflow: auto;" width="1198px" height="437px" viewBox="0 0 1198 437" xmlns:xlink="http://www.w3.org/1999/xlink"><rect width="1198px" height="437px" fill="white"/><clipPath id="ygc94_20"><rect x="25" y="25" width="1147.94" height="386.5"/></clipPath><g clip-path="url(#ygc94_20)"><g style="pointer-events: visiblepainted;" transform="translate(910.438305509399 165.5)" image-rendering="auto" shape-rendering="auto"><g style="box-sizing: initial;"><g><path fill="none" stroke="rgb(158,158,158)" d="M -40.25000000000001,128.29873023657723 L -40.25,187.27817468419244" stroke-opacity="1" stroke-width="1" stroke-dasharray="0.01,2" stroke-dashoffset="0" stroke-linecap="square" stroke-linejoin="miter" stroke-miterlimit="10"/><use transform="matrix(-1.2047294483948475e-16 -1 1 -1.2047294483948475e-16 -40.25 194.02817468419244)" xlink:href="#ygc94_0"/></g><g><path fill="none" stroke="rgb(158,158,158)" d="M 59.5,116 L 102.77817468419245,116" stroke-opacity="1" stroke-width="1" stroke-dasharray="0.01,2" stroke-dashoffset="0" stroke-linecap="square" stroke-linejoin="miter" stroke-miterlimit="10"/><use transform="matrix(-1 0 0 -1 109.52817468419245 116)" xlink:href="#ygc94_1"/></g><g><path fill="none" stroke="rgb(158,158,158)" d="M 24.25,128.29873023657723 L 24.25,163 L 179,163 L 179,189.0759993757804" stroke-opacity="1" stroke-width="1" stroke-dasharray="0.01,2" stroke-dashoffset="0" stroke-linecap="square" stroke-linejoin="miter" stroke-miterlimit="10"/><use transform="matrix(0 -1 1 0 179 193.5759993757804)" xlink:href="#ygc94_2"/></g><g><path fill="none" stroke="rgb(158,158,158)" d="M -243,130 L -243,187.27817468419244" stroke-opacity="1" stroke-width="1" stroke-dasharray="0.01,2" stroke-dashoffset="0" stroke-linecap="square" stroke-linejoin="miter" stroke-miterlimit="10"/><use transform="matrix(0 -1 1 0 -243 194.02817468419244)" xlink:href="#ygc94_3"/></g><g><path fill="none" stroke="rgb(158,158,158)" d="M -243,102 L -243,-0.7781746841924502" stroke-opacity="1" stroke-width="1" stroke-dasharray="0.01,2" stroke-dashoffset="0" stroke-linecap="square" stroke-linejoin="miter" stroke-miterlimit="10"/><use transform="matrix(0 1 -1 0 -243 -7.52817468419245)" xlink:href="#ygc94_4"/></g><g><path fill="none" stroke="rgb(158,158,158)" d="M -70.07296716406447,121.49999999999999 L -172.50303221171595,121.49999999999999" stroke-opacity="1" stroke-width="1" stroke-linecap="butt" stroke-linejoin="miter" stroke-miterlimit="10"/><use transform="translate(-178.50303221171595 121.49999999999999)" xlink:href="#ygc94_5"/></g><g><path fill="none" stroke="rgb(158,158,158)" d="M -300.49889084999467,123.33333333333331 L -392.48457637734975,123.33333333333333 L -392.48457637734975,187.27817468419244" stroke-opacity="1" stroke-width="1" stroke-dasharray="0.01,2" stroke-dashoffset="0" stroke-linecap="square" stroke-linejoin="miter" stroke-miterlimit="10"/><use transform="matrix(0 -1 1 0 -392.48457637734975 194.02817468419244)" xlink:href="#ygc94_6"/></g><g><path fill="none" stroke="rgb(33,33,33)" d="M -310.5,116 L -475.0143048851794,116" stroke-opacity="1" stroke-width="1" stroke-linecap="butt" stroke-linejoin="miter" stroke-miterlimit="10"/><use transform="translate(-481.0143048851794 116)" xlink:href="#ygc94_7"/></g><g><path fill="none" stroke="rgb(244,67,54)" d="M -490.4691527546995,122.2212942300096 L -490.4691527546995,187.72634431454867" stroke-opacity="1" stroke-width="1" stroke-dasharray="0.01,2" stroke-dashoffset="0" stroke-linecap="square" stroke-linejoin="miter" stroke-miterlimit="10"/><use transform="matrix(0 -1 1 0 -490.4691527546995 194.47634431454867)" xlink:href="#ygc94_8"/></g><g><path fill="none" stroke="rgb(244,67,54)" d="M -534.4845763773498,129.57770188772093 L -534.4845763773498,234 L -286,234 L -286,232.72182531580756" stroke-opacity="1" stroke-width="1" stroke-dasharray="0.01,2" stroke-dashoffset="0" stroke-linecap="square" stroke-linejoin="miter" stroke-miterlimit="10"/><use transform="matrix(0 1 -1 0 -286 225.97182531580756)" xlink:href="#ygc94_9"/></g><g><path fill="none" stroke="rgb(244,67,54)" d="M -550.938305509399,102 L -550.938305509399,8.22182531580755" stroke-opacity="1" stroke-width="1" stroke-dasharray="0.01,2" stroke-dashoffset="0" stroke-linecap="square" stroke-linejoin="miter" stroke-miterlimit="10"/><use transform="matrix(0 1 -1 0 -550.938305509399 1.4718253158075498)" xlink:href="#ygc94_10"/></g><g><path fill="none" stroke="rgb(33,33,33)" d="M -618.438305509399,116 L -709.0143048851794,116" stroke-opacity="1" stroke-width="1" stroke-linecap="butt" stroke-linejoin="miter" stroke-miterlimit="10"/><use transform="translate(-715.0143048851794 116)" xlink:href="#ygc94_7"/></g><g><path fill="none" stroke="rgb(244,67,54)" d="M -852.438305509399,116 L -862.438305509399,116 L -862.438305509399,240 L -200,240 L -200,232.72182531580756" stroke-opacity="1" stroke-width="1" stroke-dasharray="0.01,2" stroke-dashoffset="0" stroke-linecap="square" stroke-linejoin="miter" stroke-miterlimit="10"/><use transform="matrix(0 1 -1 0 -200 225.97182531580756)" xlink:href="#ygc94_9"/></g><g><path fill="none" stroke="rgb(244,67,54)" d="M -722.8653383453345,215.5 L -506.1100747572449,215.5" stroke-opacity="1" stroke-width="1" stroke-dasharray="0.01,2" stroke-dashoffset="0" stroke-linecap="square" stroke-linejoin="miter" stroke-miterlimit="10"/><use transform="matrix(-1 0 0 -1 -499.3600747572449 215.5)" xlink:href="#ygc94_11"/></g><g><path fill="none" stroke="rgb(0,0,0)" d="M -588.4537291320493,127.63857382992974 L -588.4537291320493,204.5 L -714.4413377211149,204.5" stroke-opacity="1" stroke-width="1" stroke-linecap="butt" stroke-linejoin="miter" stroke-miterlimit="10"/><use transform="translate(-720.4413377211149 204.5)" xlink:href="#ygc94_12"/></g><g><path fill="none" stroke="rgb(244,67,54)" d="M -784.938305509399,224 L -784.938305509399,237 L -243,237 L -243,232.72182531580756" stroke-opacity="1" stroke-width="1" stroke-dasharray="0.01,2" stroke-dashoffset="0" stroke-linecap="square" stroke-linejoin="miter" stroke-miterlimit="10"/><use transform="matrix(0 1 -1 0 -243 225.97182531580756)" xlink:href="#ygc94_13"/></g><g><path fill="none" stroke="rgb(0,0,0)" d="M -8,-16.25 L -8,93.57599937578041" stroke-opacity="1" stroke-width="1" stroke-linecap="butt" stroke-linejoin="miter" stroke-miterlimit="10"/><use transform="matrix(0 -1 1 0 -8 99.57599937578041)" xlink:href="#ygc94_14"/></g><g><path fill="none" stroke="rgb(244,67,54)" d="M 22.53124999999997,-43.01602188933157 L 22.531249999999996,-98.77817468419245" stroke-opacity="1" stroke-width="1" stroke-dasharray="0.01,2" stroke-dashoffset="0" stroke-linecap="square" stroke-linejoin="miter" stroke-miterlimit="10"/><use transform="matrix(-4.459834225391576e-16 1 -1 -4.459834225391576e-16 22.53125 -105.52817468419245)" xlink:href="#ygc94_15"/></g><g><path fill="none" stroke="rgb(33,33,33)" d="M -45.40625,-42.350488994666065 L -45.40625,-54.25 L -446.45372913204926,-54.25 L -446.45372913204926,108.66666666666667 L -485.0154140351848,108.66666666666669" stroke-opacity="1" stroke-width="1" stroke-linecap="butt" stroke-linejoin="miter" stroke-miterlimit="10"/><use transform="matrix(1 -3.6852266053464095e-16 3.6852266053464095e-16 1 -491.0154140351848 108.66666666666669)" xlink:href="#ygc94_16"/></g><g><path fill="none" stroke="rgb(244,67,54)" d="M -76.39521381966362,-24.750000000000018 L -92.375,-24.75 L -92.375,210 L -84.22182531580755,210" stroke-opacity="1" stroke-width="1" stroke-dasharray="0.01,2" stroke-dashoffset="0" stroke-linecap="square" stroke-linejoin="miter" stroke-miterlimit="10"/><use transform="matrix(-1 0 0 -1 -77.47182531580755 210)" xlink:href="#ygc94_17"/></g><g><path fill="none" stroke="rgb(33,33,33)" d="M 66.375,-30.25 L 256.5,-30.25 L 256.5,210 L 254.9240006242196,210" stroke-opacity="1" stroke-width="1" stroke-linecap="butt" stroke-linejoin="miter" stroke-miterlimit="10"/><use transform="translate(248.9240006242196 210)" xlink:href="#ygc94_18"/></g><g><path fill="none" stroke="rgb(158,158,158)" d="M -76.39521381966362,-35.749999999999986 L -147.21875,-35.75 L -147.21875,110.5 L -174.00303221171598,110.50000000000001" stroke-opacity="1" stroke-width="1" stroke-dasharray="0.01,2" stroke-dashoffset="0" stroke-linecap="square" stroke-linejoin="miter" stroke-miterlimit="10"/><use transform="matrix(1 -5.305669423161131e-16 5.305669423161131e-16 1 -178.50303221171598 110.50000000000001)" xlink:href="#ygc94_19"/></g><path fill="rgb(238,238,238)" stroke="rgb(0,0,0)" d="M 0,10 C 0,4.47715250169206 4.47715250169206,0 10,0 L 125,0 C 130.52284749830795,0 135,4.47715250169206 135,10 L 135,18 C 135,23.52284749830794 130.52284749830795,28 125,28 L 10,28 C 4.47715250169206,28 0,23.52284749830794 0,18 Z" fill-opacity="1" stroke-opacity="1" stroke-width="1" stroke-linecap="butt" stroke-linejoin="miter" stroke-miterlimit="10" transform="translate(-75.5 196)"/><ellipse cx="-8" cy="116" rx="67.5" ry="14" fill="rgb(255,255,255)" fill-opacity="1" stroke="rgb(158,158,158)" stroke-opacity="1" stroke-width="1" stroke-dasharray="0.01,2" stroke-dashoffset="0" stroke-linecap="square" stroke-linejoin="miter" stroke-miterlimit="10"/><path fill="rgb(238,238,238)" stroke="rgb(0,0,0)" d="M 0,10 C 0,4.47715250169206 4.47715250169206,0 10,0 L 125,0 C 130.52284749830795,0 135,4.47715250169206 135,10 L 135,18 C 135,23.52284749830794 130.52284749830795,28 125,28 L 10,28 C 4.47715250169206,28 0,23.52284749830794 0,18 Z" fill-opacity="1" stroke-opacity="1" stroke-width="1" stroke-linecap="butt" stroke-linejoin="miter" stroke-miterlimit="10" transform="translate(111.5 196)"/><path fill="rgb(255,255,255)" stroke="rgb(158,158,158)" d="M 0,10 C 0,4.47715250169206 4.47715250169206,0 10,0 L 125,0 C 130.52284749830795,0 135,4.47715250169206 135,10 L 135,18 C 135,23.52284749830794 130.52284749830795,28 125,28 L 10,28 C 4.47715250169206,28 0,23.52284749830794 0,18 Z" fill-opacity="1" stroke-opacity="1" stroke-width="1" stroke-dasharray="0.01,2" stroke-dashoffset="0" stroke-linecap="square" stroke-linejoin="miter" stroke-miterlimit="10" transform="translate(111.5 102)"/><path fill="rgb(238,238,238)" stroke="rgb(0,0,0)" d="M 0,10 C 0,4.47715250169206 4.47715250169206,0 10,0 L 125,0 C 130.52284749830795,0 135,4.47715250169206 135,10 L 135,18 C 135,23.52284749830794 130.52284749830795,28 125,28 L 10,28 C 4.47715250169206,28 0,23.52284749830794 0,18 Z" fill-opacity="1" stroke-opacity="1" stroke-width="1" stroke-linecap="butt" stroke-linejoin="miter" stroke-miterlimit="10" transform="translate(-310.5 196)"/><ellipse cx="-243" cy="116" rx="67.5" ry="14" fill="rgb(255,255,255)" fill-opacity="1" stroke="rgb(158,158,158)" stroke-opacity="1" stroke-width="1" stroke-dasharray="0.01,2" stroke-dashoffset="0" stroke-linecap="square" stroke-linejoin="miter" stroke-miterlimit="10"/><path fill="rgb(255,255,255)" stroke="rgb(158,158,158)" d="M 0,10 C 0,4.47715250169206 4.47715250169206,0 10,0 L 125,0 C 130.52284749830795,0 135,4.47715250169206 135,10 L 135,18 C 135,23.52284749830794 130.52284749830795,28 125,28 L 10,28 C 4.47715250169206,28 0,23.52284749830794 0,18 Z" fill-opacity="1" stroke-opacity="1" stroke-width="1" stroke-dasharray="0.01,2" stroke-dashoffset="0" stroke-linecap="square" stroke-linejoin="miter" stroke-miterlimit="10" transform="translate(-310.5 -37.5)"/><path fill="rgb(238,238,238)" stroke="rgb(0,0,0)" d="M 0,10 C 0,4.47715250169206 4.47715250169206,0 10,0 L 125,0 C 130.52284749830795,0 135,4.47715250169206 135,10 L 135,18 C 135,23.52284749830794 130.52284749830795,28 125,28 L 10,28 C 4.47715250169206,28 0,23.52284749830794 0,18 Z" fill-opacity="1" stroke-opacity="1" stroke-width="1" stroke-linecap="butt" stroke-linejoin="miter" stroke-miterlimit="10" transform="translate(-497.5 196)"/><ellipse cx="-550.938" cy="116" rx="67.5" ry="14" fill="rgb(128,222,234)" fill-opacity="1" stroke="rgb(0,0,0)" stroke-opacity="1" stroke-width="1" stroke-linecap="butt" stroke-linejoin="miter" stroke-miterlimit="10"/><path fill="rgb(238,238,238)" stroke="rgb(0,0,0)" d="M 0,10 C 0,4.47715250169206 4.47715250169206,0 10,0 L 125,0 C 130.52284749830795,0 135,4.47715250169206 135,10 L 135,18 C 135,23.52284749830794 130.52284749830795,28 125,28 L 10,28 C 4.47715250169206,28 0,23.52284749830794 0,18 Z" fill-opacity="1" stroke-opacity="1" stroke-width="1" stroke-linecap="butt" stroke-linejoin="miter" stroke-miterlimit="10" transform="translate(-618.438305509399 -28.5)"/><ellipse cx="-784.938" cy="116" rx="67.5" ry="14" fill="rgb(128,222,234)" fill-opacity="1" stroke="rgb(0,0,0)" stroke-opacity="1" stroke-width="1" stroke-linecap="butt" stroke-linejoin="miter" stroke-miterlimit="10"/><ellipse cx="-784.938" cy="210" rx="67.5" ry="14" fill="rgb(128,222,234)" fill-opacity="1" stroke="rgb(0,0,0)" stroke-opacity="1" stroke-width="1" stroke-linecap="butt" stroke-linejoin="miter" stroke-miterlimit="10"/><ellipse cx="-8" cy="-30.25" rx="74.375" ry="14" fill="rgb(128,222,234)" fill-opacity="1" stroke="rgb(0,0,0)" stroke-opacity="1" stroke-width="1" stroke-linecap="butt" stroke-linejoin="miter" stroke-miterlimit="10"/><path fill="rgb(238,238,238)" stroke="rgb(0,0,0)" d="M 0,10 C 0,4.47715250169206 4.47715250169206,0 10,0 L 125,0 C 130.52284749830795,0 135,4.47715250169206 135,10 L 135,18 C 135,23.52284749830794 130.52284749830795,28 125,28 L 10,28 C 4.47715250169206,28 0,23.52284749830794 0,18 Z" fill-opacity="1" stroke-opacity="1" stroke-width="1" stroke-linecap="butt" stroke-linejoin="miter" stroke-miterlimit="10" transform="translate(-75.5 -135.5)"/><g transform="matrix(1.8369701987210297e-16 -1 1 1.8369701987210297e-16 -59.25000000000001 178.28845246038483)"><text font-family="Arial" font-size="12px" font-style="normal" font-weight="normal" text-decoration="none" text-anchor="middle" fill="black" dy="0.9166666666666666em" transform="translate(20.5 0)">rdf:type</text></g><g transform="translate(51.125000000000014 144)"><text font-family="Arial" font-size="12px" font-style="normal" font-weight="normal" text-decoration="none" text-anchor="middle" fill="black" dy="0.9166666666666666em" transform="translate(49 0)">???:hasTaxonomy</text></g><g transform="matrix(6.123233995736766e-17 -1 1 6.123233995736766e-17 -238 71.11091265790378)"><text font-family="Arial" font-size="12px" font-style="normal" font-weight="normal" text-decoration="none" text-anchor="middle" fill="black" dy="0.9166666666666666em" transform="translate(20.5 0)">rdf:type</text></g><g transform="matrix(1 1.2246467991473532e-16 -1.2246467991473532e-16 1 -167.40650783580438 125.49999999999999)"><text font-family="Arial" font-size="12px" font-style="normal" font-weight="normal" text-decoration="none" text-anchor="middle" fill="black" dy="0.9166666666666666em" transform="translate(45.5 0)">sosa:isSampleOf</text></g><g transform="matrix(1 1.2246467991473532e-16 -1.2246467991473532e-16 1 -367.7417336136722 125.95833333333331)"><text font-family="Arial" font-size="12px" font-style="normal" font-weight="normal" text-decoration="none" text-anchor="middle" fill="black" dy="0.9166666666666666em" transform="translate(20.5 0)">rdf:type</text></g><g transform="matrix(1 1.2246467991473532e-16 -1.2246467991473532e-16 1 -434.1036912848237 96.99999999999999)"><text font-family="Arial" font-size="12px" font-style="normal" font-weight="normal" text-decoration="none" text-anchor="middle" fill="black" dy="0.9166666666666666em" transform="translate(39.5 0)">thing:locatedIn</text></g><g transform="matrix(1.8369701987210297e-16 -1 1 1.8369701987210297e-16 -509.4691527546995 183.23690963613956)"><text font-family="Arial" font-size="12px" font-style="normal" font-weight="normal" text-decoration="none" text-anchor="middle" fill="black" dy="0.9166666666666666em" transform="translate(20.5 0)">rdf:type</text></g><g transform="matrix(1.8369701987210297e-16 -1 1 1.8369701987210297e-16 -553.4845763773498 202.28885094386047)"><text font-family="Arial" font-size="12px" font-style="normal" font-weight="normal" text-decoration="none" text-anchor="middle" fill="black" dy="0.9166666666666666em" transform="translate(20.5 0)">rdf:type</text></g><g transform="matrix(6.123233995736766e-17 -1 1 6.123233995736766e-17 -545.938305509399 75.61091265790378)"><text font-family="Arial" font-size="12px" font-style="normal" font-weight="normal" text-decoration="none" text-anchor="middle" fill="black" dy="0.9166666666666666em" transform="translate(20.5 0)">rdf:type</text></g><g transform="matrix(1 1.2246467991473532e-16 -1.2246467991473532e-16 1 -705.6563053773525 96.99999999999999)"><text font-family="Arial" font-size="12px" font-style="normal" font-weight="normal" text-decoration="none" text-anchor="middle" fill="black" dy="0.9166666666666666em" transform="translate(39.5 0)">thing:locatedIn</text></g><g transform="matrix(1 1.2246467991473532e-16 -1.2246467991473532e-16 1 -880.438305509399 97)"><text font-family="Arial" font-size="12px" font-style="normal" font-weight="normal" text-decoration="none" text-anchor="middle" fill="black" dy="0.9166666666666666em" transform="translate(20.5 0)">rdf:type</text></g><g transform="translate(-638.7377065512896 215.501)"><text font-family="Arial" font-size="12px" font-style="normal" font-weight="normal" text-decoration="none" text-anchor="middle" fill="black" dy="0.9166666666666666em" transform="translate(20.5 0)">rdf:type</text></g><g transform="matrix(1 1.2246467991473532e-16 -1.2246467991473532e-16 1 -698.8713626875945 185.33783399046854)"><text font-family="Arial" font-size="12px" font-style="normal" font-weight="normal" text-decoration="none" text-anchor="middle" fill="black" dy="0.9166666666666666em" transform="translate(39.5 0)">thing:locatedIn</text></g><g transform="translate(-769.938305509399 222.999)"><text font-family="Arial" font-size="12px" font-style="normal" font-weight="normal" text-decoration="none" text-anchor="middle" fill="black" dy="0.9166666666666666em" transform="translate(20.5 0)">rdf:type</text></g><g transform="matrix(3.8285686989269494e-16 -1 1 3.8285686989269494e-16 -27.000000000000018 83.83678554071088)"><text font-family="Arial" font-size="12px" font-style="normal" font-weight="normal" text-decoration="none" text-anchor="middle" fill="black" dy="0.9166666666666666em" transform="translate(45.5 0)">sosa:isSampleOf</text></g><g transform="matrix(5.053215498074303e-16 -1 1 5.053215498074303e-16 27.531249999999986 -50.39709828676201)"><text font-family="Arial" font-size="12px" font-style="normal" font-weight="normal" text-decoration="none" text-anchor="middle" fill="black" dy="0.9166666666666666em" transform="translate(20.5 0)">rdf:type</text></g><g transform="matrix(1 1.2246467991473532e-16 -1.2246467991473532e-16 1 -437.8559797736208 -76.99071596217695)"><text font-family="Arial" font-size="12px" font-style="normal" font-weight="normal" text-decoration="none" text-anchor="middle" fill="black" dy="0.9166666666666666em" transform="translate(177.5 0)">sosa:hasSampledFeature (soit vers AF001, soit vers AF001-PlotA)</text></g><g transform="matrix(1.8369701987210297e-16 -1 1 1.8369701987210297e-16 -91.00505345491594 87.87499999999996)"><text font-family="Arial" font-size="12px" font-style="normal" font-weight="normal" text-decoration="none" text-anchor="middle" fill="black" dy="0.9166666666666666em" transform="translate(20.5 0)">rdf:type</text></g><g transform="translate(101.97485771012009 -45.521006238515625)"><text font-family="Arial" font-size="12px" font-style="normal" font-weight="normal" text-decoration="none" text-anchor="middle" fill="black" dy="0.9166666666666666em" transform="translate(49 0)">???:hasTaxonomy</text></g><g transform="matrix(1.8369701987210297e-16 -1 1 1.8369701987210297e-16 -143.71875000000003 102.50822662953664)"><text font-family="Arial" font-size="12px" font-style="normal" font-weight="normal" text-decoration="none" text-anchor="middle" fill="black" dy="0.9166666666666666em" transform="translate(68.5 0)">sosa:hasSampledFeature</text></g><g transform="translate(-43 203)"><text font-family="Arial" font-size="12px" font-style="normal" font-weight="normal" text-decoration="none" text-anchor="middle" fill="black" dy="0.9166666666666666em" transform="translate(35 0)">sosa:Sample</text></g><g transform="translate(-55.5 109)"><text font-family="Arial" font-size="12px" font-style="normal" font-weight="normal" text-decoration="none" text-anchor="middle" fill="black" dy="0.9166666666666666em" transform="translate(47.5 0)">SampledPlant001</text></g><g transform="translate(151.5 203)"><text font-family="Arial" font-size="12px" font-style="normal" font-weight="normal" text-decoration="none" text-anchor="middle" fill="black" dy="0.9166666666666666em" transform="translate(27.5 0)">ncbi:taxon</text></g><g transform="translate(145 109)"><text font-family="Arial" font-size="12px" font-style="normal" font-weight="normal" text-decoration="none" text-anchor="middle" fill="black" dy="0.9166666666666666em" transform="translate(34 0)">PO:0000003</text></g><g transform="translate(-304.5 203)"><text font-family="Arial" font-size="12px" font-style="normal" font-weight="normal" text-decoration="none" text-anchor="middle" fill="black" dy="0.9166666666666666em" transform="translate(61.5 0)">sosa:FeatureOfInterest</text></g><g transform="translate(-277.5 109)"><text font-family="Arial" font-size="12px" font-style="normal" font-weight="normal" text-decoration="none" text-anchor="middle" fill="black" dy="0.9166666666666666em" transform="translate(34.5 0)">AF001-PlotA</text></g><g transform="translate(-283.5 -30.5)"><text font-family="Arial" font-size="12px" font-style="normal" font-weight="normal" text-decoration="none" text-anchor="middle" fill="black" dy="0.9166666666666666em" transform="translate(40.5 0)">agro:00000301</text></g><g transform="translate(-460 203)"><text font-family="Arial" font-size="12px" font-style="normal" font-weight="normal" text-decoration="none" text-anchor="middle" fill="black" dy="0.9166666666666666em" transform="translate(30 0)">thing:Place</text></g><g transform="translate(-568.938305509399 109)"><text font-family="Arial" font-size="12px" font-style="normal" font-weight="normal" text-decoration="none" text-anchor="middle" fill="black" dy="0.9166666666666666em" transform="translate(18 0)">AF001</text></g><g transform="translate(-591.938305509399 -21.5)"><text font-family="Arial" font-size="12px" font-style="normal" font-weight="normal" text-decoration="none" text-anchor="middle" fill="black" dy="0.9166666666666666em" transform="translate(41 0)">envo:00000114</text></g><g transform="translate(-798.938305509399 109)"><text font-family="Arial" font-size="12px" font-style="normal" font-weight="normal" text-decoration="none" text-anchor="middle" fill="black" dy="0.9166666666666666em" transform="translate(14 0)">West</text></g><g transform="translate(-820.938305509399 203)"><text font-family="Arial" font-size="12px" font-style="normal" font-weight="normal" text-decoration="none" text-anchor="middle" fill="black" dy="0.9166666666666666em" transform="translate(36 0)">2561 (safran)</text></g><g transform="translate(-76.5 -37.25)"><text font-family="Arial" font-size="12px" font-style="normal" font-weight="normal" text-decoration="none" text-anchor="middle" fill="black" dy="0.9166666666666666em" transform="translate(68.5 0)">SampledPlantOrgan001R</text></g><g transform="translate(-42 -128.5)"><text font-family="Arial" font-size="12px" font-style="normal" font-weight="normal" text-decoration="none" text-anchor="middle" fill="black" dy="0.9166666666666666em" transform="translate(34 0)">PO:0009005</text></g></g></g></g><defs><path fill="rgb(158,158,158)" stroke="rgb(158,158,158)" d="M 0,0 L 3.75,-2.25 L 7.5,0 L 3.75,2.25 Z" fill-opacity="1" stroke-opacity="1" stroke-width="1" stroke-linecap="butt" stroke-linejoin="miter" stroke-miterlimit="10" id="ygc94_0"/><path fill="rgb(158,158,158)" stroke="rgb(158,158,158)" d="M 0,0 L 3.75,-2.25 L 7.5,0 L 3.75,2.25 Z" fill-opacity="1" stroke-opacity="1" stroke-width="1" stroke-linecap="butt" stroke-linejoin="miter" stroke-miterlimit="10" id="ygc94_1"/><path fill="rgb(158,158,158)" stroke="rgb(158,158,158)" d="M 0,0 L 6,-2.25 L 4.5,0 L 6,2.25 Z" fill-opacity="1" stroke-opacity="1" stroke-width="1" stroke-linecap="butt" stroke-linejoin="miter" stroke-miterlimit="10" id="ygc94_2"/><path fill="rgb(158,158,158)" stroke="rgb(158,158,158)" d="M 0,0 L 3.75,-2.25 L 7.5,0 L 3.75,2.25 Z" fill-opacity="1" stroke-opacity="1" stroke-width="1" stroke-linecap="butt" stroke-linejoin="miter" stroke-miterlimit="10" id="ygc94_3"/><path fill="rgb(158,158,158)" stroke="rgb(158,158,158)" d="M 0,0 L 3.75,-2.25 L 7.5,0 L 3.75,2.25 Z" fill-opacity="1" stroke-opacity="1" stroke-width="1" stroke-linecap="butt" stroke-linejoin="miter" stroke-miterlimit="10" id="ygc94_4"/><path fill="rgb(158,158,158)" stroke="rgb(158,158,158)" d="M 6,-2.25 L 0,0 L 6,2.25 Z" fill-opacity="1" stroke-opacity="1" stroke-width="1" stroke-linecap="butt" stroke-linejoin="miter" stroke-miterlimit="10" id="ygc94_5"/><path fill="rgb(158,158,158)" stroke="rgb(158,158,158)" d="M 0,0 L 3.75,-2.25 L 7.5,0 L 3.75,2.25 Z" fill-opacity="1" stroke-opacity="1" stroke-width="1" stroke-linecap="butt" stroke-linejoin="miter" stroke-miterlimit="10" id="ygc94_6"/><path fill="rgb(33,33,33)" stroke="rgb(33,33,33)" d="M 6,-2.25 L 0,0 L 6,2.25 Z" fill-opacity="1" stroke-opacity="1" stroke-width="1" stroke-linecap="butt" stroke-linejoin="miter" stroke-miterlimit="10" id="ygc94_7"/><path fill="rgb(244,67,54)" stroke="rgb(244,67,54)" d="M 0,0 L 3.75,-2.25 L 7.5,0 L 3.75,2.25 Z" fill-opacity="1" stroke-opacity="1" stroke-width="1" stroke-linecap="butt" stroke-linejoin="miter" stroke-miterlimit="10" id="ygc94_8"/><path fill="rgb(244,67,54)" stroke="rgb(244,67,54)" d="M 0,0 L 3.75,-2.25 L 7.5,0 L 3.75,2.25 Z" fill-opacity="1" stroke-opacity="1" stroke-width="1" stroke-linecap="butt" stroke-linejoin="miter" stroke-miterlimit="10" id="ygc94_9"/><path fill="rgb(244,67,54)" stroke="rgb(244,67,54)" d="M 0,0 L 3.75,-2.25 L 7.5,0 L 3.75,2.25 Z" fill-opacity="1" stroke-opacity="1" stroke-width="1" stroke-linecap="butt" stroke-linejoin="miter" stroke-miterlimit="10" id="ygc94_10"/><path fill="rgb(244,67,54)" stroke="rgb(244,67,54)" d="M 0,0 L 3.75,-2.25 L 7.5,0 L 3.75,2.25 Z" fill-opacity="1" stroke-opacity="1" stroke-width="1" stroke-linecap="butt" stroke-linejoin="miter" stroke-miterlimit="10" id="ygc94_11"/><path fill="rgb(0,0,0)" stroke="rgb(0,0,0)" d="M 6,-2.25 L 0,0 L 6,2.25 Z" fill-opacity="1" stroke-opacity="1" stroke-width="1" stroke-linecap="butt" stroke-linejoin="miter" stroke-miterlimit="10" id="ygc94_12"/><path fill="rgb(244,67,54)" stroke="rgb(244,67,54)" d="M 0,0 L 3.75,-2.25 L 7.5,0 L 3.75,2.25 Z" fill-opacity="1" stroke-opacity="1" stroke-width="1" stroke-linecap="butt" stroke-linejoin="miter" stroke-miterlimit="10" id="ygc94_13"/><path fill="rgb(0,0,0)" stroke="rgb(0,0,0)" d="M 6,-2.25 L 0,0 L 6,2.25 Z" fill-opacity="1" stroke-opacity="1" stroke-width="1" stroke-linecap="butt" stroke-linejoin="miter" stroke-miterlimit="10" id="ygc94_14"/><path fill="rgb(244,67,54)" stroke="rgb(244,67,54)" d="M 0,0 L 3.75,-2.25 L 7.5,0 L 3.75,2.25 Z" fill-opacity="1" stroke-opacity="1" stroke-width="1" stroke-linecap="butt" stroke-linejoin="miter" stroke-miterlimit="10" id="ygc94_15"/><path fill="rgb(33,33,33)" stroke="rgb(33,33,33)" d="M 6,-2.25 L 0,0 L 6,2.25 Z" fill-opacity="1" stroke-opacity="1" stroke-width="1" stroke-linecap="butt" stroke-linejoin="miter" stroke-miterlimit="10" id="ygc94_16"/><path fill="rgb(244,67,54)" stroke="rgb(244,67,54)" d="M 0,0 L 3.75,-2.25 L 7.5,0 L 3.75,2.25 Z" fill-opacity="1" stroke-opacity="1" stroke-width="1" stroke-linecap="butt" stroke-linejoin="miter" stroke-miterlimit="10" id="ygc94_17"/><path fill="rgb(33,33,33)" stroke="rgb(33,33,33)" d="M 6,-2.25 L 0,0 L 6,2.25 Z" fill-opacity="1" stroke-opacity="1" stroke-width="1" stroke-linecap="butt" stroke-linejoin="miter" stroke-miterlimit="10" id="ygc94_18"/><path fill="rgb(158,158,158)" stroke="rgb(158,158,158)" d="M 0,0 L 6,-2.25 L 4.5,0 L 6,2.25 Z" fill-opacity="1" stroke-opacity="1" stroke-width="1" stroke-linecap="butt" stroke-linejoin="miter" stroke-miterlimit="10" id="ygc94_19"/></defs></svg>