<svg xmlns="http://www.w3.org/2000/svg" style="display: block; width: 1640px; height: 463px; overflow: auto;" width="1640px" height="463px" viewBox="0 0 1640 463" xmlns:xlink="http://www.w3.org/1999/xlink"><rect width="1640px" height="463px" fill="white"/><clipPath id="ygc83_28"><rect x="25" y="25" width="1589.05" height="413"/></clipPath><g clip-path="url(#ygc83_28)"><g style="pointer-events: visiblepainted;" transform="translate(893.438305509399 192)" image-rendering="auto" shape-rendering="auto"><g style="box-sizing: initial;"><g><path fill="none" stroke="rgb(244,67,54)" d="M -8,-97 L -8,-125.27817468419245" stroke-opacity="1" stroke-width="1" stroke-dasharray="0.01,2" stroke-dashoffset="0" stroke-linecap="square" stroke-linejoin="miter" stroke-miterlimit="10"/><use transform="matrix(0 1 -1 0 -8 -132.02817468419244)" xlink:href="#ygc83_0"/></g><g><path fill="none" stroke="rgb(244,67,54)" d="M -40.25000000000001,128.29873023657723 L -40.25,187.27817468419244" stroke-opacity="1" stroke-width="1" stroke-dasharray="0.01,2" stroke-dashoffset="0" stroke-linecap="square" stroke-linejoin="miter" stroke-miterlimit="10"/><use transform="matrix(-1.2047294483948475e-16 -1 1 -1.2047294483948475e-16 -40.25 194.02817468419244)" xlink:href="#ygc83_1"/></g><g><path fill="none" stroke="rgb(244,67,54)" d="M 59.5,116 L 102.77817468419245,116" stroke-opacity="1" stroke-width="1" stroke-dasharray="0.01,2" stroke-dashoffset="0" stroke-linecap="square" stroke-linejoin="miter" stroke-miterlimit="10"/><use transform="matrix(-1 0 0 -1 109.52817468419245 116)" xlink:href="#ygc83_2"/></g><g><path fill="none" stroke="rgb(244,67,54)" d="M 24.25,128.29873023657723 L 24.25,163 L 179,163 L 179,187.27817468419244" stroke-opacity="1" stroke-width="1" stroke-dasharray="0.01,2" stroke-dashoffset="0" stroke-linecap="square" stroke-linejoin="miter" stroke-miterlimit="10"/><use transform="matrix(0 -1 1 0 179 194.02817468419244)" xlink:href="#ygc83_3"/></g><g><path fill="none" stroke="rgb(33,33,33)" d="M -8,-69 L -8,93.57599937578041" stroke-opacity="1" stroke-width="1" stroke-linecap="butt" stroke-linejoin="miter" stroke-miterlimit="10"/><use transform="matrix(0 -1 1 0 -8 99.57599937578041)" xlink:href="#ygc83_4"/></g><g><path fill="none" stroke="rgb(244,67,54)" d="M -243,130 L -243,187.27817468419244" stroke-opacity="1" stroke-width="1" stroke-dasharray="0.01,2" stroke-dashoffset="0" stroke-linecap="square" stroke-linejoin="miter" stroke-miterlimit="10"/><use transform="matrix(0 -1 1 0 -243 194.02817468419244)" xlink:href="#ygc83_5"/></g><g><path fill="none" stroke="rgb(244,67,54)" d="M -243,102 L -243,35.72182531580755" stroke-opacity="1" stroke-width="1" stroke-dasharray="0.01,2" stroke-dashoffset="0" stroke-linecap="square" stroke-linejoin="miter" stroke-miterlimit="10"/><use transform="matrix(0 1 -1 0 -243 28.97182531580755)" xlink:href="#ygc83_6"/></g><g><path fill="none" stroke="rgb(33,33,33)" d="M -70.07296716406447,121.49999999999999 L -172.50303221171595,121.49999999999999" stroke-opacity="1" stroke-width="1" stroke-linecap="butt" stroke-linejoin="miter" stroke-miterlimit="10"/><use transform="translate(-178.50303221171595 121.49999999999999)" xlink:href="#ygc83_7"/></g><g><path fill="none" stroke="rgb(33,33,33)" d="M -75.5,-83 L -125.5,-83 L -125.5,110.5 L -172.50303221171595,110.50000000000001" stroke-opacity="1" stroke-width="1" stroke-linecap="butt" stroke-linejoin="miter" stroke-miterlimit="10"/><use transform="matrix(1 -3.023391055111507e-16 3.023391055111507e-16 1 -178.50303221171595 110.50000000000001)" xlink:href="#ygc83_8"/></g><g><path fill="none" stroke="rgb(244,67,54)" d="M -305.07296716406444,121.49999999999999 L -419.4691527546995,121.5 L -419.4691527546995,187.27817468419244" stroke-opacity="1" stroke-width="1" stroke-dasharray="0.01,2" stroke-dashoffset="0" stroke-linecap="square" stroke-linejoin="miter" stroke-miterlimit="10"/><use transform="matrix(0 -1 1 0 -419.4691527546995 194.02817468419244)" xlink:href="#ygc83_9"/></g><g><path fill="none" stroke="rgb(33,33,33)" d="M -305.07296716406444,110.50000000000001 L -480.441337721115,110.50000000000001" stroke-opacity="1" stroke-width="1" stroke-linecap="butt" stroke-linejoin="miter" stroke-miterlimit="10"/><use transform="translate(-486.441337721115 110.50000000000001)" xlink:href="#ygc83_10"/></g><g><path fill="none" stroke="rgb(244,67,54)" d="M -490.4691527546995,122.2212942300096 L -490.4691527546995,187.72634431454867" stroke-opacity="1" stroke-width="1" stroke-dasharray="0.01,2" stroke-dashoffset="0" stroke-linecap="square" stroke-linejoin="miter" stroke-miterlimit="10"/><use transform="matrix(0 -1 1 0 -490.4691527546995 194.47634431454867)" xlink:href="#ygc83_11"/></g><g><path fill="none" stroke="rgb(244,67,54)" d="M -534.4845763773498,129.57770188772093 L -534.4845763773498,234 L -286,234 L -286,232.72182531580756" stroke-opacity="1" stroke-width="1" stroke-dasharray="0.01,2" stroke-dashoffset="0" stroke-linecap="square" stroke-linejoin="miter" stroke-miterlimit="10"/><use transform="matrix(0 1 -1 0 -286 225.97182531580756)" xlink:href="#ygc83_12"/></g><g><path fill="none" stroke="rgb(244,67,54)" d="M -550.938305509399,102 L -550.938305509399,44.72182531580755" stroke-opacity="1" stroke-width="1" stroke-dasharray="0.01,2" stroke-dashoffset="0" stroke-linecap="square" stroke-linejoin="miter" stroke-miterlimit="10"/><use transform="matrix(0 1 -1 0 -550.938305509399 37.97182531580755)" xlink:href="#ygc83_13"/></g><g><path fill="none" stroke="rgb(33,33,33)" d="M -618.438305509399,116 L -709.0143048851794,116" stroke-opacity="1" stroke-width="1" stroke-linecap="butt" stroke-linejoin="miter" stroke-miterlimit="10"/><use transform="translate(-715.0143048851794 116)" xlink:href="#ygc83_10"/></g><g><path fill="none" stroke="rgb(244,67,54)" d="M -852.438305509399,116 L -862.438305509399,116 L -862.438305509399,240 L -200,240 L -200,232.72182531580756" stroke-opacity="1" stroke-width="1" stroke-dasharray="0.01,2" stroke-dashoffset="0" stroke-linecap="square" stroke-linejoin="miter" stroke-miterlimit="10"/><use transform="matrix(0 1 -1 0 -200 225.97182531580756)" xlink:href="#ygc83_12"/></g><g><path fill="none" stroke="rgb(244,67,54)" d="M -722.8653383453345,215.5 L -506.1100747572449,215.5" stroke-opacity="1" stroke-width="1" stroke-dasharray="0.01,2" stroke-dashoffset="0" stroke-linecap="square" stroke-linejoin="miter" stroke-miterlimit="10"/><use transform="matrix(-1 0 0 -1 -499.3600747572449 215.5)" xlink:href="#ygc83_14"/></g><g><path fill="none" stroke="rgb(0,0,0)" d="M -588.4537291320493,127.63857382992974 L -588.4537291320493,204.5 L -714.4413377211149,204.5" stroke-opacity="1" stroke-width="1" stroke-linecap="butt" stroke-linejoin="miter" stroke-miterlimit="10"/><use transform="translate(-720.4413377211149 204.5)" xlink:href="#ygc83_15"/></g><g><path fill="none" stroke="rgb(244,67,54)" d="M -784.938305509399,224 L -784.938305509399,237 L -243,237 L -243,232.72182531580756" stroke-opacity="1" stroke-width="1" stroke-dasharray="0.01,2" stroke-dashoffset="0" stroke-linecap="square" stroke-linejoin="miter" stroke-miterlimit="10"/><use transform="matrix(0 1 -1 0 -243 225.97182531580756)" xlink:href="#ygc83_16"/></g><g><path fill="none" stroke="rgb(33,33,33)" d="M 59.5,-83 L 146.5759993757804,-83" stroke-opacity="1" stroke-width="1" stroke-linecap="butt" stroke-linejoin="miter" stroke-miterlimit="10"/><use transform="matrix(-1 0 0 -1 152.5759993757804 -83)" xlink:href="#ygc83_17"/></g><g><path fill="none" stroke="rgb(244,67,54)" d="M 220.00000000000006,-94.1678110953639 L 220,-125.27817468419245" stroke-opacity="1" stroke-width="1" stroke-dasharray="0.01,2" stroke-dashoffset="0" stroke-linecap="square" stroke-linejoin="miter" stroke-miterlimit="10"/><use transform="matrix(1.82715379389587e-15 1 -1 1.82715379389587e-15 220 -132.02817468419244)" xlink:href="#ygc83_18"/></g><g><path fill="none" stroke="rgb(244,67,54)" d="M 408.24999999999994,-94.72383460667791 L 408.25,-125.27817468419245" stroke-opacity="1" stroke-width="1" stroke-dasharray="0.01,2" stroke-dashoffset="0" stroke-linecap="square" stroke-linejoin="miter" stroke-miterlimit="10"/><use transform="matrix(-1.8604040773454654e-15 1 -1 -1.8604040773454654e-15 408.25 -132.02817468419244)" xlink:href="#ygc83_19"/></g><g><path fill="none" stroke="rgb(0,0,0)" d="M 439.1828456468113,-73.51416391677782 L 439.1828456468112,56.19540651437394 L 578.9157539815841,56.19540651437394" stroke-opacity="1" stroke-width="1" stroke-linecap="butt" stroke-linejoin="miter" stroke-miterlimit="10"/><use transform="matrix(-1 0 0 -1 584.9157539815841 56.19540651437394)" xlink:href="#ygc83_20"/></g><g><path fill="none" stroke="rgb(0,0,0)" d="M 482.5,-83 L 569.5759993757804,-83" stroke-opacity="1" stroke-width="1" stroke-linecap="butt" stroke-linejoin="miter" stroke-miterlimit="10"/><use transform="matrix(-1 0 0 -1 575.5759993757804 -83)" xlink:href="#ygc83_21"/></g><g><path fill="none" stroke="rgb(244,67,54)" d="M 645.5,-97 L 645.5,-125.27817468419245" stroke-opacity="1" stroke-width="1" stroke-dasharray="0.01,2" stroke-dashoffset="0" stroke-linecap="square" stroke-linejoin="miter" stroke-miterlimit="10"/><use transform="matrix(0 1 -1 0 645.5 -132.02817468419244)" xlink:href="#ygc83_22"/></g><g><path fill="none" stroke="rgb(244,67,54)" d="M 289.1156912936224,47.62032897008309 L 289.1156912936224,-11.540470396669846 L 224.08526898067782,-11.540470396669846" stroke-opacity="1" stroke-width="1" stroke-dasharray="0.01,2" stroke-dashoffset="0" stroke-linecap="square" stroke-linejoin="miter" stroke-miterlimit="10"/><use transform="translate(217.33526898067782 -11.540470396669846)" xlink:href="#ygc83_23"/></g><g><path fill="none" stroke="rgb(244,67,54)" d="M 648.1138809605882,48.28752228361182 L 648.1138809605882,4.57822183025074" stroke-opacity="1" stroke-width="1" stroke-dasharray="0.01,2" stroke-dashoffset="0" stroke-linecap="square" stroke-linejoin="miter" stroke-miterlimit="10"/><use transform="matrix(0 1 -1 0 648.1138809605882 -2.1717781697492597)" xlink:href="#ygc83_24"/></g><g><path fill="none" stroke="rgb(244,67,54)" d="M 648.1138809605882,76.28752228361182 L 648.1138809605882,210 L 255.22182531580756,210" stroke-opacity="1" stroke-width="1" stroke-dasharray="0.01,2" stroke-dashoffset="0" stroke-linecap="square" stroke-linejoin="miter" stroke-miterlimit="10"/><use transform="translate(248.47182531580756 210)" xlink:href="#ygc83_25"/></g><g><path fill="none" stroke="rgb(0,0,0)" d="M 382.1398176484069,66.01117497589819 L 574.6212388553506,66.01117497589819" stroke-opacity="1" stroke-width="1" stroke-linecap="butt" stroke-linejoin="miter" stroke-miterlimit="10"/><use transform="matrix(-1 0 0 -1 580.6212388553506 66.01117497589819)" xlink:href="#ygc83_26"/></g><g><path fill="none" stroke="rgb(0,0,0)" d="M 353.6156912936224,-69.3210258652957 L 353.6156912936224,39.1963283458635" stroke-opacity="1" stroke-width="1" stroke-linecap="butt" stroke-linejoin="miter" stroke-miterlimit="10"/><use transform="matrix(0 -1 1 0 353.6156912936224 45.1963283458635)" xlink:href="#ygc83_27"/></g><path fill="rgb(238,238,238)" stroke="rgb(0,0,0)" d="M 0,10 C 0,4.47715250169206 4.47715250169206,0 10,0 L 125,0 C 130.52284749830795,0 135,4.47715250169206 135,10 L 135,18 C 135,23.52284749830794 130.52284749830795,28 125,28 L 10,28 C 4.47715250169206,28 0,23.52284749830794 0,18 Z" fill-opacity="1" stroke-opacity="1" stroke-width="1" stroke-linecap="butt" stroke-linejoin="miter" stroke-miterlimit="10" transform="translate(-75.5 -162)"/><ellipse cx="-8" cy="-83" rx="67.5" ry="14" fill="rgb(128,222,234)" fill-opacity="1" stroke="rgb(0,0,0)" stroke-opacity="1" stroke-width="1" stroke-linecap="butt" stroke-linejoin="miter" stroke-miterlimit="10"/><path fill="rgb(238,238,238)" stroke="rgb(0,0,0)" d="M 0,10 C 0,4.47715250169206 4.47715250169206,0 10,0 L 125,0 C 130.52284749830795,0 135,4.47715250169206 135,10 L 135,18 C 135,23.52284749830794 130.52284749830795,28 125,28 L 10,28 C 4.47715250169206,28 0,23.52284749830794 0,18 Z" fill-opacity="1" stroke-opacity="1" stroke-width="1" stroke-linecap="butt" stroke-linejoin="miter" stroke-miterlimit="10" transform="translate(-75.5 196)"/><ellipse cx="-8" cy="116" rx="67.5" ry="14" fill="rgb(128,222,234)" fill-opacity="1" stroke="rgb(0,0,0)" stroke-opacity="1" stroke-width="1" stroke-linecap="butt" stroke-linejoin="miter" stroke-miterlimit="10"/><path fill="rgb(238,238,238)" stroke="rgb(0,0,0)" d="M 0,10 C 0,4.47715250169206 4.47715250169206,0 10,0 L 125,0 C 130.52284749830795,0 135,4.47715250169206 135,10 L 135,18 C 135,23.52284749830794 130.52284749830795,28 125,28 L 10,28 C 4.47715250169206,28 0,23.52284749830794 0,18 Z" fill-opacity="1" stroke-opacity="1" stroke-width="1" stroke-linecap="butt" stroke-linejoin="miter" stroke-miterlimit="10" transform="translate(111.5 196)"/><path fill="rgb(238,238,238)" stroke="rgb(0,0,0)" d="M 0,10 C 0,4.47715250169206 4.47715250169206,0 10,0 L 125,0 C 130.52284749830795,0 135,4.47715250169206 135,10 L 135,18 C 135,23.52284749830794 130.52284749830795,28 125,28 L 10,28 C 4.47715250169206,28 0,23.52284749830794 0,18 Z" fill-opacity="1" stroke-opacity="1" stroke-width="1" stroke-linecap="butt" stroke-linejoin="miter" stroke-miterlimit="10" transform="translate(111.5 102)"/><path fill="rgb(238,238,238)" stroke="rgb(0,0,0)" d="M 0,10 C 0,4.47715250169206 4.47715250169206,0 10,0 L 125,0 C 130.52284749830795,0 135,4.47715250169206 135,10 L 135,18 C 135,23.52284749830794 130.52284749830795,28 125,28 L 10,28 C 4.47715250169206,28 0,23.52284749830794 0,18 Z" fill-opacity="1" stroke-opacity="1" stroke-width="1" stroke-linecap="butt" stroke-linejoin="miter" stroke-miterlimit="10" transform="translate(-310.5 196)"/><ellipse cx="-243" cy="116" rx="67.5" ry="14" fill="rgb(128,222,234)" fill-opacity="1" stroke="rgb(0,0,0)" stroke-opacity="1" stroke-width="1" stroke-linecap="butt" stroke-linejoin="miter" stroke-miterlimit="10"/><path fill="rgb(238,238,238)" stroke="rgb(0,0,0)" d="M 0,10 C 0,4.47715250169206 4.47715250169206,0 10,0 L 125,0 C 130.52284749830795,0 135,4.47715250169206 135,10 L 135,18 C 135,23.52284749830794 130.52284749830795,28 125,28 L 10,28 C 4.47715250169206,28 0,23.52284749830794 0,18 Z" fill-opacity="1" stroke-opacity="1" stroke-width="1" stroke-linecap="butt" stroke-linejoin="miter" stroke-miterlimit="10" transform="translate(-310.5 -1)"/><path fill="rgb(238,238,238)" stroke="rgb(0,0,0)" d="M 0,10 C 0,4.47715250169206 4.47715250169206,0 10,0 L 125,0 C 130.52284749830795,0 135,4.47715250169206 135,10 L 135,18 C 135,23.52284749830794 130.52284749830795,28 125,28 L 10,28 C 4.47715250169206,28 0,23.52284749830794 0,18 Z" fill-opacity="1" stroke-opacity="1" stroke-width="1" stroke-linecap="butt" stroke-linejoin="miter" stroke-miterlimit="10" transform="translate(-497.5 196)"/><ellipse cx="-550.938" cy="116" rx="67.5" ry="14" fill="rgb(128,222,234)" fill-opacity="1" stroke="rgb(0,0,0)" stroke-opacity="1" stroke-width="1" stroke-linecap="butt" stroke-linejoin="miter" stroke-miterlimit="10"/><path fill="rgb(238,238,238)" stroke="rgb(0,0,0)" d="M 0,10 C 0,4.47715250169206 4.47715250169206,0 10,0 L 125,0 C 130.52284749830795,0 135,4.47715250169206 135,10 L 135,18 C 135,23.52284749830794 130.52284749830795,28 125,28 L 10,28 C 4.47715250169206,28 0,23.52284749830794 0,18 Z" fill-opacity="1" stroke-opacity="1" stroke-width="1" stroke-linecap="butt" stroke-linejoin="miter" stroke-miterlimit="10" transform="translate(-618.438305509399 8)"/><ellipse cx="-784.938" cy="116" rx="67.5" ry="14" fill="rgb(128,222,234)" fill-opacity="1" stroke="rgb(0,0,0)" stroke-opacity="1" stroke-width="1" stroke-linecap="butt" stroke-linejoin="miter" stroke-miterlimit="10"/><ellipse cx="-784.938" cy="210" rx="67.5" ry="14" fill="rgb(128,222,234)" fill-opacity="1" stroke="rgb(0,0,0)" stroke-opacity="1" stroke-width="1" stroke-linecap="butt" stroke-linejoin="miter" stroke-miterlimit="10"/><ellipse cx="318.75" cy="-83" rx="163.75" ry="14" fill="rgb(128,222,234)" fill-opacity="1" stroke="rgb(0,0,0)" stroke-opacity="1" stroke-width="1" stroke-linecap="butt" stroke-linejoin="miter" stroke-miterlimit="10"/><path fill="rgb(238,238,238)" stroke="rgb(0,0,0)" d="M 0,10 C 0,4.47715250169206 4.47715250169206,0 10,0 L 125,0 C 130.52284749830795,0 135,4.47715250169206 135,10 L 135,18 C 135,23.52284749830794 130.52284749830795,28 125,28 L 10,28 C 4.47715250169206,28 0,23.52284749830794 0,18 Z" fill-opacity="1" stroke-opacity="1" stroke-width="1" stroke-linecap="butt" stroke-linejoin="miter" stroke-miterlimit="10" transform="translate(150 -162)"/><path fill="rgb(238,238,238)" stroke="rgb(0,0,0)" d="M 0,10 C 0,4.47715250169206 4.47715250169206,0 10,0 L 125,0 C 130.52284749830795,0 135,4.47715250169206 135,10 L 135,18 C 135,23.52284749830794 130.52284749830795,28 125,28 L 10,28 C 4.47715250169206,28 0,23.52284749830794 0,18 Z" fill-opacity="1" stroke-opacity="1" stroke-width="1" stroke-linecap="butt" stroke-linejoin="miter" stroke-miterlimit="10" transform="translate(340.75 -162)"/><ellipse cx="648.114" cy="62.2875" rx="67.5" ry="14" fill="rgb(128,222,234)" fill-opacity="1" stroke="rgb(0,0,0)" stroke-opacity="1" stroke-width="1" stroke-linecap="butt" stroke-linejoin="miter" stroke-miterlimit="10"/><ellipse cx="321.366" cy="59.9191" rx="67.5" ry="14" fill="rgb(128,222,234)" fill-opacity="1" stroke="rgb(0,0,0)" stroke-opacity="1" stroke-width="1" stroke-linecap="butt" stroke-linejoin="miter" stroke-miterlimit="10"/><ellipse cx="645.5" cy="-83" rx="67.5" ry="14" fill="rgb(128,222,234)" fill-opacity="1" stroke="rgb(0,0,0)" stroke-opacity="1" stroke-width="1" stroke-linecap="butt" stroke-linejoin="miter" stroke-miterlimit="10"/><path fill="rgb(238,238,238)" stroke="rgb(0,0,0)" d="M 0,10 C 0,4.47715250169206 4.47715250169206,0 10,0 L 125,0 C 130.52284749830795,0 135,4.47715250169206 135,10 L 135,18 C 135,23.52284749830794 130.52284749830795,28 125,28 L 10,28 C 4.47715250169206,28 0,23.52284749830794 0,18 Z" fill-opacity="1" stroke-opacity="1" stroke-width="1" stroke-linecap="butt" stroke-linejoin="miter" stroke-miterlimit="10" transform="translate(578 -162)"/><path fill="rgb(238,238,238)" stroke="rgb(0,0,0)" d="M 0,10 C 0,4.47715250169206 4.47715250169206,0 10,0 L 125,0 C 130.52284749830795,0 135,4.47715250169206 135,10 L 135,18 C 135,23.52284749830794 130.52284749830795,28 125,28 L 10,28 C 4.47715250169206,28 0,23.52284749830794 0,18 Z" fill-opacity="1" stroke-opacity="1" stroke-width="1" stroke-linecap="butt" stroke-linejoin="miter" stroke-miterlimit="10" transform="translate(580.6138809605882 -32.14360348555681)"/><path fill="rgb(238,238,238)" stroke="rgb(0,0,0)" d="M 0,10 C 0,4.47715250169206 4.47715250169206,0 10,0 L 125,0 C 130.52284749830795,0 135,4.47715250169206 135,10 L 135,18 C 135,23.52284749830794 130.52284749830795,28 125,28 L 10,28 C 4.47715250169206,28 0,23.52284749830794 0,18 Z" fill-opacity="1" stroke-opacity="1" stroke-width="1" stroke-linecap="butt" stroke-linejoin="miter" stroke-miterlimit="10" transform="translate(80.36344366487026 -25.540470396669846)"/><g transform="matrix(3.8285686989269494e-16 -1 1 3.8285686989269494e-16 -27.000000000000025 84.38064294788556)"><text font-family="Arial" font-size="12px" font-style="normal" font-weight="normal" text-decoration="none" text-anchor="middle" fill="black" dy="0.9166666666666666em" transform="translate(71.5 0)">sosa:hasFeatureOfInterest</text></g><g transform="matrix(1 1.2246467991473532e-16 -1.2246467991473532e-16 1 -167.40650783580438 125.49999999999999)"><text font-family="Arial" font-size="12px" font-style="normal" font-weight="normal" text-decoration="none" text-anchor="middle" fill="black" dy="0.9166666666666666em" transform="translate(45.5 0)">sosa:isSampleOf</text></g><g transform="matrix(1.8369701987210297e-16 -1 1 1.8369701987210297e-16 -144.99999999999997 101.35702473123237)"><text font-family="Arial" font-size="12px" font-style="normal" font-weight="normal" text-decoration="none" text-anchor="middle" fill="black" dy="0.9166666666666666em" transform="translate(95.5 0)">sosa:hasUltimateFeatureOFInterest</text></g><g transform="matrix(1 1.2246467991473532e-16 -1.2246467991473532e-16 1 -433.95522866364394 91.5)"><text font-family="Arial" font-size="12px" font-style="normal" font-weight="normal" text-decoration="none" text-anchor="middle" fill="black" dy="0.9166666666666666em" transform="translate(39.5 0)">thing:locatedIn</text></g><g transform="matrix(1 1.2246467991473532e-16 -1.2246467991473532e-16 1 -705.6563053773525 96.99999999999999)"><text font-family="Arial" font-size="12px" font-style="normal" font-weight="normal" text-decoration="none" text-anchor="middle" fill="black" dy="0.9166666666666666em" transform="translate(39.5 0)">thing:locatedIn</text></g><g transform="matrix(1 1.2246467991473532e-16 -1.2246467991473532e-16 1 -698.8713626875945 185.33783399046854)"><text font-family="Arial" font-size="12px" font-style="normal" font-weight="normal" text-decoration="none" text-anchor="middle" fill="black" dy="0.9166666666666666em" transform="translate(39.5 0)">thing:locatedIn</text></g><g transform="translate(445.67126138162143 35.11423521330063)"><text font-family="Arial" font-size="12px" font-style="normal" font-weight="normal" text-decoration="none" text-anchor="middle" fill="black" dy="0.9166666666666666em" transform="translate(63.5 0)">iop:hasObjectOfInterest</text></g><g transform="translate(501.2366166338079 -78)"><text font-family="Arial" font-size="12px" font-style="normal" font-weight="normal" text-decoration="none" text-anchor="middle" fill="black" dy="0.9166666666666666em" transform="translate(42.5 0)">iop:hasProperty</text></g><g transform="matrix(0.9999737300196475 0.007248397794900093 -0.007248397794900093 0.9999737300196475 441.0545561234658 70.72867135175998)"><text font-family="Arial" font-size="12px" font-style="normal" font-weight="normal" text-decoration="none" text-anchor="middle" fill="black" dy="0.9166666666666666em" transform="translate(39 0)">iop:constraints</text></g><g transform="matrix(0.018298842312973025 0.9998325621672886 -0.9998325621672886 0.018298842312973025 347.7544736400837 -61.41636489331723)"><text font-family="Arial" font-size="12px" font-style="normal" font-weight="normal" text-decoration="none" text-anchor="middle" fill="black" dy="0.9166666666666666em" transform="translate(47 0)">iop:hasConstraint</text></g><g transform="translate(-55 -155)"><text font-family="Arial" font-size="12px" font-style="normal" font-weight="normal" text-decoration="none" text-anchor="middle" fill="black" dy="0.9166666666666666em" transform="translate(47 0)">sosa:Observation</text></g><g transform="translate(-29.5 -90)"><text font-family="Arial" font-size="12px" font-style="normal" font-weight="normal" text-decoration="none" text-anchor="middle" fill="black" dy="0.9166666666666666em" transform="translate(21.5 0)">Obs001</text></g><g transform="translate(-43 203)"><text font-family="Arial" font-size="12px" font-style="normal" font-weight="normal" text-decoration="none" text-anchor="middle" fill="black" dy="0.9166666666666666em" transform="translate(35 0)">sosa:Sample</text></g><g transform="translate(-55.5 109)"><text font-family="Arial" font-size="12px" font-style="normal" font-weight="normal" text-decoration="none" text-anchor="middle" fill="black" dy="0.9166666666666666em" transform="translate(47.5 0)">SampledPlant001</text></g><g transform="translate(151.5 203)"><text font-family="Arial" font-size="12px" font-style="normal" font-weight="normal" text-decoration="none" text-anchor="middle" fill="black" dy="0.9166666666666666em" transform="translate(27.5 0)">ncbi:taxon</text></g><g transform="translate(145 109)"><text font-family="Arial" font-size="12px" font-style="normal" font-weight="normal" text-decoration="none" text-anchor="middle" fill="black" dy="0.9166666666666666em" transform="translate(34 0)">PO:0000003</text></g><g transform="translate(-304.5 203)"><text font-family="Arial" font-size="12px" font-style="normal" font-weight="normal" text-decoration="none" text-anchor="middle" fill="black" dy="0.9166666666666666em" transform="translate(61.5 0)">sosa:FeatureOfInterest</text></g><g transform="translate(-277.5 109)"><text font-family="Arial" font-size="12px" font-style="normal" font-weight="normal" text-decoration="none" text-anchor="middle" fill="black" dy="0.9166666666666666em" transform="translate(34.5 0)">AF001-PlotA</text></g><g transform="translate(-283.5 6)"><text font-family="Arial" font-size="12px" font-style="normal" font-weight="normal" text-decoration="none" text-anchor="middle" fill="black" dy="0.9166666666666666em" transform="translate(40.5 0)">agro:00000301</text></g><g transform="translate(-460 203)"><text font-family="Arial" font-size="12px" font-style="normal" font-weight="normal" text-decoration="none" text-anchor="middle" fill="black" dy="0.9166666666666666em" transform="translate(30 0)">thing:Place</text></g><g transform="translate(-568.938305509399 109)"><text font-family="Arial" font-size="12px" font-style="normal" font-weight="normal" text-decoration="none" text-anchor="middle" fill="black" dy="0.9166666666666666em" transform="translate(18 0)">AF001</text></g><g transform="translate(-591.938305509399 15)"><text font-family="Arial" font-size="12px" font-style="normal" font-weight="normal" text-decoration="none" text-anchor="middle" fill="black" dy="0.9166666666666666em" transform="translate(41 0)">envo:00000114</text></g><g transform="translate(-798.938305509399 109)"><text font-family="Arial" font-size="12px" font-style="normal" font-weight="normal" text-decoration="none" text-anchor="middle" fill="black" dy="0.9166666666666666em" transform="translate(14 0)">West</text></g><g transform="translate(-820.938305509399 203)"><text font-family="Arial" font-size="12px" font-style="normal" font-weight="normal" text-decoration="none" text-anchor="middle" fill="black" dy="0.9166666666666666em" transform="translate(36 0)">2561 (safran)</text></g><g transform="translate(178.75 -90)"><text font-family="Arial" font-size="12px" font-style="normal" font-weight="normal" text-decoration="none" text-anchor="middle" fill="black" dy="0.9166666666666666em" transform="translate(140 0)">Presence of Bioagressor sp X on field-sampled plant</text></g><g transform="translate(180 -155)"><text font-family="Arial" font-size="12px" font-style="normal" font-weight="normal" text-decoration="none" text-anchor="middle" fill="black" dy="0.9166666666666666em" transform="translate(37.5 0)">sosa:Property</text></g><g transform="translate(376.75 -155)"><text font-family="Arial" font-size="12px" font-style="normal" font-weight="normal" text-decoration="none" text-anchor="middle" fill="black" dy="0.9166666666666666em" transform="translate(31.5 0)">iop:Variable</text></g><g transform="translate(602.1138809605882 55.28752228361182)"><text font-family="Arial" font-size="12px" font-style="normal" font-weight="normal" text-decoration="none" text-anchor="middle" fill="black" dy="0.9166666666666666em" transform="translate(46 0)">Bioagressor sp X</text></g><g transform="translate(285.3656912936224 52.91905920666031)"><text font-family="Arial" font-size="12px" font-style="normal" font-weight="normal" text-decoration="none" text-anchor="middle" fill="black" dy="0.9166666666666666em" transform="translate(36 0)">field-sampled</text></g><g transform="translate(620 -90)"><text font-family="Arial" font-size="12px" font-style="normal" font-weight="normal" text-decoration="none" text-anchor="middle" fill="black" dy="0.9166666666666666em" transform="translate(25.5 0)">Presence</text></g><g transform="translate(613 -155)"><text font-family="Arial" font-size="12px" font-style="normal" font-weight="normal" text-decoration="none" text-anchor="middle" fill="black" dy="0.9166666666666666em" transform="translate(32.5 0)">iop:Property</text></g><g transform="translate(623.1138809605882 -25.14360348555681)"><text font-family="Arial" font-size="12px" font-style="normal" font-weight="normal" text-decoration="none" text-anchor="middle" fill="black" dy="0.9166666666666666em" transform="translate(25 0)">iop:Entity</text></g><g transform="translate(110.36344366487026 -18.540470396669846)"><text font-family="Arial" font-size="12px" font-style="normal" font-weight="normal" text-decoration="none" text-anchor="middle" fill="black" dy="0.9166666666666666em" transform="translate(37.5 0)">iop:Constraint</text></g></g></g></g><defs><path fill="rgb(244,67,54)" stroke="rgb(244,67,54)" d="M 0,0 L 3.75,-2.25 L 7.5,0 L 3.75,2.25 Z" fill-opacity="1" stroke-opacity="1" stroke-width="1" stroke-linecap="butt" stroke-linejoin="miter" stroke-miterlimit="10" id="ygc83_0"/><path fill="rgb(244,67,54)" stroke="rgb(244,67,54)" d="M 0,0 L 3.75,-2.25 L 7.5,0 L 3.75,2.25 Z" fill-opacity="1" stroke-opacity="1" stroke-width="1" stroke-linecap="butt" stroke-linejoin="miter" stroke-miterlimit="10" id="ygc83_1"/><path fill="rgb(244,67,54)" stroke="rgb(244,67,54)" d="M 0,0 L 3.75,-2.25 L 7.5,0 L 3.75,2.25 Z" fill-opacity="1" stroke-opacity="1" stroke-width="1" stroke-linecap="butt" stroke-linejoin="miter" stroke-miterlimit="10" id="ygc83_2"/><path fill="rgb(244,67,54)" stroke="rgb(244,67,54)" d="M 0,0 L 3.75,-2.25 L 7.5,0 L 3.75,2.25 Z" fill-opacity="1" stroke-opacity="1" stroke-width="1" stroke-linecap="butt" stroke-linejoin="miter" stroke-miterlimit="10" id="ygc83_3"/><path fill="rgb(33,33,33)" stroke="rgb(33,33,33)" d="M 6,-2.25 L 0,0 L 6,2.25 Z" fill-opacity="1" stroke-opacity="1" stroke-width="1" stroke-linecap="butt" stroke-linejoin="miter" stroke-miterlimit="10" id="ygc83_4"/><path fill="rgb(244,67,54)" stroke="rgb(244,67,54)" d="M 0,0 L 3.75,-2.25 L 7.5,0 L 3.75,2.25 Z" fill-opacity="1" stroke-opacity="1" stroke-width="1" stroke-linecap="butt" stroke-linejoin="miter" stroke-miterlimit="10" id="ygc83_5"/><path fill="rgb(244,67,54)" stroke="rgb(244,67,54)" d="M 0,0 L 3.75,-2.25 L 7.5,0 L 3.75,2.25 Z" fill-opacity="1" stroke-opacity="1" stroke-width="1" stroke-linecap="butt" stroke-linejoin="miter" stroke-miterlimit="10" id="ygc83_6"/><path fill="rgb(33,33,33)" stroke="rgb(33,33,33)" d="M 6,-2.25 L 0,0 L 6,2.25 Z" fill-opacity="1" stroke-opacity="1" stroke-width="1" stroke-linecap="butt" stroke-linejoin="miter" stroke-miterlimit="10" id="ygc83_7"/><path fill="rgb(33,33,33)" stroke="rgb(33,33,33)" d="M 6,-2.25 L 0,0 L 6,2.25 Z" fill-opacity="1" stroke-opacity="1" stroke-width="1" stroke-linecap="butt" stroke-linejoin="miter" stroke-miterlimit="10" id="ygc83_8"/><path fill="rgb(244,67,54)" stroke="rgb(244,67,54)" d="M 0,0 L 3.75,-2.25 L 7.5,0 L 3.75,2.25 Z" fill-opacity="1" stroke-opacity="1" stroke-width="1" stroke-linecap="butt" stroke-linejoin="miter" stroke-miterlimit="10" id="ygc83_9"/><path fill="rgb(33,33,33)" stroke="rgb(33,33,33)" d="M 6,-2.25 L 0,0 L 6,2.25 Z" fill-opacity="1" stroke-opacity="1" stroke-width="1" stroke-linecap="butt" stroke-linejoin="miter" stroke-miterlimit="10" id="ygc83_10"/><path fill="rgb(244,67,54)" stroke="rgb(244,67,54)" d="M 0,0 L 3.75,-2.25 L 7.5,0 L 3.75,2.25 Z" fill-opacity="1" stroke-opacity="1" stroke-width="1" stroke-linecap="butt" stroke-linejoin="miter" stroke-miterlimit="10" id="ygc83_11"/><path fill="rgb(244,67,54)" stroke="rgb(244,67,54)" d="M 0,0 L 3.75,-2.25 L 7.5,0 L 3.75,2.25 Z" fill-opacity="1" stroke-opacity="1" stroke-width="1" stroke-linecap="butt" stroke-linejoin="miter" stroke-miterlimit="10" id="ygc83_12"/><path fill="rgb(244,67,54)" stroke="rgb(244,67,54)" d="M 0,0 L 3.75,-2.25 L 7.5,0 L 3.75,2.25 Z" fill-opacity="1" stroke-opacity="1" stroke-width="1" stroke-linecap="butt" stroke-linejoin="miter" stroke-miterlimit="10" id="ygc83_13"/><path fill="rgb(244,67,54)" stroke="rgb(244,67,54)" d="M 0,0 L 3.75,-2.25 L 7.5,0 L 3.75,2.25 Z" fill-opacity="1" stroke-opacity="1" stroke-width="1" stroke-linecap="butt" stroke-linejoin="miter" stroke-miterlimit="10" id="ygc83_14"/><path fill="rgb(0,0,0)" stroke="rgb(0,0,0)" d="M 6,-2.25 L 0,0 L 6,2.25 Z" fill-opacity="1" stroke-opacity="1" stroke-width="1" stroke-linecap="butt" stroke-linejoin="miter" stroke-miterlimit="10" id="ygc83_15"/><path fill="rgb(244,67,54)" stroke="rgb(244,67,54)" d="M 0,0 L 3.75,-2.25 L 7.5,0 L 3.75,2.25 Z" fill-opacity="1" stroke-opacity="1" stroke-width="1" stroke-linecap="butt" stroke-linejoin="miter" stroke-miterlimit="10" id="ygc83_16"/><path fill="rgb(33,33,33)" stroke="rgb(33,33,33)" d="M 6,-2.25 L 0,0 L 6,2.25 Z" fill-opacity="1" stroke-opacity="1" stroke-width="1" stroke-linecap="butt" stroke-linejoin="miter" stroke-miterlimit="10" id="ygc83_17"/><path fill="rgb(244,67,54)" stroke="rgb(244,67,54)" d="M 0,0 L 3.75,-2.25 L 7.5,0 L 3.75,2.25 Z" fill-opacity="1" stroke-opacity="1" stroke-width="1" stroke-linecap="butt" stroke-linejoin="miter" stroke-miterlimit="10" id="ygc83_18"/><path fill="rgb(244,67,54)" stroke="rgb(244,67,54)" d="M 0,0 L 3.75,-2.25 L 7.5,0 L 3.75,2.25 Z" fill-opacity="1" stroke-opacity="1" stroke-width="1" stroke-linecap="butt" stroke-linejoin="miter" stroke-miterlimit="10" id="ygc83_19"/><path fill="rgb(0,0,0)" stroke="rgb(0,0,0)" d="M 6,-2.25 L 0,0 L 6,2.25 Z" fill-opacity="1" stroke-opacity="1" stroke-width="1" stroke-linecap="butt" stroke-linejoin="miter" stroke-miterlimit="10" id="ygc83_20"/><path fill="rgb(0,0,0)" stroke="rgb(0,0,0)" d="M 6,-2.25 L 0,0 L 6,2.25 Z" fill-opacity="1" stroke-opacity="1" stroke-width="1" stroke-linecap="butt" stroke-linejoin="miter" stroke-miterlimit="10" id="ygc83_21"/><path fill="rgb(244,67,54)" stroke="rgb(244,67,54)" d="M 0,0 L 3.75,-2.25 L 7.5,0 L 3.75,2.25 Z" fill-opacity="1" stroke-opacity="1" stroke-width="1" stroke-linecap="butt" stroke-linejoin="miter" stroke-miterlimit="10" id="ygc83_22"/><path fill="rgb(244,67,54)" stroke="rgb(244,67,54)" d="M 0,0 L 3.75,-2.25 L 7.5,0 L 3.75,2.25 Z" fill-opacity="1" stroke-opacity="1" stroke-width="1" stroke-linecap="butt" stroke-linejoin="miter" stroke-miterlimit="10" id="ygc83_23"/><path fill="rgb(244,67,54)" stroke="rgb(244,67,54)" d="M 0,0 L 3.75,-2.25 L 7.5,0 L 3.75,2.25 Z" fill-opacity="1" stroke-opacity="1" stroke-width="1" stroke-linecap="butt" stroke-linejoin="miter" stroke-miterlimit="10" id="ygc83_24"/><path fill="rgb(244,67,54)" stroke="rgb(244,67,54)" d="M 0,0 L 3.75,-2.25 L 7.5,0 L 3.75,2.25 Z" fill-opacity="1" stroke-opacity="1" stroke-width="1" stroke-linecap="butt" stroke-linejoin="miter" stroke-miterlimit="10" id="ygc83_25"/><path fill="rgb(0,0,0)" stroke="rgb(0,0,0)" d="M 6,-2.25 L 0,0 L 6,2.25 Z" fill-opacity="1" stroke-opacity="1" stroke-width="1" stroke-linecap="butt" stroke-linejoin="miter" stroke-miterlimit="10" id="ygc83_26"/><path fill="rgb(0,0,0)" stroke="rgb(0,0,0)" d="M 6,-2.25 L 0,0 L 6,2.25 Z" fill-opacity="1" stroke-opacity="1" stroke-width="1" stroke-linecap="butt" stroke-linejoin="miter" stroke-miterlimit="10" id="ygc83_27"/></defs></svg>