<svg xmlns="http://www.w3.org/2000/svg" style="display: block; width: 1058px; height: 618px; overflow: auto;" width="1058px" height="618px" viewBox="0 0 1058 618" xmlns:xlink="http://www.w3.org/1999/xlink"><rect width="1058px" height="618px" fill="white"/><clipPath id="ygc179_14"><rect x="25" y="25" width="1007.02" height="567.002"/></clipPath><g clip-path="url(#ygc179_14)"><g style="pointer-events: visiblepainted;" transform="translate(433.01638876854986 395.99999999892134)" image-rendering="auto" shape-rendering="auto"><g style="box-sizing: initial;"><g><path fill="none" stroke="rgb(0,0,0)" d="M 114.50000000000001,-83.5 L 227.0759993757804,-83.5" stroke-opacity="1" stroke-width="1" stroke-linecap="butt" stroke-linejoin="miter" stroke-miterlimit="10"/><use transform="matrix(-1 0 0 -1 233.0759993757804 -83.5)" xlink:href="#ygc179_0"/></g><g><path fill="none" stroke="rgb(0,0,0)" d="M 53.50004382490158,-66.00000000000452 L 53.50042591794533,86.57600187886227" stroke-opacity="1" stroke-width="1" stroke-linecap="butt" stroke-linejoin="miter" stroke-miterlimit="10"/><use transform="matrix(-0.000002504280090188673 -0.9999999999968644 0.9999999999968644 -0.000002504280090188673 53.50044094362587 92.57600187884346)" xlink:href="#ygc179_1"/></g><g><path fill="none" stroke="rgb(0,0,0)" d="M 53.49995617509842,-100.99999999999548 L 53.4996341847831,-229.57599937473273" stroke-opacity="1" stroke-width="1" stroke-linecap="butt" stroke-linejoin="miter" stroke-miterlimit="10"/><use transform="matrix(0.0000025042800902633314 0.9999999999968642 -0.9999999999968642 0.0000025042800902633314 53.49961915910256 -235.57599937471392)" xlink:href="#ygc179_2"/></g><g><path fill="none" stroke="rgb(211,47,47)" d="M -7.5,-83.5 L -119.77817468419245,-83.5" stroke-opacity="1" stroke-width="1" stroke-dasharray="0.01,2" stroke-dashoffset="0" stroke-linecap="square" stroke-linejoin="miter" stroke-miterlimit="10"/><use transform="translate(-126.52817468419245 -83.5)" xlink:href="#ygc179_3"/></g><g><path fill="none" stroke="rgb(0,0,0)" d="M 37.73845443550232,-100.40573076947175 L -85.35292944029469,-232.43274470224148" stroke-opacity="1" stroke-width="1" stroke-linecap="butt" stroke-linejoin="miter" stroke-miterlimit="10"/><use transform="matrix(0.6819219103673003 0.7314249846436829 -0.7314249846436829 0.6819219103673003 -89.44446090249849 -236.82129461010356)" xlink:href="#ygc179_4"/></g><g><path fill="none" stroke="rgb(211,47,47)" d="M 53.49956926382447,-272.9999999989214 L 53.49956926382447,-322.2781746831138" stroke-opacity="1" stroke-width="1" stroke-dasharray="0.01,2" stroke-dashoffset="0" stroke-linecap="square" stroke-linejoin="miter" stroke-miterlimit="10"/><use transform="matrix(0 1 -1 0 53.49956926382447 -329.0281746831138)" xlink:href="#ygc179_5"/></g><g><path fill="none" stroke="rgb(211,47,47)" d="M -7.4995091605090565,112.49992573081308 L -119.77817468419936,112.4997844212325" stroke-opacity="1" stroke-width="1" stroke-dasharray="0.01,2" stroke-dashoffset="0" stroke-linecap="square" stroke-linejoin="miter" stroke-miterlimit="10"/><use transform="matrix(0.999999999999208 0.0000012585612761874986 -0.0000012585612761874986 0.999999999999208 -126.52817468419401 112.49977592594388)" xlink:href="#ygc179_6"/></g><g><path fill="none" stroke="rgb(211,47,47)" d="M 13.711419157430392,99.23538368182368 L -120.22584949946639,54.58425864647206" stroke-opacity="1" stroke-width="1" stroke-dasharray="0.01,2" stroke-dashoffset="0" stroke-linecap="square" stroke-linejoin="miter" stroke-miterlimit="10"/><use transform="matrix(0.9486718893048032 0.3162619901961905 -0.3162619901961905 0.9486718893048032 -126.62938475227381 52.449490212647774)" xlink:href="#ygc179_7"/></g><g><path fill="none" stroke="rgb(211,47,47)" d="M 13.711178625277967,125.76456194144936 L -120.22584079163438,170.4151340729564" stroke-opacity="1" stroke-width="1" stroke-dasharray="0.01,2" stroke-dashoffset="0" stroke-linecap="square" stroke-linejoin="miter" stroke-miterlimit="10"/><use transform="matrix(0.9486728877004025 -0.31625899535377605 0.31625899535377605 0.9486728877004025 -126.6293827836121 172.54988229159437)" xlink:href="#ygc179_8"/></g><g><path fill="none" stroke="rgb(211,47,47)" d="M 296.4999715551582,-100.9999999999981 L 296.4997630493078,-229.27817468312531" stroke-opacity="1" stroke-width="1" stroke-dasharray="0.01,2" stroke-dashoffset="0" stroke-linecap="square" stroke-linejoin="miter" stroke-miterlimit="10"/><use transform="matrix(0.0000016254195301602212 0.9999999999986791 -0.9999999999986791 0.0000016254195301602212 296.499752077726 -236.02817468311642)" xlink:href="#ygc179_9"/></g><g><path fill="none" stroke="rgb(211,47,47)" d="M 357.5,-83.5 L 439.2778951120332,-83.5" stroke-opacity="1" stroke-width="1" stroke-dasharray="0.01,2" stroke-dashoffset="0" stroke-linecap="square" stroke-linejoin="miter" stroke-miterlimit="10"/><use transform="matrix(-1 0 0 -1 446.0278951120332 -83.5)" xlink:href="#ygc179_10"/></g><g><path fill="none" stroke="rgb(0,0,0)" d="M -167.85898560339552,-255.49999999892137 L -272.59238814433024,-255.4999999989213" stroke-opacity="1" stroke-width="1" stroke-linecap="butt" stroke-linejoin="miter" stroke-miterlimit="10"/><use transform="matrix(1 -5.427439334704222e-16 5.427439334704222e-16 1 -278.59238814433024 -255.4999999989213)" xlink:href="#ygc179_11"/></g><g><path fill="none" stroke="rgb(211,47,47)" d="M -125.10895048180174,-272.1984434743977 L -182.93928549486807,-325.11233053212896" stroke-opacity="1" stroke-width="1" stroke-dasharray="0.01,2" stroke-dashoffset="0" stroke-linecap="square" stroke-linejoin="miter" stroke-miterlimit="10"/><use transform="matrix(0.7377718469980326 0.6750501476017257 -0.6750501476017257 0.7377718469980326 -187.9192454621048 -329.66891902844065)" xlink:href="#ygc179_12"/></g><g><path fill="none" stroke="rgb(211,47,47)" d="M -318.7855872852642,-271.6812685148839 L -240.78085101487267,-326.0149764593218" stroke-opacity="1" stroke-width="1" stroke-dasharray="0.01,2" stroke-dashoffset="0" stroke-linecap="square" stroke-linejoin="miter" stroke-miterlimit="10"/><use transform="matrix(-0.8205621077855897 0.5715573700569964 -0.5715573700569964 -0.8205621077855897 -235.24205678731994 -329.87298870720656)" xlink:href="#ygc179_13"/></g><ellipse cx="53.5" cy="-83.5" rx="61" ry="17.5" fill="rgb(255,255,255)" fill-opacity="1" stroke="rgb(56,142,60)" stroke-opacity="1" stroke-width="1" stroke-linecap="butt" stroke-linejoin="miter" stroke-miterlimit="10"/><g transform="translate(25 -90.5)"><text font-family="Arial" font-size="12px" font-style="normal" font-weight="normal" text-decoration="none" text-anchor="middle" fill="black" dy="0.9166666666666666em" transform="translate(28.5 0)">dp:obs001</text></g><ellipse cx="53.4996" cy="-255.5" rx="61" ry="17.5" fill="rgb(255,255,255)" fill-opacity="1" stroke="rgb(56,142,60)" stroke-opacity="1" stroke-width="1" stroke-linecap="butt" stroke-linejoin="miter" stroke-miterlimit="10"/><g transform="translate(5.999569263824469 -262.4999999989214)"><text font-family="Arial" font-size="12px" font-style="normal" font-weight="normal" text-decoration="none" text-anchor="middle" fill="black" dy="0.9166666666666666em" transform="translate(47.5 0)">dp:obs001-Result</text></g><ellipse cx="53.5005" cy="112.5" rx="61" ry="17.5" fill="rgb(255,255,255)" fill-opacity="1" stroke="rgb(56,142,60)" stroke-opacity="1" stroke-width="1" stroke-linecap="butt" stroke-linejoin="miter" stroke-miterlimit="10"/><g transform="translate(27.000490838903943 105.50000250305092)"><text font-family="Arial" font-size="12px" font-style="normal" font-weight="normal" text-decoration="none" text-anchor="middle" fill="black" dy="0.9166666666666666em" transform="translate(26.5 0)">dp:AF001</text></g><ellipse cx="296.5" cy="-83.5" rx="61" ry="17.5" fill="rgb(255,255,255)" fill-opacity="1" stroke="rgb(56,142,60)" stroke-opacity="1" stroke-width="1" stroke-linecap="butt" stroke-linejoin="miter" stroke-miterlimit="10"/><g transform="translate(259.5 -90.5)"><text font-family="Arial" font-size="12px" font-style="normal" font-weight="normal" text-decoration="none" text-anchor="middle" fill="black" dy="0.9166666666666666em" transform="translate(37 0)">dp:Variable_1</text></g><path fill="rgb(255,255,255)" stroke="rgb(0,0,0)" d="M 0,10 C 0,4.47715250169206 4.47715250169206,0 10,0 L 136,0 C 141.52284749830795,0 146,4.47715250169206 146,10 L 146,25 C 146,30.52284749830794 141.52284749830795,35 136,35 L 10,35 C 4.47715250169206,35 0,30.52284749830794 0,25 Z" fill-opacity="1" stroke-opacity="1" stroke-width="1" stroke-linecap="butt" stroke-linejoin="miter" stroke-miterlimit="10" transform="translate(-274.5 -101)"/><g transform="translate(-248.5 -90.5)"><text font-family="Arial" font-size="12px" font-style="normal" font-weight="normal" text-decoration="none" text-anchor="middle" fill="black" dy="0.9166666666666666em" transform="translate(47 0)">sosa:Observation</text></g><path fill="rgb(255,255,255)" stroke="rgb(0,0,0)" d="M 0,10 C 0,4.47715250169206 4.47715250169206,0 10,0 L 136,0 C 141.52284749830795,0 146,4.47715250169206 146,10 L 146,25 C 146,30.52284749830794 141.52284749830795,35 136,35 L 10,35 C 4.47715250169206,35 0,30.52284749830794 0,25 Z" fill-opacity="1" stroke-opacity="1" stroke-width="1" stroke-linecap="butt" stroke-linejoin="miter" stroke-miterlimit="10" transform="translate(-274.5 94.99968156930774)"/><g transform="translate(-263 105.49968156930774)"><text font-family="Arial" font-size="12px" font-style="normal" font-weight="normal" text-decoration="none" text-anchor="middle" fill="black" dy="0.9166666666666666em" transform="translate(61.5 0)">sosa:FeatureOfInterest</text></g><path fill="rgb(255,255,255)" stroke="rgb(0,0,0)" d="M 0,10 C 0,4.47715250169206 4.47715250169206,0 10,0 L 136,0 C 141.52284749830795,0 146,4.47715250169206 146,10 L 146,25 C 146,30.52284749830794 141.52284749830795,35 136,35 L 10,35 C 4.47715250169206,35 0,30.52284749830794 0,25 Z" fill-opacity="1" stroke-opacity="1" stroke-width="1" stroke-linecap="butt" stroke-linejoin="miter" stroke-miterlimit="10" transform="translate(-19.50043073617553 -365.99999999892134)"/><g transform="translate(21.99956926382447 -355.49999999892134)"><text font-family="Arial" font-size="12px" font-style="normal" font-weight="normal" text-decoration="none" text-anchor="middle" fill="black" dy="0.9166666666666666em" transform="translate(31.5 0)">sosa:Result</text></g><path fill="rgb(255,255,255)" stroke="rgb(0,0,0)" d="M 0,10 C 0,4.47715250169206 4.47715250169206,0 10,0 L 136,0 C 141.52284749830795,0 146,4.47715250169206 146,10 L 146,25 C 146,30.52284749830794 141.52284749830795,35 136,35 L 10,35 C 4.47715250169206,35 0,30.52284749830794 0,25 Z" fill-opacity="1" stroke-opacity="1" stroke-width="1" stroke-linecap="butt" stroke-linejoin="miter" stroke-miterlimit="10" transform="translate(223.49972042784077 -272.99999999892134)"/><g transform="translate(228.49972042784077 -262.49999999892134)"><text font-family="Arial" font-size="12px" font-style="normal" font-weight="normal" text-decoration="none" text-anchor="middle" fill="black" dy="0.9166666666666666em" transform="translate(68 0)">sosa:ObservableProperty</text></g><ellipse cx="-106.859" cy="-255.5" rx="61" ry="17.5" fill="rgb(255,255,255)" fill-opacity="1" stroke="rgb(56,142,60)" stroke-opacity="1" stroke-width="1" stroke-linecap="butt" stroke-linejoin="miter" stroke-miterlimit="10"/><g transform="translate(-130.35898560339552 -262.4999999989214)"><text font-family="Arial" font-size="12px" font-style="normal" font-weight="normal" text-decoration="none" text-anchor="middle" fill="black" dy="0.9166666666666666em" transform="translate(23.5 0)">dp:Y1S1</text></g><ellipse cx="-342.016" cy="-255.5" rx="61" ry="17.5" fill="rgb(255,255,255)" fill-opacity="1" stroke="rgb(56,142,60)" stroke-opacity="1" stroke-width="1" stroke-linecap="butt" stroke-linejoin="miter" stroke-miterlimit="10"/><g transform="translate(-358.01638876854986 -262.4999999989213)"><text font-family="Arial" font-size="12px" font-style="normal" font-weight="normal" text-decoration="none" text-anchor="middle" fill="black" dy="0.9166666666666666em" transform="translate(16 0)">dp:Y1</text></g><path fill="rgb(255,255,255)" stroke="rgb(255,140,0)" d="M 0,10 C 0,4.47715250169206 4.47715250169206,0 10,0 L 136,0 C 141.52284749830795,0 146,4.47715250169206 146,10 L 146,25 C 146,30.52284749830794 141.52284749830795,35 136,35 L 10,35 C 4.47715250169206,35 0,30.52284749830794 0,25 Z" fill-opacity="1" stroke-opacity="1" stroke-width="1" stroke-linecap="butt" stroke-linejoin="miter" stroke-miterlimit="10" transform="translate(-281.5 -365.99999999892134)"/><g transform="translate(-254.5 -355.49999999892134)"><text font-family="Arial" font-size="12px" font-style="normal" font-weight="normal" text-decoration="none" text-anchor="middle" fill="black" dy="0.9166666666666666em" transform="translate(46 0)">time:TimeInterval</text></g><path fill="rgb(255,255,255)" stroke="rgb(255,140,0)" d="M 0,10 C 0,4.47715250169206 4.47715250169206,0 10,0 L 136,0 C 141.52284749830795,0 146,4.47715250169206 146,10 L 146,25 C 146,30.52284749830794 141.52284749830795,35 136,35 L 10,35 C 4.47715250169206,35 0,30.52284749830794 0,25 Z" fill-opacity="1" stroke-opacity="1" stroke-width="1" stroke-linecap="butt" stroke-linejoin="miter" stroke-miterlimit="10" transform="translate(-274.5 33.99700844224637)"/><g transform="translate(-231.5 44.49700844224637)"><text font-family="Arial" font-size="12px" font-style="normal" font-weight="normal" text-decoration="none" text-anchor="middle" fill="black" dy="0.9166666666666666em" transform="translate(30 0)">thing:Place</text></g><path fill="rgb(255,255,255)" stroke="rgb(255,140,0)" d="M 0,10 C 0,4.47715250169206 4.47715250169206,0 10,0 L 136,0 C 141.52284749830795,0 146,4.47715250169206 146,10 L 146,25 C 146,30.52284749830794 141.52284749830795,35 136,35 L 10,35 C 4.47715250169206,35 0,30.52284749830794 0,25 Z" fill-opacity="1" stroke-opacity="1" stroke-width="1" stroke-linecap="butt" stroke-linejoin="miter" stroke-miterlimit="10" transform="translate(-274.5 156.0023546963691)"/><g transform="translate(-242.5 166.5023546963691)"><text font-family="Arial" font-size="12px" font-style="normal" font-weight="normal" text-decoration="none" text-anchor="middle" fill="black" dy="0.9166666666666666em" transform="translate(41 0)">envo:00000114</text></g><path fill="rgb(255,255,255)" stroke="rgb(255,140,0)" d="M 0,10 C 0,4.47715250169206 4.47715250169206,0 10,0 L 136,0 C 141.52284749830795,0 146,4.47715250169206 146,10 L 146,25 C 146,30.52284749830794 141.52284749830795,35 136,35 L 10,35 C 4.47715250169206,35 0,30.52284749830794 0,25 Z" fill-opacity="1" stroke-opacity="1" stroke-width="1" stroke-linecap="butt" stroke-linejoin="miter" stroke-miterlimit="10" transform="translate(447.99972042784077 -101)"/><g transform="translate(451.99972042784077 -90.5)"><text font-family="Arial" font-size="12px" font-style="normal" font-weight="normal" text-decoration="none" text-anchor="middle" fill="black" dy="0.9166666666666666em" transform="translate(69 0)">envo / chebi (cas par cas)</text></g><g transform="translate(107.28799968789022 -78.50000000000001)"><text font-family="Arial" font-size="12px" font-style="normal" font-weight="normal" text-decoration="none" text-anchor="middle" fill="black" dy="0.9166666666666666em" transform="translate(63.5 0)">sosa:ObservedProperty</text></g><g transform="matrix(0.0000025042800897791902 0.9999999999968643 -0.9999999999968643 0.0000025042800897791902 48.50006609792912 -57.106009547684195)"><text font-family="Arial" font-size="12px" font-style="normal" font-weight="normal" text-decoration="none" text-anchor="middle" fill="black" dy="0.9166666666666666em" transform="translate(71.5 0)">sosa:hasFeatureOfInterest</text></g><g transform="matrix(0.0000025042800903457443 0.9999999999968643 -0.9999999999968643 0.0000025042800903457443 72.49969125225743 -206.78804726855572)"><text font-family="Arial" font-size="12px" font-style="normal" font-weight="normal" text-decoration="none" text-anchor="middle" fill="black" dy="0.9166666666666666em" transform="translate(41.5 0)">sosa:hasResult</text></g><g transform="matrix(1 1.2246467991473532e-16 -1.2246467991473532e-16 1 -273.37103782120636 -274.49999999892134)"><text font-family="Arial" font-size="12px" font-style="normal" font-weight="normal" text-decoration="none" text-anchor="middle" fill="black" dy="0.9166666666666666em" transform="translate(50.5 0)">time:IntervalDuring</text></g><g transform="matrix(0.6819219103673002 0.7314249846436829 -0.7314249846436829 0.6819219103673002 -52.871243147306146 -225.45552806538734)"><text font-family="Arial" font-size="12px" font-style="normal" font-weight="normal" text-decoration="none" text-anchor="middle" fill="black" dy="0.9166666666666666em" transform="translate(63 0)">sosa:phenomenonTime</text></g></g></g></g><defs><path fill="rgb(0,0,0)" stroke="rgb(0,0,0)" d="M 6,-2.25 L 0,0 L 6,2.25 Z" fill-opacity="1" stroke-opacity="1" stroke-width="1" stroke-linecap="butt" stroke-linejoin="miter" stroke-miterlimit="10" id="ygc179_0"/><path fill="rgb(0,0,0)" stroke="rgb(0,0,0)" d="M 6,-2.25 L 0,0 L 6,2.25 Z" fill-opacity="1" stroke-opacity="1" stroke-width="1" stroke-linecap="butt" stroke-linejoin="miter" stroke-miterlimit="10" id="ygc179_1"/><path fill="rgb(0,0,0)" stroke="rgb(0,0,0)" d="M 6,-2.25 L 0,0 L 6,2.25 Z" fill-opacity="1" stroke-opacity="1" stroke-width="1" stroke-linecap="butt" stroke-linejoin="miter" stroke-miterlimit="10" id="ygc179_2"/><path fill="rgb(211,47,47)" stroke="rgb(211,47,47)" d="M 0,0 L 3.75,-2.25 L 7.5,0 L 3.75,2.25 Z" fill-opacity="1" stroke-opacity="1" stroke-width="1" stroke-linecap="butt" stroke-linejoin="miter" stroke-miterlimit="10" id="ygc179_3"/><path fill="rgb(0,0,0)" stroke="rgb(0,0,0)" d="M 6,-2.25 L 0,0 L 6,2.25 Z" fill-opacity="1" stroke-opacity="1" stroke-width="1" stroke-linecap="butt" stroke-linejoin="miter" stroke-miterlimit="10" id="ygc179_4"/><path fill="rgb(211,47,47)" stroke="rgb(211,47,47)" d="M 0,0 L 3.75,-2.25 L 7.5,0 L 3.75,2.25 Z" fill-opacity="1" stroke-opacity="1" stroke-width="1" stroke-linecap="butt" stroke-linejoin="miter" stroke-miterlimit="10" id="ygc179_5"/><path fill="rgb(211,47,47)" stroke="rgb(211,47,47)" d="M 0,0 L 3.75,-2.25 L 7.5,0 L 3.75,2.25 Z" fill-opacity="1" stroke-opacity="1" stroke-width="1" stroke-linecap="butt" stroke-linejoin="miter" stroke-miterlimit="10" id="ygc179_6"/><path fill="rgb(211,47,47)" stroke="rgb(211,47,47)" d="M 0,0 L 3.75,-2.25 L 7.5,0 L 3.75,2.25 Z" fill-opacity="1" stroke-opacity="1" stroke-width="1" stroke-linecap="butt" stroke-linejoin="miter" stroke-miterlimit="10" id="ygc179_7"/><path fill="rgb(211,47,47)" stroke="rgb(211,47,47)" d="M 0,0 L 3.75,-2.25 L 7.5,0 L 3.75,2.25 Z" fill-opacity="1" stroke-opacity="1" stroke-width="1" stroke-linecap="butt" stroke-linejoin="miter" stroke-miterlimit="10" id="ygc179_8"/><path fill="rgb(211,47,47)" stroke="rgb(211,47,47)" d="M 0,0 L 3.75,-2.25 L 7.5,0 L 3.75,2.25 Z" fill-opacity="1" stroke-opacity="1" stroke-width="1" stroke-linecap="butt" stroke-linejoin="miter" stroke-miterlimit="10" id="ygc179_9"/><path fill="rgb(211,47,47)" stroke="rgb(211,47,47)" d="M 0,0 L 3.75,-2.25 L 7.5,0 L 3.75,2.25 Z" fill-opacity="1" stroke-opacity="1" stroke-width="1" stroke-linecap="butt" stroke-linejoin="miter" stroke-miterlimit="10" id="ygc179_10"/><path fill="rgb(0,0,0)" stroke="rgb(0,0,0)" d="M 6,-2.25 L 0,0 L 6,2.25 Z" fill-opacity="1" stroke-opacity="1" stroke-width="1" stroke-linecap="butt" stroke-linejoin="miter" stroke-miterlimit="10" id="ygc179_11"/><path fill="rgb(211,47,47)" stroke="rgb(211,47,47)" d="M 0,0 L 3.75,-2.25 L 7.5,0 L 3.75,2.25 Z" fill-opacity="1" stroke-opacity="1" stroke-width="1" stroke-linecap="butt" stroke-linejoin="miter" stroke-miterlimit="10" id="ygc179_12"/><path fill="rgb(211,47,47)" stroke="rgb(211,47,47)" d="M 0,0 L 3.75,-2.25 L 7.5,0 L 3.75,2.25 Z" fill-opacity="1" stroke-opacity="1" stroke-width="1" stroke-linecap="butt" stroke-linejoin="miter" stroke-miterlimit="10" id="ygc179_13"/></defs></svg>