<svg xmlns="http://www.w3.org/2000/svg" style="display: block; width: 985px; height: 750px; overflow: auto;" width="985px" height="750px" viewBox="0 0 985 750" xmlns:xlink="http://www.w3.org/1999/xlink"><rect width="985px" height="750px" fill="white"/><clipPath id="ygc197_18"><rect x="25" y="25" width="934.311" height="699.261"/></clipPath><g clip-path="url(#ygc197_18)"><g style="pointer-events: visiblepainted;" transform="translate(362.8892423378663 395.99999999892134)" image-rendering="auto" shape-rendering="auto"><g style="box-sizing: initial;"><g><path fill="none" stroke="rgb(0,0,0)" d="M 114.50000000000001,-83.5 L 227.0759993757804,-83.5" stroke-opacity="1" stroke-width="1" stroke-linecap="butt" stroke-linejoin="miter" stroke-miterlimit="10"/><use transform="matrix(-1 0 0 -1 233.0759993757804 -83.5)" xlink:href="#ygc197_0"/></g><g><path fill="none" stroke="rgb(0,0,0)" d="M 53.50004382490158,-66.00000000000452 L 53.50042591794533,86.57600187886227" stroke-opacity="1" stroke-width="1" stroke-linecap="butt" stroke-linejoin="miter" stroke-miterlimit="10"/><use transform="matrix(-0.000002504280090188673 -0.9999999999968644 0.9999999999968644 -0.000002504280090188673 53.50044094362587 92.57600187884346)" xlink:href="#ygc197_1"/></g><g><path fill="none" stroke="rgb(0,0,0)" d="M 53.49995617509842,-100.99999999999548 L 53.4996341847831,-229.57599937473273" stroke-opacity="1" stroke-width="1" stroke-linecap="butt" stroke-linejoin="miter" stroke-miterlimit="10"/><use transform="matrix(0.0000025042800902633314 0.9999999999968642 -0.9999999999968642 0.0000025042800902633314 53.49961915910256 -235.57599937471392)" xlink:href="#ygc197_2"/></g><g><path fill="none" stroke="rgb(211,47,47)" d="M -7.5,-83.5 L -119.77817468419245,-83.5" stroke-opacity="1" stroke-width="1" stroke-dasharray="0.01,2" stroke-dashoffset="0" stroke-linecap="square" stroke-linejoin="miter" stroke-miterlimit="10"/><use transform="translate(-126.52817468419245 -83.5)" xlink:href="#ygc197_3"/></g><g><path fill="none" stroke="rgb(0,0,0)" d="M 28.35438615949558,-99.44395076040716 L -176.2399832843207,-229.17005619412203" stroke-opacity="1" stroke-width="1" stroke-linecap="butt" stroke-linejoin="miter" stroke-miterlimit="10"/><use transform="matrix(0.8445396899331314 0.5354929617909561 -0.5354929617909561 0.8445396899331314 -181.30722142391946 -232.38301396486776)" xlink:href="#ygc197_4"/></g><g><path fill="none" stroke="rgb(0,0,0)" d="M 11.094263171463432,-70.92030773507528 L -51,-52.5 L -315.25,-52.5 L -315.25,221.09315338215558 L -270.9240006242196,221.09315338215558" stroke-opacity="1" stroke-width="1" stroke-linecap="butt" stroke-linejoin="miter" stroke-miterlimit="10"/><use transform="matrix(-1 0 0 -1 -264.9240006242196 221.09315338215558)" xlink:href="#ygc197_5"/></g><g><path fill="none" stroke="rgb(211,47,47)" d="M 53.49956926382447,-272.9999999989214 L 53.49956926382447,-322.2781746831138" stroke-opacity="1" stroke-width="1" stroke-dasharray="0.01,2" stroke-dashoffset="0" stroke-linecap="square" stroke-linejoin="miter" stroke-miterlimit="10"/><use transform="matrix(0 1 -1 0 53.49956926382447 -329.0281746831138)" xlink:href="#ygc197_6"/></g><g><path fill="none" stroke="rgb(211,47,47)" d="M 6.651316060990624,101.29253442968918 L -125.1476157099126,69.76300745449981" stroke-opacity="1" stroke-width="1" stroke-dasharray="0.01,2" stroke-dashoffset="0" stroke-linecap="square" stroke-linejoin="miter" stroke-miterlimit="10"/><use transform="matrix(0.9725582055150855 0.23265970189372434 -0.23265970189372434 0.9725582055150855 -131.71238359713942 68.19255446671717)" xlink:href="#ygc197_7"/></g><g><path fill="none" stroke="rgb(211,47,47)" d="M 29.390580305079624,96.42492279986175 L -121.24325357395611,-4.008916728715161" stroke-opacity="1" stroke-width="1" stroke-dasharray="0.01,2" stroke-dashoffset="0" stroke-linecap="square" stroke-linejoin="miter" stroke-miterlimit="10"/><use transform="matrix(0.8320215279812656 0.5547433433361054 -0.5547433433361054 0.8320215279812656 -126.85939888782966 -7.7534342962338725)" xlink:href="#ygc197_8"/></g><g><path fill="none" stroke="rgb(211,47,47)" d="M -7.499509159956148,112.50010948857863 L -119.77817468420587,112.5003064097636" stroke-opacity="1" stroke-width="1" stroke-dasharray="0.01,2" stroke-dashoffset="0" stroke-linecap="square" stroke-linejoin="miter" stroke-miterlimit="10"/><use transform="matrix(0.9999999999984621 -0.0000017538611101738686 0.0000017538611101738686 0.9999999999984621 -126.52817468419548 112.50031824832608)" xlink:href="#ygc197_9"/></g><g><path fill="none" stroke="rgb(0,0,0)" d="M 19.418907989020134,127.01380385472854 L -159.66793549695177,203.27877319324142" stroke-opacity="1" stroke-width="1" stroke-linecap="butt" stroke-linejoin="miter" stroke-miterlimit="10"/><use transform="matrix(0.9200476114497484 -0.391806575577303 0.391806575577303 0.9200476114497484 -165.18822116565028 205.62961264670523)" xlink:href="#ygc197_10"/></g><g><path fill="none" stroke="rgb(0,0,0)" d="M 53.50049083890394,130.00000250305092 L 53.50049083890394,221.09315338215558 L -132.0759993757804,221.09315338215558" stroke-opacity="1" stroke-width="1" stroke-linecap="butt" stroke-linejoin="miter" stroke-miterlimit="10"/><use transform="translate(-138.0759993757804 221.09315338215558)" xlink:href="#ygc197_11"/></g><g><path fill="none" stroke="rgb(211,47,47)" d="M 296.4999715551582,-100.9999999999981 L 296.4996118852915,-322.2781746831253" stroke-opacity="1" stroke-width="1" stroke-dasharray="0.01,2" stroke-dashoffset="0" stroke-linecap="square" stroke-linejoin="miter" stroke-miterlimit="10"/><use transform="matrix(0.0000016254195301446906 0.9999999999986791 -0.9999999999986791 0.0000016254195301446906 296.4996009137097 -329.0281746831164)" xlink:href="#ygc197_12"/></g><g><path fill="none" stroke="rgb(211,47,47)" d="M 357.5,-83.5 L 436.699781398381,-83.5" stroke-opacity="1" stroke-width="1" stroke-dasharray="0.01,2" stroke-dashoffset="0" stroke-linecap="square" stroke-linejoin="miter" stroke-miterlimit="10"/><use transform="matrix(-1 0 0 -1 443.449781398381 -83.5)" xlink:href="#ygc197_13"/></g><g><path fill="none" stroke="rgb(211,47,47)" d="M -242.81149289219456,208.21727642312067 L -297.25,191.25 L -297.25,51.497650309732734 L -283.22182531580756,51.497650309732734" stroke-opacity="1" stroke-width="1" stroke-dasharray="0.01,2" stroke-dashoffset="0" stroke-linecap="square" stroke-linejoin="miter" stroke-miterlimit="10"/><use transform="matrix(-1 0 0 -1 -276.47182531580756 51.497650309732734)" xlink:href="#ygc197_14"/></g><g><path fill="none" stroke="rgb(211,47,47)" d="M -208.5,-267.1249999989214 L -208.5,-322.2781746831138" stroke-opacity="1" stroke-width="1" stroke-dasharray="0.01,2" stroke-dashoffset="0" stroke-linecap="square" stroke-linejoin="miter" stroke-miterlimit="10"/><use transform="matrix(0 1 -1 0 -208.5 -329.0281746831138)" xlink:href="#ygc197_15"/></g><g><path fill="none" stroke="rgb(211,47,47)" d="M -258.56587830047215,214.91022366229765 L -308.5,209.5 L -308.5,-9.505022817328637 L -283.22182531580756,-9.505022817328635" stroke-opacity="1" stroke-width="1" stroke-dasharray="0.01,2" stroke-dashoffset="0" stroke-linecap="square" stroke-linejoin="miter" stroke-miterlimit="10"/><use transform="matrix(-1 -7.027235398096546e-17 7.027235398096546e-17 -1 -276.47182531580756 -9.505022817328635)" xlink:href="#ygc197_16"/></g><g><path fill="none" stroke="rgb(211,47,47)" d="M -201.5,238.59315338215558 L -201.5,279.53947758058683" stroke-opacity="1" stroke-width="1" stroke-dasharray="0.01,2" stroke-dashoffset="0" stroke-linecap="square" stroke-linejoin="miter" stroke-miterlimit="10"/><use transform="matrix(0 -1 1 0 -201.5 286.28947758058683)" xlink:href="#ygc197_17"/></g><ellipse cx="53.5" cy="-83.5" rx="61" ry="17.5" fill="rgb(255,255,255)" fill-opacity="1" stroke="rgb(56,142,60)" stroke-opacity="1" stroke-width="1" stroke-linecap="butt" stroke-linejoin="miter" stroke-miterlimit="10"/><g transform="translate(25 -90.5)"><text font-family="Arial" font-size="12px" font-style="normal" font-weight="normal" text-decoration="none" text-anchor="middle" fill="black" dy="0.9166666666666666em" transform="translate(28.5 0)">dp:obs001</text></g><ellipse cx="53.4996" cy="-255.5" rx="61" ry="17.5" fill="rgb(255,255,255)" fill-opacity="1" stroke="rgb(56,142,60)" stroke-opacity="1" stroke-width="1" stroke-linecap="butt" stroke-linejoin="miter" stroke-miterlimit="10"/><g transform="translate(5.999569263824469 -262.4999999989214)"><text font-family="Arial" font-size="12px" font-style="normal" font-weight="normal" text-decoration="none" text-anchor="middle" fill="black" dy="0.9166666666666666em" transform="translate(47.5 0)">dp:obs001-Result</text></g><ellipse cx="53.5005" cy="112.5" rx="61" ry="17.5" fill="rgb(255,255,255)" fill-opacity="1" stroke="rgb(56,142,60)" stroke-opacity="1" stroke-width="1" stroke-linecap="butt" stroke-linejoin="miter" stroke-miterlimit="10"/><g transform="translate(11.000490838903943 105.50000250305092)"><text font-family="Arial" font-size="12px" font-style="normal" font-weight="normal" text-decoration="none" text-anchor="middle" fill="black" dy="0.9166666666666666em" transform="translate(42.5 0)">dp:AF001-PlotA</text></g><ellipse cx="296.5" cy="-83.5" rx="61" ry="17.5" fill="rgb(255,255,255)" fill-opacity="1" stroke="rgb(56,142,60)" stroke-opacity="1" stroke-width="1" stroke-linecap="butt" stroke-linejoin="miter" stroke-miterlimit="10"/><g transform="translate(259.5 -90.5)"><text font-family="Arial" font-size="12px" font-style="normal" font-weight="normal" text-decoration="none" text-anchor="middle" fill="black" dy="0.9166666666666666em" transform="translate(37 0)">dp:Variable_1</text></g><path fill="rgb(255,255,255)" stroke="rgb(0,0,0)" d="M 0,10 C 0,4.47715250169206 4.47715250169206,0 10,0 L 136,0 C 141.52284749830795,0 146,4.47715250169206 146,10 L 146,25 C 146,30.52284749830794 141.52284749830795,35 136,35 L 10,35 C 4.47715250169206,35 0,30.52284749830794 0,25 Z" fill-opacity="1" stroke-opacity="1" stroke-width="1" stroke-linecap="butt" stroke-linejoin="miter" stroke-miterlimit="10" transform="translate(-274.5 -101)"/><g transform="translate(-248.5 -90.5)"><text font-family="Arial" font-size="12px" font-style="normal" font-weight="normal" text-decoration="none" text-anchor="middle" fill="black" dy="0.9166666666666666em" transform="translate(47 0)">sosa:Observation</text></g><path fill="rgb(255,255,255)" stroke="rgb(0,0,0)" d="M 0,10 C 0,4.47715250169206 4.47715250169206,0 10,0 L 136,0 C 141.52284749830795,0 146,4.47715250169206 146,10 L 146,25 C 146,30.52284749830794 141.52284749830795,35 136,35 L 10,35 C 4.47715250169206,35 0,30.52284749830794 0,25 Z" fill-opacity="1" stroke-opacity="1" stroke-width="1" stroke-linecap="butt" stroke-linejoin="miter" stroke-miterlimit="10" transform="translate(-274.5 33.997650309732734)"/><g transform="translate(-263 44.497650309732734)"><text font-family="Arial" font-size="12px" font-style="normal" font-weight="normal" text-decoration="none" text-anchor="middle" fill="black" dy="0.9166666666666666em" transform="translate(61.5 0)">sosa:FeatureOfInterest</text></g><path fill="rgb(255,255,255)" stroke="rgb(0,0,0)" d="M 0,10 C 0,4.47715250169206 4.47715250169206,0 10,0 L 136,0 C 141.52284749830795,0 146,4.47715250169206 146,10 L 146,25 C 146,30.52284749830794 141.52284749830795,35 136,35 L 10,35 C 4.47715250169206,35 0,30.52284749830794 0,25 Z" fill-opacity="1" stroke-opacity="1" stroke-width="1" stroke-linecap="butt" stroke-linejoin="miter" stroke-miterlimit="10" transform="translate(-19.50043073617553 -365.99999999892134)"/><g transform="translate(21.99956926382447 -355.49999999892134)"><text font-family="Arial" font-size="12px" font-style="normal" font-weight="normal" text-decoration="none" text-anchor="middle" fill="black" dy="0.9166666666666666em" transform="translate(31.5 0)">sosa:Result</text></g><path fill="rgb(255,255,255)" stroke="rgb(0,0,0)" d="M 0,10 C 0,4.47715250169206 4.47715250169206,0 10,0 L 136,0 C 141.52284749830795,0 146,4.47715250169206 146,10 L 146,25 C 146,30.52284749830794 141.52284749830795,35 136,35 L 10,35 C 4.47715250169206,35 0,30.52284749830794 0,25 Z" fill-opacity="1" stroke-opacity="1" stroke-width="1" stroke-linecap="butt" stroke-linejoin="miter" stroke-miterlimit="10" transform="translate(223.49956926382447 -365.99999999892134)"/><g transform="translate(228.49956926382447 -355.49999999892134)"><text font-family="Arial" font-size="12px" font-style="normal" font-weight="normal" text-decoration="none" text-anchor="middle" fill="black" dy="0.9166666666666666em" transform="translate(68 0)">sosa:ObservableProperty</text></g><path fill="rgb(255,255,255)" stroke="rgb(255,140,0)" d="M 0,10 C 0,4.47715250169206 4.47715250169206,0 10,0 L 136,0 C 141.52284749830795,0 146,4.47715250169206 146,10 L 146,25 C 146,30.52284749830794 141.52284749830795,35 136,35 L 10,35 C 4.47715250169206,35 0,30.52284749830794 0,25 Z" fill-opacity="1" stroke-opacity="1" stroke-width="1" stroke-linecap="butt" stroke-linejoin="miter" stroke-miterlimit="10" transform="translate(445.42160671418856 -101)"/><g transform="translate(454.42160671418856 -90.5)"><text font-family="Arial" font-size="12px" font-style="normal" font-weight="normal" text-decoration="none" text-anchor="middle" fill="black" dy="0.9166666666666666em" transform="translate(64 0)">TO:&lt;URI&gt; (cas par cas)</text></g><ellipse cx="-208.5" cy="-249.625" rx="61" ry="17.5" fill="rgb(255,255,255)" fill-opacity="1" stroke="rgb(56,142,60)" stroke-opacity="1" stroke-width="1" stroke-linecap="butt" stroke-linejoin="miter" stroke-miterlimit="10"/><g transform="translate(-224.5 -256.6249999989214)"><text font-family="Arial" font-size="12px" font-style="normal" font-weight="normal" text-decoration="none" text-anchor="middle" fill="black" dy="0.9166666666666666em" transform="translate(16 0)">dp:Y1</text></g><path fill="rgb(255,255,255)" stroke="rgb(255,140,0)" d="M 0,10 C 0,4.47715250169206 4.47715250169206,0 10,0 L 136,0 C 141.52284749830795,0 146,4.47715250169206 146,10 L 146,25 C 146,30.52284749830794 141.52284749830795,35 136,35 L 10,35 C 4.47715250169206,35 0,30.52284749830794 0,25 Z" fill-opacity="1" stroke-opacity="1" stroke-width="1" stroke-linecap="butt" stroke-linejoin="miter" stroke-miterlimit="10" transform="translate(-281.5 -365.99999999892134)"/><g transform="translate(-254.5 -355.49999999892134)"><text font-family="Arial" font-size="12px" font-style="normal" font-weight="normal" text-decoration="none" text-anchor="middle" fill="black" dy="0.9166666666666666em" transform="translate(46 0)">time:TimeInterval</text></g><path fill="rgb(255,255,255)" stroke="rgb(255,140,0)" d="M 0,10 C 0,4.47715250169206 4.47715250169206,0 10,0 L 136,0 C 141.52284749830795,0 146,4.47715250169206 146,10 L 146,25 C 146,30.52284749830794 141.52284749830795,35 136,35 L 10,35 C 4.47715250169206,35 0,30.52284749830794 0,25 Z" fill-opacity="1" stroke-opacity="1" stroke-width="1" stroke-linecap="butt" stroke-linejoin="miter" stroke-miterlimit="10" transform="translate(-274.5 -27.005022817328634)"/><g transform="translate(-231.5 -16.505022817328634)"><text font-family="Arial" font-size="12px" font-style="normal" font-weight="normal" text-decoration="none" text-anchor="middle" fill="black" dy="0.9166666666666666em" transform="translate(30 0)">thing:Place</text></g><path fill="rgb(255,255,255)" stroke="rgb(255,140,0)" d="M 0,10 C 0,4.47715250169206 4.47715250169206,0 10,0 L 136,0 C 141.52284749830795,0 146,4.47715250169206 146,10 L 146,25 C 146,30.52284749830794 141.52284749830795,35 136,35 L 10,35 C 4.47715250169206,35 0,30.52284749830794 0,25 Z" fill-opacity="1" stroke-opacity="1" stroke-width="1" stroke-linecap="butt" stroke-linejoin="miter" stroke-miterlimit="10" transform="translate(-274.5 95.0003234367941)"/><g transform="translate(-242 105.5003234367941)"><text font-family="Arial" font-size="12px" font-style="normal" font-weight="normal" text-decoration="none" text-anchor="middle" fill="black" dy="0.9166666666666666em" transform="translate(40.5 0)">agro:00000301</text></g><ellipse cx="-201.5" cy="221.093" rx="61" ry="17.5" fill="rgb(255,255,255)" fill-opacity="1" stroke="rgb(56,142,60)" stroke-opacity="1" stroke-width="1" stroke-linecap="butt" stroke-linejoin="miter" stroke-miterlimit="10"/><g transform="translate(-228 214.09315338215558)"><text font-family="Arial" font-size="12px" font-style="normal" font-weight="normal" text-decoration="none" text-anchor="middle" fill="black" dy="0.9166666666666666em" transform="translate(26.5 0)">dp:AF001</text></g><path fill="rgb(255,255,255)" stroke="rgb(255,140,0)" d="M 0,10 C 0,4.47715250169206 4.47715250169206,0 10,0 L 136,0 C 141.52284749830795,0 146,4.47715250169206 146,10 L 146,25 C 146,30.52284749830794 141.52284749830795,35 136,35 L 10,35 C 4.47715250169206,35 0,30.52284749830794 0,25 Z" fill-opacity="1" stroke-opacity="1" stroke-width="1" stroke-linecap="butt" stroke-linejoin="miter" stroke-miterlimit="10" transform="translate(-274.5 288.2613028963944)"/><g transform="translate(-242.5 298.7613028963944)"><text font-family="Arial" font-size="12px" font-style="normal" font-weight="normal" text-decoration="none" text-anchor="middle" fill="black" dy="0.9166666666666666em" transform="translate(41 0)">envo:00000114</text></g><g transform="translate(107.28799968789022 -78.50000000000001)"><text font-family="Arial" font-size="12px" font-style="normal" font-weight="normal" text-decoration="none" text-anchor="middle" fill="black" dy="0.9166666666666666em" transform="translate(63.5 0)">sosa:ObservedProperty</text></g><g transform="matrix(0.0000025042800897791902 0.9999999999968643 -0.9999999999968643 0.0000025042800897791902 48.50006609792912 -57.106009547684195)"><text font-family="Arial" font-size="12px" font-style="normal" font-weight="normal" text-decoration="none" text-anchor="middle" fill="black" dy="0.9166666666666666em" transform="translate(71.5 0)">sosa:hasFeatureOfInterest</text></g><g transform="matrix(0.0000025042800903457443 0.9999999999968643 -0.9999999999968643 0.0000025042800903457443 72.49969125225743 -206.78804726855572)"><text font-family="Arial" font-size="12px" font-style="normal" font-weight="normal" text-decoration="none" text-anchor="middle" fill="black" dy="0.9166666666666666em" transform="translate(41.5 0)">sosa:hasResult</text></g><g transform="matrix(0.8445396899331314 0.535492961790956 -0.535492961790956 0.8445396899331314 -116.97443275417166 -214.08931417882428)"><text font-family="Arial" font-size="12px" font-style="normal" font-weight="normal" text-decoration="none" text-anchor="middle" fill="black" dy="0.9166666666666666em" transform="translate(63 0)">sosa:phenomenonTime</text></g><g transform="matrix(0.9200476114497487 -0.3918065755773024 0.3918065755773024 0.9200476114497487 -133.69174298836927 171.56558501665515)"><text font-family="Arial" font-size="12px" font-style="normal" font-weight="normal" text-decoration="none" text-anchor="middle" fill="black" dy="0.9166666666666666em" transform="translate(61 0)">thing:containedInPlace</text></g><g transform="matrix(1.8369701987210297e-16 -1 1 1.8369701987210297e-16 -332.8892423378663 167.64045694811819)"><text font-family="Arial" font-size="12px" font-style="normal" font-weight="normal" text-decoration="none" text-anchor="middle" fill="black" dy="0.9166666666666666em" transform="translate(93.5 0)">sosa:hasUltimateFeatureOfInterest</text></g><g transform="matrix(1 1.2246467991473532e-16 -1.2246467991473532e-16 1 -73.37450916109606 202.8198656623794)"><text font-family="Arial" font-size="12px" font-style="normal" font-weight="normal" text-decoration="none" text-anchor="middle" fill="black" dy="0.9166666666666666em" transform="translate(45.5 0)">sosa:isSampleOf</text></g></g></g></g><defs><path fill="rgb(0,0,0)" stroke="rgb(0,0,0)" d="M 6,-2.25 L 0,0 L 6,2.25 Z" fill-opacity="1" stroke-opacity="1" stroke-width="1" stroke-linecap="butt" stroke-linejoin="miter" stroke-miterlimit="10" id="ygc197_0"/><path fill="rgb(0,0,0)" stroke="rgb(0,0,0)" d="M 6,-2.25 L 0,0 L 6,2.25 Z" fill-opacity="1" stroke-opacity="1" stroke-width="1" stroke-linecap="butt" stroke-linejoin="miter" stroke-miterlimit="10" id="ygc197_1"/><path fill="rgb(0,0,0)" stroke="rgb(0,0,0)" d="M 6,-2.25 L 0,0 L 6,2.25 Z" fill-opacity="1" stroke-opacity="1" stroke-width="1" stroke-linecap="butt" stroke-linejoin="miter" stroke-miterlimit="10" id="ygc197_2"/><path fill="rgb(211,47,47)" stroke="rgb(211,47,47)" d="M 0,0 L 3.75,-2.25 L 7.5,0 L 3.75,2.25 Z" fill-opacity="1" stroke-opacity="1" stroke-width="1" stroke-linecap="butt" stroke-linejoin="miter" stroke-miterlimit="10" id="ygc197_3"/><path fill="rgb(0,0,0)" stroke="rgb(0,0,0)" d="M 6,-2.25 L 0,0 L 6,2.25 Z" fill-opacity="1" stroke-opacity="1" stroke-width="1" stroke-linecap="butt" stroke-linejoin="miter" stroke-miterlimit="10" id="ygc197_4"/><path fill="rgb(0,0,0)" stroke="rgb(0,0,0)" d="M 6,-2.25 L 0,0 L 6,2.25 Z" fill-opacity="1" stroke-opacity="1" stroke-width="1" stroke-linecap="butt" stroke-linejoin="miter" stroke-miterlimit="10" id="ygc197_5"/><path fill="rgb(211,47,47)" stroke="rgb(211,47,47)" d="M 0,0 L 3.75,-2.25 L 7.5,0 L 3.75,2.25 Z" fill-opacity="1" stroke-opacity="1" stroke-width="1" stroke-linecap="butt" stroke-linejoin="miter" stroke-miterlimit="10" id="ygc197_6"/><path fill="rgb(211,47,47)" stroke="rgb(211,47,47)" d="M 0,0 L 3.75,-2.25 L 7.5,0 L 3.75,2.25 Z" fill-opacity="1" stroke-opacity="1" stroke-width="1" stroke-linecap="butt" stroke-linejoin="miter" stroke-miterlimit="10" id="ygc197_7"/><path fill="rgb(211,47,47)" stroke="rgb(211,47,47)" d="M 0,0 L 3.75,-2.25 L 7.5,0 L 3.75,2.25 Z" fill-opacity="1" stroke-opacity="1" stroke-width="1" stroke-linecap="butt" stroke-linejoin="miter" stroke-miterlimit="10" id="ygc197_8"/><path fill="rgb(211,47,47)" stroke="rgb(211,47,47)" d="M 0,0 L 3.75,-2.25 L 7.5,0 L 3.75,2.25 Z" fill-opacity="1" stroke-opacity="1" stroke-width="1" stroke-linecap="butt" stroke-linejoin="miter" stroke-miterlimit="10" id="ygc197_9"/><path fill="rgb(0,0,0)" stroke="rgb(0,0,0)" d="M 6,-2.25 L 0,0 L 6,2.25 Z" fill-opacity="1" stroke-opacity="1" stroke-width="1" stroke-linecap="butt" stroke-linejoin="miter" stroke-miterlimit="10" id="ygc197_10"/><path fill="rgb(0,0,0)" stroke="rgb(0,0,0)" d="M 6,-2.25 L 0,0 L 6,2.25 Z" fill-opacity="1" stroke-opacity="1" stroke-width="1" stroke-linecap="butt" stroke-linejoin="miter" stroke-miterlimit="10" id="ygc197_11"/><path fill="rgb(211,47,47)" stroke="rgb(211,47,47)" d="M 0,0 L 3.75,-2.25 L 7.5,0 L 3.75,2.25 Z" fill-opacity="1" stroke-opacity="1" stroke-width="1" stroke-linecap="butt" stroke-linejoin="miter" stroke-miterlimit="10" id="ygc197_12"/><path fill="rgb(211,47,47)" stroke="rgb(211,47,47)" d="M 0,0 L 3.75,-2.25 L 7.5,0 L 3.75,2.25 Z" fill-opacity="1" stroke-opacity="1" stroke-width="1" stroke-linecap="butt" stroke-linejoin="miter" stroke-miterlimit="10" id="ygc197_13"/><path fill="rgb(211,47,47)" stroke="rgb(211,47,47)" d="M 0,0 L 3.75,-2.25 L 7.5,0 L 3.75,2.25 Z" fill-opacity="1" stroke-opacity="1" stroke-width="1" stroke-linecap="butt" stroke-linejoin="miter" stroke-miterlimit="10" id="ygc197_14"/><path fill="rgb(211,47,47)" stroke="rgb(211,47,47)" d="M 0,0 L 3.75,-2.25 L 7.5,0 L 3.75,2.25 Z" fill-opacity="1" stroke-opacity="1" stroke-width="1" stroke-linecap="butt" stroke-linejoin="miter" stroke-miterlimit="10" id="ygc197_15"/><path fill="rgb(211,47,47)" stroke="rgb(211,47,47)" d="M 0,0 L 3.75,-2.25 L 7.5,0 L 3.75,2.25 Z" fill-opacity="1" stroke-opacity="1" stroke-width="1" stroke-linecap="butt" stroke-linejoin="miter" stroke-miterlimit="10" id="ygc197_16"/><path fill="rgb(211,47,47)" stroke="rgb(211,47,47)" d="M 0,0 L 3.75,-2.25 L 7.5,0 L 3.75,2.25 Z" fill-opacity="1" stroke-opacity="1" stroke-width="1" stroke-linecap="butt" stroke-linejoin="miter" stroke-miterlimit="10" id="ygc197_17"/></defs></svg>