<svg xmlns="http://www.w3.org/2000/svg" style="display: block; width: 922px; height: 624px; overflow: auto;" width="922px" height="624px" viewBox="0 0 922 624" xmlns:xlink="http://www.w3.org/1999/xlink"><rect width="922px" height="624px" fill="white"/><clipPath id="ygc132_33"><rect x="25" y="25" width="871.977" height="573.625"/></clipPath><g clip-path="url(#ygc132_33)"><g style="pointer-events: visiblepainted;" transform="translate(289.4563060430103 305.12450200886997)" image-rendering="auto" shape-rendering="auto"><g style="box-sizing: initial;"><g><path fill="none" stroke="rgb(0,0,0)" d="M -191.72029535605154,-95.53827994546998 L -193.6231984159707,-232.20131788511753" stroke-opacity="1" stroke-width="1" stroke-linecap="butt" stroke-linejoin="miter" stroke-miterlimit="10"/><use transform="matrix(0.013922701037350816 0.9999030745006361 -0.9999030745006361 0.013922701037350816 -193.70673462219483 -238.20073633212135)" xlink:href="#ygc132_0"/></g><g><path fill="none" stroke="rgb(0,0,0)" d="M -189.2684618842827,80.54794211793006 L -191.17136494420185,-56.11509582171754" stroke-opacity="1" stroke-width="1" stroke-linecap="butt" stroke-linejoin="miter" stroke-miterlimit="10"/><use transform="matrix(0.013922701037350809 0.9999030745006361 -0.9999030745006361 0.013922701037350809 -191.25490115042598 -62.11451426872135)" xlink:href="#ygc132_1"/></g><g><path fill="none" stroke="rgb(0,0,0)" d="M -186.81662841251384,256.6341641813301 L -188.719531472433,119.97112624168251" stroke-opacity="1" stroke-width="1" stroke-linecap="butt" stroke-linejoin="miter" stroke-miterlimit="10"/><use transform="matrix(0.013922701037350809 0.9999030745006361 -0.9999030745006361 0.013922701037350809 -188.80306767865713 113.9717077946787)" xlink:href="#ygc132_2"/></g><g><path fill="none" stroke="rgb(0,0,0)" d="M 98.74861774741807,-256.12450200886997 L -120.03230541879068,-256.12450200886997" stroke-opacity="1" stroke-width="1" stroke-linecap="butt" stroke-linejoin="miter" stroke-miterlimit="10"/><use transform="translate(-126.03230541879068 -256.12450200886997)" xlink:href="#ygc132_3"/></g><g><path fill="none" stroke="rgb(0,0,0)" d="M 98.48591523842015,-199.14946961212587 L -118.5559196661549,-84.49342788433069" stroke-opacity="1" stroke-width="1" stroke-linecap="butt" stroke-linejoin="miter" stroke-miterlimit="10"/><use transform="matrix(0.8842061197943665 -0.4670969254000614 0.4670969254000614 0.8842061197943665 -123.8611563849211 -81.69084633193032)" xlink:href="#ygc132_4"/></g><g><path fill="none" stroke="rgb(0,0,0)" d="M 100.14853327813921,52.865524370243804 L -115.28003560123757,94.26873095926628" stroke-opacity="1" stroke-width="1" stroke-linecap="butt" stroke-linejoin="miter" stroke-miterlimit="10"/><use transform="matrix(0.9820278828625316 -0.188735892931191 0.188735892931191 0.9820278828625316 -121.17220289841276 95.40114631685343)" xlink:href="#ygc132_5"/></g><g><path fill="none" stroke="rgb(0,0,0)" d="M 101.85093646938543,-13.316609657348685 L -115.9673564207378,91.90779871366469" stroke-opacity="1" stroke-width="1" stroke-linecap="butt" stroke-linejoin="miter" stroke-miterlimit="10"/><use transform="matrix(0.9004370983694563 -0.4349862433226987 0.4349862433226987 0.9004370983694563 -121.36997901095454 94.51771617360087)" xlink:href="#ygc132_6"/></g><g><path fill="none" stroke="rgb(0,0,0)" d="M 99.39723589585844,-73.03909963470467 L -116.82984266621621,90.22802523586262" stroke-opacity="1" stroke-width="1" stroke-linecap="butt" stroke-linejoin="miter" stroke-miterlimit="10"/><use transform="matrix(0.798052698848081 -0.6025876615574651 0.6025876615574651 0.798052698848081 -121.6181588593047 93.84355120520742)" xlink:href="#ygc132_7"/></g><g><path fill="none" stroke="rgb(142,36,170)" d="M 247.86048125647568,-255.80352199085226 L 459.8846112507147,-186.8352014631102" stroke-opacity="1" stroke-width="1" stroke-linecap="butt" stroke-linejoin="miter" stroke-miterlimit="10"/><use transform="matrix(-0.9509543020311123 -0.30933140068302145 0.30933140068302145 -0.9509543020311123 465.59033706290137 -184.97921305901207)" xlink:href="#ygc132_8"/></g><g><path fill="none" stroke="rgb(142,36,170)" d="M 247.59777874747778,-199.60077063902608 L 459.492551281726,-184.5747193804321" stroke-opacity="1" stroke-width="1" stroke-linecap="butt" stroke-linejoin="miter" stroke-miterlimit="10"/><use transform="matrix(-0.9974951306086339 -0.07073517096935782 0.07073517096935782 -0.9974951306086339 465.4775220653778 -184.15030835461596)" xlink:href="#ygc132_9"/></g><g><path fill="none" stroke="rgb(178,235,242)" d="M 247.39723589585844,-73.32766671070146 L 463.87470024813985,26.81608288579866" stroke-opacity="1" stroke-width="1" stroke-linecap="butt" stroke-linejoin="miter" stroke-miterlimit="10"/><use transform="matrix(-0.9075904220238109 -0.4198566729857234 0.4198566729857234 -0.9075904220238109 469.3202427802827 29.335222923713)" xlink:href="#ygc132_10"/></g><g><path fill="none" stroke="rgb(142,36,170)" d="M 247.39723589585844,-74.27251482040461 L 460.34578813525786,-179.6842712660671" stroke-opacity="1" stroke-width="1" stroke-linecap="butt" stroke-linejoin="miter" stroke-miterlimit="10"/><use transform="matrix(-0.8962087120061991 0.4436326684591541 -0.4436326684591541 -0.8962087120061991 465.72304040729506 -182.34606727682203)" xlink:href="#ygc132_11"/></g><g><path fill="none" stroke="rgb(178,235,242)" d="M 247.59777874747778,-198.66395094702747 L 465.6237184623475,23.787439538277912" stroke-opacity="1" stroke-width="1" stroke-linecap="butt" stroke-linejoin="miter" stroke-miterlimit="10"/><use transform="matrix(-0.6999671926072434 -0.7141749990538272 0.7141749990538272 -0.6999671926072434 469.82352161799093 28.072489532600873)" xlink:href="#ygc132_12"/></g><g><path fill="none" stroke="rgb(178,235,242)" d="M 249.85093646938543,-13.596475989541899 L 463.2589340950474,28.96457401778661" stroke-opacity="1" stroke-width="1" stroke-linecap="butt" stroke-linejoin="miter" stroke-miterlimit="10"/><use transform="matrix(-0.9806870634606704 -0.19558344398462546 0.19558344398462546 -0.9806870634606704 469.1430564758114 30.138074681694363)" xlink:href="#ygc132_13"/></g><g><path fill="none" stroke="rgb(142,36,170)" d="M 249.85093646938543,-14.55613935007915 L 461.23117931272805,-177.9946376332887" stroke-opacity="1" stroke-width="1" stroke-linecap="butt" stroke-linejoin="miter" stroke-miterlimit="10"/><use transform="matrix(-0.7911053036654356 0.6116799804737922 -0.6116799804737922 -0.7911053036654356 465.9778111347207 -181.66471751613147)" xlink:href="#ygc132_14"/></g><g><path fill="none" stroke="rgb(178,235,242)" d="M 248.1485332781392,52.580150929174096 L 463.1356272708641,31.717827914529156" stroke-opacity="1" stroke-width="1" stroke-linecap="butt" stroke-linejoin="miter" stroke-miterlimit="10"/><use transform="matrix(-0.9953246246010075 0.0965861877437122 -0.0965861877437122 -0.9953246246010075 469.1075750184702 31.13831078806688)" xlink:href="#ygc132_15"/></g><g><path fill="none" stroke="rgb(0,0,0)" d="M 98.48591523842015,114.09292461816464 L -115.15607783879786,96.8070074975032" stroke-opacity="1" stroke-width="1" stroke-linecap="butt" stroke-linejoin="miter" stroke-miterlimit="10"/><use transform="matrix(0.9967427158699416 0.08064712245463555 -0.08064712245463555 0.9967427158699416 -121.13653413401751 96.3231247627754)" xlink:href="#ygc132_16"/></g><g><path fill="none" stroke="rgb(0,0,0)" d="M 99.86048125647568,170.1740712760592 L -115.55376019770596,99.01560286137399" stroke-opacity="1" stroke-width="1" stroke-linecap="butt" stroke-linejoin="miter" stroke-miterlimit="10"/><use transform="matrix(0.9495344621377733 0.3136627252523476 -0.3136627252523476 0.9495344621377733 -121.25096697053259 97.13362650985991)" xlink:href="#ygc132_17"/></g><g><path fill="none" stroke="rgb(178,235,242)" d="M 246.48591523842015,113.81041960369267 L 463.61259712933514,34.07426706927294" stroke-opacity="1" stroke-width="1" stroke-linecap="butt" stroke-linejoin="miter" stroke-miterlimit="10"/><use transform="matrix(-0.9387042752268965 0.34472348871341335 -0.34472348871341335 -0.9387042752268965 469.2448227806965 32.005926136992464)" xlink:href="#ygc132_18"/></g><g><path fill="none" stroke="rgb(142,36,170)" d="M 246.48591523842015,112.85613995554914 L 462.84365835787906,-175.8535018735678" stroke-opacity="1" stroke-width="1" stroke-linecap="butt" stroke-linejoin="miter" stroke-miterlimit="10"/><use transform="matrix(-0.5996904264496122 0.8002320866003076 -0.8002320866003076 -0.5996904264496122 466.4418009165767 -180.65489439316966)" xlink:href="#ygc132_19"/></g><g><path fill="none" stroke="rgb(178,235,242)" d="M 247.86048125647568,169.88914154325724 L 464.35781895269497,35.85276019796671" stroke-opacity="1" stroke-width="1" stroke-linecap="butt" stroke-linejoin="miter" stroke-miterlimit="10"/><use transform="matrix(-0.8502401527032991 0.5263949873726673 -0.5263949873726673 -0.8502401527032991 469.4592598689148 32.694390273730704)" xlink:href="#ygc132_20"/></g><g><path fill="none" stroke="rgb(142,36,170)" d="M 247.86048125647568,168.9248957079155 L 463.4234851133449,-175.19761705178814" stroke-opacity="1" stroke-width="1" stroke-linecap="butt" stroke-linejoin="miter" stroke-miterlimit="10"/><use transform="matrix(-0.5308600949561887 0.8474594737113429 -0.8474594737113429 -0.5308600949561887 466.608645683082 -180.2823738940562)" xlink:href="#ygc132_21"/></g><g><path fill="none" stroke="rgb(0,0,0)" d="M 99.86048125647568,221.9729925316869 L -112.88404234652928,270.05451947841584" stroke-opacity="1" stroke-width="1" stroke-linecap="butt" stroke-linejoin="miter" stroke-miterlimit="10"/><use transform="matrix(0.9753991776247827 -0.22044601218642507 0.22044601218642507 0.9753991776247827 -118.73643741227798 271.3771955515344)" xlink:href="#ygc132_22"/></g><g><path fill="none" stroke="rgb(0,0,0)" d="M 99.86048125647568,272.997028013835 L -112.6768432188563,272.3568341072103" stroke-opacity="1" stroke-width="1" stroke-linecap="butt" stroke-linejoin="miter" stroke-miterlimit="10"/><use transform="matrix(0.9999954635126608 0.003012134475549209 -0.003012134475549209 0.9999954635126608 -118.67681599993227 272.338761300357)" xlink:href="#ygc132_23"/></g><g><path fill="none" stroke="rgb(178,235,242)" d="M 247.86048125647568,220.91502970053392 L 465.08979256306554,37.0839251926326" stroke-opacity="1" stroke-width="1" stroke-linecap="butt" stroke-linejoin="miter" stroke-miterlimit="10"/><use transform="matrix(-0.76334870491944 0.6459866521049903 -0.6459866521049903 -0.76334870491944 469.6698847925822 33.20800528000266)" xlink:href="#ygc132_24"/></g><g><path fill="none" stroke="rgb(142,36,170)" d="M 247.86048125647568,219.9471247003753 L 463.85124225485316,-174.719504979807" stroke-opacity="1" stroke-width="1" stroke-linecap="butt" stroke-linejoin="miter" stroke-miterlimit="10"/><use transform="matrix(-0.48008171060060795 0.8772237748412854 -0.8772237748412854 -0.48008171060060795 466.7317325184568 -179.9828476288547)" xlink:href="#ygc132_25"/></g><g><path fill="none" stroke="rgb(178,235,242)" d="M 247.86048125647568,271.94091785781063 L 465.77802530026594,38.02951985118535" stroke-opacity="1" stroke-width="1" stroke-linecap="butt" stroke-linejoin="miter" stroke-miterlimit="10"/><use transform="matrix(-0.6816496680958142 0.7316787068002365 -0.7316787068002365 -0.6816496680958142 469.86792330884083 33.639447610383925)" xlink:href="#ygc132_26"/></g><g><path fill="none" stroke="rgb(142,36,170)" d="M 247.86048125647568,270.96935369283506 L 464.2139067095207,-174.30492107612088" stroke-opacity="1" stroke-width="1" stroke-linecap="butt" stroke-linejoin="miter" stroke-miterlimit="10"/><use transform="matrix(-0.4370303777665596 0.8994467460106897 -0.8994467460106897 -0.4370303777665596 466.8360889761201 -179.70160155218502)" xlink:href="#ygc132_27"/></g><g><path fill="none" stroke="rgb(0,0,0)" d="M 101.4712490071326,-133.54385639020873 L -117.80241005241582,-82.18988457101409" stroke-opacity="1" stroke-width="1" stroke-linecap="butt" stroke-linejoin="miter" stroke-miterlimit="10"/><use transform="matrix(0.9736540730118305 -0.22803014297998642 0.22803014297998642 0.9736540730118305 -123.6443344904868 -80.82170371313418)" xlink:href="#ygc132_28"/></g><g><path fill="none" stroke="rgb(142,36,170)" d="M 250.58311251619023,-134.00055716430975 L 459.6833396077924,-181.80630948079116" stroke-opacity="1" stroke-width="1" stroke-linecap="butt" stroke-linejoin="miter" stroke-miterlimit="10"/><use transform="matrix(-0.9748469454318787 0.22287537545035274 -0.22287537545035274 -0.9748469454318787 465.5324212803837 -183.14356173349327)" xlink:href="#ygc132_29"/></g><g><path fill="none" stroke="rgb(239,154,154)" d="M 247.86048125647568,221.6080046652338 L 462.5447289695673,190.71189491215375" stroke-opacity="1" stroke-width="1" stroke-linecap="butt" stroke-linejoin="miter" stroke-miterlimit="10"/><use transform="matrix(-0.989802485066591 0.14244662353317095 -0.14244662353317095 -0.989802485066591 468.4835438799669 189.85721517095473)" xlink:href="#ygc132_30"/></g><g><path fill="none" stroke="rgb(239,154,154)" d="M 247.86048125647568,170.58275142565387 L 462.4882974391112,188.58351943994631" stroke-opacity="1" stroke-width="1" stroke-linecap="butt" stroke-linejoin="miter" stroke-miterlimit="10"/><use transform="matrix(-0.9965013841969899 -0.08357626034636317 0.08357626034636317 -0.9965013841969899 468.4673057442931 189.0849770020245)" xlink:href="#ygc132_31"/></g><g><path fill="none" stroke="rgb(142,36,170)" d="M 248.1485332781392,51.62307374217861 L 462.1350338408639,-176.71133897637912" stroke-opacity="1" stroke-width="1" stroke-linecap="butt" stroke-linejoin="miter" stroke-miterlimit="10"/><use transform="matrix(-0.6838101397100561 0.729659984396646 -0.729659984396646 -0.6838101397100561 466.2378946791243 -181.089298882759)" xlink:href="#ygc132_32"/></g><path fill="rgb(204,255,204)" stroke="rgb(0,0,0)" d="M 0,10 C 0,4.47715250169206 4.47715250169206,0 10,0 L 121,0 C 126.52284749830794,0 131,4.47715250169206 131,10 L 131,21 C 131,26.52284749830794 126.52284749830794,31 121,31 L 10,31 C 4.47715250169206,31 0,26.52284749830794 0,21 Z" fill-opacity="1" stroke-opacity="1" stroke-width="1" stroke-linecap="butt" stroke-linejoin="miter" stroke-miterlimit="10" transform="translate(-257.0044725712414 -95.53827994546998)"/><path fill="rgb(204,255,204)" stroke="rgb(0,0,0)" d="M 0,10 C 0,4.47715250169206 4.47715250169206,0 10,0 L 121,0 C 126.52284749830794,0 131,4.47715250169206 131,10 L 131,21 C 131,26.52284749830794 126.52284749830794,31 121,31 L 10,31 C 4.47715250169206,31 0,26.52284749830794 0,21 Z" fill-opacity="1" stroke-opacity="1" stroke-width="1" stroke-linecap="butt" stroke-linejoin="miter" stroke-miterlimit="10" transform="translate(-254.55263909947257 80.54794211793006)"/><path fill="rgb(204,255,204)" stroke="rgb(0,0,0)" d="M 0,10 C 0,4.47715250169206 4.47715250169206,0 10,0 L 121,0 C 126.52284749830794,0 131,4.47715250169206 131,10 L 131,21 C 131,26.52284749830794 126.52284749830794,31 121,31 L 10,31 C 4.47715250169206,31 0,26.52284749830794 0,21 Z" fill-opacity="1" stroke-opacity="1" stroke-width="1" stroke-linecap="butt" stroke-linejoin="miter" stroke-miterlimit="10" transform="translate(-252.10080562770372 256.6341641813301)"/><path fill="rgb(204,255,204)" stroke="rgb(0,0,0)" d="M 0,10 C 0,4.47715250169206 4.47715250169206,0 10,0 L 121,0 C 126.52284749830794,0 131,4.47715250169206 131,10 L 131,21 C 131,26.52284749830794 126.52284749830794,31 121,31 L 10,31 C 4.47715250169206,31 0,26.52284749830794 0,21 Z" fill-opacity="1" stroke-opacity="1" stroke-width="1" stroke-linecap="butt" stroke-linejoin="miter" stroke-miterlimit="10" transform="translate(-259.4563060430103 -271.62450200886997)"/><path fill="rgb(204,255,204)" stroke="rgb(142,36,170)" d="M 0,10 C 0,4.47715250169206 4.47715250169206,0 10,0 L 121,0 C 126.52284749830794,0 131,4.47715250169206 131,10 L 131,21 C 131,26.52284749830794 126.52284749830794,31 121,31 L 10,31 C 4.47715250169206,31 0,26.52284749830794 0,21 Z" fill-opacity="1" stroke-opacity="1" stroke-width="1" stroke-linecap="butt" stroke-linejoin="miter" stroke-miterlimit="10" transform="translate(467.8954508846291 -199.40899981563342)"/><path fill="rgb(204,255,204)" stroke="rgb(178,235,242)" d="M 0,10 C 0,4.47715250169206 4.47715250169206,0 10,0 L 121,0 C 126.52284749830794,0 131,4.47715250169206 131,10 L 131,21 C 131,26.52284749830794 126.52284749830794,31 121,31 L 10,31 C 4.47715250169206,31 0,26.52284749830794 0,21 Z" fill-opacity="1" stroke-opacity="1" stroke-width="1" stroke-linecap="butt" stroke-linejoin="miter" stroke-miterlimit="10" transform="translate(471.52024252980414 15.308605169447958)"/><path fill="rgb(255,245,157)" stroke="rgb(0,0,0)" d="M 0,10 C 0,4.47715250169206 4.47715250169206,0 10,0 L 139.11186350905763,0 C 144.63471100736558,0 149.11186350905763,4.47715250169206 149.11186350905763,10 L 149.11186350905763,21 C 149.11186350905763,26.52284749830794 144.63471100736558,31 139.11186350905763,31 L 10,31 C 4.47715250169206,31 0,26.52284749830794 0,21 Z" fill-opacity="1" stroke-opacity="1" stroke-width="1" stroke-linecap="butt" stroke-linejoin="miter" stroke-miterlimit="10" transform="translate(98.74861774741805 -271.62450200886997)"/><path fill="rgb(255,245,157)" stroke="rgb(0,0,0)" d="M 0,10 C 0,4.47715250169206 4.47715250169206,0 10,0 L 138,0 C 143.52284749830795,0 148,4.47715250169206 148,10 L 148,21 C 148,26.52284749830794 143.52284749830795,31 138,31 L 10,31 C 4.47715250169206,31 0,26.52284749830794 0,21 Z" fill-opacity="1" stroke-opacity="1" stroke-width="1" stroke-linecap="butt" stroke-linejoin="miter" stroke-miterlimit="10" transform="translate(101.85093646938543 -29.293251976420443)"/><path fill="rgb(255,245,157)" stroke="rgb(0,0,0)" d="M 0,10 C 0,4.47715250169206 4.47715250169206,0 10,0 L 138,0 C 143.52284749830795,0 148,4.47715250169206 148,10 L 148,21 C 148,26.52284749830794 143.52284749830795,31 138,31 L 10,31 C 4.47715250169206,31 0,26.52284749830794 0,21 Z" fill-opacity="1" stroke-opacity="1" stroke-width="1" stroke-linecap="butt" stroke-linejoin="miter" stroke-miterlimit="10" transform="translate(100.14853327813921 37.175896949670005)"/><path fill="rgb(255,245,157)" stroke="rgb(0,0,0)" d="M 0,10 C 0,4.47715250169206 4.47715250169206,0 10,0 L 138,0 C 143.52284749830795,0 148,4.47715250169206 148,10 L 148,21 C 148,26.52284749830794 143.52284749830795,31 138,31 L 10,31 C 4.47715250169206,31 0,26.52284749830794 0,21 Z" fill-opacity="1" stroke-opacity="1" stroke-width="1" stroke-linecap="butt" stroke-linejoin="miter" stroke-miterlimit="10" transform="translate(99.39723589585844 -89.28410452004815)"/><path fill="rgb(255,245,157)" stroke="rgb(0,0,0)" d="M 0,10 C 0,4.47715250169206 4.47715250169206,0 10,0 L 139.11186350905763,0 C 144.63471100736558,0 149.11186350905763,4.47715250169206 149.11186350905763,10 L 149.11186350905763,21 C 149.11186350905763,26.52284749830794 144.63471100736558,31 139.11186350905763,31 L 10,31 C 4.47715250169206,31 0,26.52284749830794 0,21 Z" fill-opacity="1" stroke-opacity="1" stroke-width="1" stroke-linecap="butt" stroke-linejoin="miter" stroke-miterlimit="10" transform="translate(98.48591523842015 -215.17074489022463)"/><path fill="rgb(255,245,157)" stroke="rgb(0,0,0)" d="M 0,10 C 0,4.47715250169206 4.47715250169206,0 10,0 L 138,0 C 143.52284749830795,0 148,4.47715250169206 148,10 L 148,21 C 148,26.52284749830794 143.52284749830795,31 138,31 L 10,31 C 4.47715250169206,31 0,26.52284749830794 0,21 Z" fill-opacity="1" stroke-opacity="1" stroke-width="1" stroke-linecap="butt" stroke-linejoin="miter" stroke-miterlimit="10" transform="translate(98.48591523842015 98.67275648071217)"/><path fill="rgb(255,245,157)" stroke="rgb(0,0,0)" d="M 0,10 C 0,4.47715250169206 4.47715250169206,0 10,0 L 138,0 C 143.52284749830795,0 148,4.47715250169206 148,10 L 148,21 C 148,26.52284749830794 143.52284749830795,31 138,31 L 10,31 C 4.47715250169206,31 0,26.52284749830794 0,21 Z" fill-opacity="1" stroke-opacity="1" stroke-width="1" stroke-linecap="butt" stroke-linejoin="miter" stroke-miterlimit="10" transform="translate(99.86048125647568 154.99999999999994)"/><path fill="rgb(255,245,157)" stroke="rgb(0,0,0)" d="M 0,10 C 0,4.47715250169206 4.47715250169206,0 10,0 L 138,0 C 143.52284749830795,0 148,4.47715250169206 148,10 L 148,21 C 148,26.52284749830794 143.52284749830795,31 138,31 L 10,31 C 4.47715250169206,31 0,26.52284749830794 0,21 Z" fill-opacity="1" stroke-opacity="1" stroke-width="1" stroke-linecap="butt" stroke-linejoin="miter" stroke-miterlimit="10" transform="translate(99.86048125647568 206.24999999999994)"/><path fill="rgb(255,245,157)" stroke="rgb(0,0,0)" d="M 0,10 C 0,4.47715250169206 4.47715250169206,0 10,0 L 138,0 C 143.52284749830795,0 148,4.47715250169206 148,10 L 148,21 C 148,26.52284749830794 143.52284749830795,31 138,31 L 10,31 C 4.47715250169206,31 0,26.52284749830794 0,21 Z" fill-opacity="1" stroke-opacity="1" stroke-width="1" stroke-linecap="butt" stroke-linejoin="miter" stroke-miterlimit="10" transform="translate(99.86048125647568 257.49999999999994)"/><path fill="rgb(255,245,157)" stroke="rgb(0,0,0)" d="M 0,10 C 0,4.47715250169206 4.47715250169206,0 10,0 L 139.11186350905763,0 C 144.63471100736558,0 149.11186350905763,4.47715250169206 149.11186350905763,10 L 149.11186350905763,21 C 149.11186350905763,26.52284749830794 144.63471100736558,31 139.11186350905763,31 L 10,31 C 4.47715250169206,31 0,26.52284749830794 0,21 Z" fill-opacity="1" stroke-opacity="1" stroke-width="1" stroke-linecap="butt" stroke-linejoin="miter" stroke-miterlimit="10" transform="translate(101.4712490071326 -149.27495706367586)"/><path fill="rgb(239,154,154)" stroke="rgb(0,0,0)" d="M 0,10 C 0,4.47715250169206 4.47715250169206,0 10,0 L 121,0 C 126.52284749830794,0 131,4.47715250169206 131,10 L 131,21 C 131,26.52284749830794 126.52284749830794,31 121,31 L 10,31 C 4.47715250169206,31 0,26.52284749830794 0,21 Z" fill-opacity="1" stroke-opacity="1" stroke-width="1" stroke-linecap="butt" stroke-linejoin="miter" stroke-miterlimit="10" transform="translate(470.88282572162234 173.87017439911853)"/><g transform="matrix(0.013922701037350885 0.9999030745006361 -0.9999030745006361 0.013922701037350885 -174.01469464591412 -188.63195556026903)"><text font-family="Arial" font-size="12px" font-style="normal" font-weight="normal" text-decoration="none" text-anchor="middle" fill="black" dy="0.9166666666666666em" xml:space="preserve" transform="translate(24.5 0)">locatedIn</text></g><g transform="matrix(0.013922701037350885 0.9999030745006361 -0.9999030745006361 0.013922701037350885 -171.56286117414527 -12.54573349686899)"><text font-family="Arial" font-size="12px" font-style="normal" font-weight="normal" text-decoration="none" text-anchor="middle" fill="black" dy="0.9166666666666666em" xml:space="preserve" transform="translate(24.5 0)">locatedIn</text></g><g transform="matrix(0.013922701037350885 0.9999030745006361 -0.9999030745006361 0.013922701037350885 -169.13191175393243 162.04063395478013)"><text font-family="Arial" font-size="12px" font-style="normal" font-weight="normal" text-decoration="none" text-anchor="middle" fill="black" dy="0.9166666666666666em" xml:space="preserve" transform="translate(26 0)">sampleOf</text></g><g transform="matrix(1 1.2246467991473532e-16 -1.2246467991473532e-16 1 -56.141843835686316 -275.12450200886997)"><text font-family="Arial" font-size="12px" font-style="normal" font-weight="normal" text-decoration="none" text-anchor="middle" fill="black" dy="0.9166666666666666em" xml:space="preserve" transform="translate(45.5 0)">featureOfInterest</text></g><g transform="matrix(0.9509543020311122 0.309331400683022 -0.309331400683022 0.9509543020311122 306.2046056016711 -231.5671631499522)"><text font-family="Arial" font-size="12px" font-style="normal" font-weight="normal" text-decoration="none" text-anchor="middle" fill="black" dy="0.9166666666666666em" xml:space="preserve" transform="translate(48.5 0)">phenomenonTime</text></g><g transform="matrix(0.6816496680958142 -0.7316787068002364 0.7316787068002364 0.6816496680958142 332.18918558639575 188.75813352718697)"><text font-family="Arial" font-size="12px" font-style="normal" font-weight="normal" text-decoration="none" text-anchor="middle" fill="black" dy="0.9166666666666666em" xml:space="preserve" transform="translate(41.5 0)">MadeBySensor</text></g><g transform="matrix(0.989802485066591 -0.14244662353317109 0.14244662353317109 0.989802485066591 317.8074425556236 216.59315722005388)"><text font-family="Arial" font-size="12px" font-style="normal" font-weight="normal" text-decoration="none" text-anchor="middle" fill="black" dy="0.9166666666666666em" xml:space="preserve" transform="translate(38.5 0)">constrainedBy</text></g><g transform="translate(-228.50447257124142 -87.03827994546998)"><text font-family="Arial" font-size="12px" font-style="normal" font-weight="normal" text-decoration="none" text-anchor="middle" fill="black" dy="0.9166666666666666em" xml:space="preserve" transform="translate(37 0)">SampledField</text></g><g transform="translate(-224.55263909947257 89.04794211793006)"><text font-family="Arial" font-size="12px" font-style="normal" font-weight="normal" text-decoration="none" text-anchor="middle" fill="black" dy="0.9166666666666666em" xml:space="preserve" transform="translate(35.5 0)">SamplingPlot</text></g><g transform="translate(-224.10080562770372 265.1341641813301)"><text font-family="Arial" font-size="12px" font-style="normal" font-weight="normal" text-decoration="none" text-anchor="middle" fill="black" dy="0.9166666666666666em" xml:space="preserve" transform="translate(37.5 0)">SampledPlant</text></g><g transform="translate(-222.45630604301027 -263.12450200886997)"><text font-family="Arial" font-size="12px" font-style="normal" font-weight="normal" text-decoration="none" text-anchor="middle" fill="black" dy="0.9166666666666666em" xml:space="preserve" transform="translate(28.5 0)">SafranCell</text></g><g transform="translate(502.3954508846291 -190.90899981563342)"><text font-family="Arial" font-size="12px" font-style="normal" font-weight="normal" text-decoration="none" text-anchor="middle" fill="black" dy="0.9166666666666666em" xml:space="preserve" transform="translate(31 0)">Temporality</text></g><g transform="translate(517.5202425298041 23.808605169447958)"><text font-family="Arial" font-size="12px" font-style="normal" font-weight="normal" text-decoration="none" text-anchor="middle" fill="black" dy="0.9166666666666666em" xml:space="preserve" transform="translate(19.5 0)">Sensor</text></g><g transform="translate(138.80454950194687 -263.12450200886997)"><text font-family="Arial" font-size="12px" font-style="normal" font-weight="normal" text-decoration="none" text-anchor="middle" fill="black" dy="0.9166666666666666em" xml:space="preserve" transform="translate(34.5 0)">ClimaticData</text></g><g transform="translate(149.85093646938543 -20.793251976420443)"><text font-family="Arial" font-size="12px" font-style="normal" font-weight="normal" text-decoration="none" text-anchor="middle" fill="black" dy="0.9166666666666666em" xml:space="preserve" transform="translate(26 0)">YieldData</text></g><g transform="translate(150.6485332781392 45.675896949670005)"><text font-family="Arial" font-size="12px" font-style="normal" font-weight="normal" text-decoration="none" text-anchor="middle" fill="black" dy="0.9166666666666666em" xml:space="preserve" transform="translate(23.5 0)">NirsData</text></g><g transform="translate(137.39723589585844 -80.78410452004815)"><text font-family="Arial" font-size="12px" font-style="normal" font-weight="normal" text-decoration="none" text-anchor="middle" fill="black" dy="0.9166666666666666em" xml:space="preserve" transform="translate(36 0)">BiomassData</text></g><g transform="translate(121.04184699294896 -206.67074489022463)"><text font-family="Arial" font-size="12px" font-style="normal" font-weight="normal" text-decoration="none" text-anchor="middle" fill="black" dy="0.9166666666666666em" xml:space="preserve" transform="translate(52 0)">AgriculturalPractice</text></g><g transform="translate(127.98591523842015 107.17275648071217)"><text font-family="Arial" font-size="12px" font-style="normal" font-weight="normal" text-decoration="none" text-anchor="middle" fill="black" dy="0.9166666666666666em" xml:space="preserve" transform="translate(44.5 0)">FieldHealthState</text></g><g transform="translate(142.36048125647568 163.49999999999994)"><text font-family="Arial" font-size="12px" font-style="normal" font-weight="normal" text-decoration="none" text-anchor="middle" fill="black" dy="0.9166666666666666em" xml:space="preserve" transform="translate(31.5 0)">WeedsData</text></g><g transform="translate(141.36048125647568 214.74999999999994)"><text font-family="Arial" font-size="12px" font-style="normal" font-weight="normal" text-decoration="none" text-anchor="middle" fill="black" dy="0.9166666666666666em" xml:space="preserve" transform="translate(32.5 0)">Bioagressor</text></g><g transform="translate(107.36048125647568 265.99999999999994)"><text font-family="Arial" font-size="12px" font-style="normal" font-weight="normal" text-decoration="none" text-anchor="middle" fill="black" dy="0.9166666666666666em" xml:space="preserve" transform="translate(66.5 0)">SampledPlantPhenotype</text></g><g transform="translate(131.5271807616614 -140.77495706367586)"><text font-family="Arial" font-size="12px" font-style="normal" font-weight="normal" text-decoration="none" text-anchor="middle" fill="black" dy="0.9166666666666666em" xml:space="preserve" transform="translate(44.5 0)">SoilBiochemistry</text></g><g transform="translate(508.88282572162234 182.37017439911853)"><text font-family="Arial" font-size="12px" font-style="normal" font-weight="normal" text-decoration="none" text-anchor="middle" fill="black" dy="0.9166666666666666em" xml:space="preserve" transform="translate(27.5 0)">Constraint</text></g></g></g></g><defs><path fill="rgb(0,0,0)" stroke="rgb(0,0,0)" d="M 6,-2.25 L 0,0 L 6,2.25 Z" fill-opacity="1" stroke-opacity="1" stroke-width="1" stroke-linecap="butt" stroke-linejoin="miter" stroke-miterlimit="10" id="ygc132_0"/><path fill="rgb(0,0,0)" stroke="rgb(0,0,0)" d="M 6,-2.25 L 0,0 L 6,2.25 Z" fill-opacity="1" stroke-opacity="1" stroke-width="1" stroke-linecap="butt" stroke-linejoin="miter" stroke-miterlimit="10" id="ygc132_1"/><path fill="rgb(0,0,0)" stroke="rgb(0,0,0)" d="M 6,-2.25 L 0,0 L 6,2.25 Z" fill-opacity="1" stroke-opacity="1" stroke-width="1" stroke-linecap="butt" stroke-linejoin="miter" stroke-miterlimit="10" id="ygc132_2"/><path fill="rgb(0,0,0)" stroke="rgb(0,0,0)" d="M 6,-2.25 L 0,0 L 6,2.25 Z" fill-opacity="1" stroke-opacity="1" stroke-width="1" stroke-linecap="butt" stroke-linejoin="miter" stroke-miterlimit="10" id="ygc132_3"/><path fill="rgb(0,0,0)" stroke="rgb(0,0,0)" d="M 6,-2.25 L 0,0 L 6,2.25 Z" fill-opacity="1" stroke-opacity="1" stroke-width="1" stroke-linecap="butt" stroke-linejoin="miter" stroke-miterlimit="10" id="ygc132_4"/><path fill="rgb(0,0,0)" stroke="rgb(0,0,0)" d="M 6,-2.25 L 0,0 L 6,2.25 Z" fill-opacity="1" stroke-opacity="1" stroke-width="1" stroke-linecap="butt" stroke-linejoin="miter" stroke-miterlimit="10" id="ygc132_5"/><path fill="rgb(0,0,0)" stroke="rgb(0,0,0)" d="M 6,-2.25 L 0,0 L 6,2.25 Z" fill-opacity="1" stroke-opacity="1" stroke-width="1" stroke-linecap="butt" stroke-linejoin="miter" stroke-miterlimit="10" id="ygc132_6"/><path fill="rgb(0,0,0)" stroke="rgb(0,0,0)" d="M 6,-2.25 L 0,0 L 6,2.25 Z" fill-opacity="1" stroke-opacity="1" stroke-width="1" stroke-linecap="butt" stroke-linejoin="miter" stroke-miterlimit="10" id="ygc132_7"/><path fill="rgb(142,36,170)" stroke="rgb(142,36,170)" d="M 6,-2.25 L 0,0 L 6,2.25 Z" fill-opacity="1" stroke-opacity="1" stroke-width="1" stroke-linecap="butt" stroke-linejoin="miter" stroke-miterlimit="10" id="ygc132_8"/><path fill="rgb(142,36,170)" stroke="rgb(142,36,170)" d="M 6,-2.25 L 0,0 L 6,2.25 Z" fill-opacity="1" stroke-opacity="1" stroke-width="1" stroke-linecap="butt" stroke-linejoin="miter" stroke-miterlimit="10" id="ygc132_9"/><path fill="rgb(178,235,242)" stroke="rgb(178,235,242)" d="M 6,-2.25 L 0,0 L 6,2.25 Z" fill-opacity="1" stroke-opacity="1" stroke-width="1" stroke-linecap="butt" stroke-linejoin="miter" stroke-miterlimit="10" id="ygc132_10"/><path fill="rgb(142,36,170)" stroke="rgb(142,36,170)" d="M 6,-2.25 L 0,0 L 6,2.25 Z" fill-opacity="1" stroke-opacity="1" stroke-width="1" stroke-linecap="butt" stroke-linejoin="miter" stroke-miterlimit="10" id="ygc132_11"/><path fill="rgb(178,235,242)" stroke="rgb(178,235,242)" d="M 6,-2.25 L 0,0 L 6,2.25 Z" fill-opacity="1" stroke-opacity="1" stroke-width="1" stroke-linecap="butt" stroke-linejoin="miter" stroke-miterlimit="10" id="ygc132_12"/><path fill="rgb(178,235,242)" stroke="rgb(178,235,242)" d="M 6,-2.25 L 0,0 L 6,2.25 Z" fill-opacity="1" stroke-opacity="1" stroke-width="1" stroke-linecap="butt" stroke-linejoin="miter" stroke-miterlimit="10" id="ygc132_13"/><path fill="rgb(142,36,170)" stroke="rgb(142,36,170)" d="M 6,-2.25 L 0,0 L 6,2.25 Z" fill-opacity="1" stroke-opacity="1" stroke-width="1" stroke-linecap="butt" stroke-linejoin="miter" stroke-miterlimit="10" id="ygc132_14"/><path fill="rgb(178,235,242)" stroke="rgb(178,235,242)" d="M 6,-2.25 L 0,0 L 6,2.25 Z" fill-opacity="1" stroke-opacity="1" stroke-width="1" stroke-linecap="butt" stroke-linejoin="miter" stroke-miterlimit="10" id="ygc132_15"/><path fill="rgb(0,0,0)" stroke="rgb(0,0,0)" d="M 6,-2.25 L 0,0 L 6,2.25 Z" fill-opacity="1" stroke-opacity="1" stroke-width="1" stroke-linecap="butt" stroke-linejoin="miter" stroke-miterlimit="10" id="ygc132_16"/><path fill="rgb(0,0,0)" stroke="rgb(0,0,0)" d="M 6,-2.25 L 0,0 L 6,2.25 Z" fill-opacity="1" stroke-opacity="1" stroke-width="1" stroke-linecap="butt" stroke-linejoin="miter" stroke-miterlimit="10" id="ygc132_17"/><path fill="rgb(178,235,242)" stroke="rgb(178,235,242)" d="M 6,-2.25 L 0,0 L 6,2.25 Z" fill-opacity="1" stroke-opacity="1" stroke-width="1" stroke-linecap="butt" stroke-linejoin="miter" stroke-miterlimit="10" id="ygc132_18"/><path fill="rgb(142,36,170)" stroke="rgb(142,36,170)" d="M 6,-2.25 L 0,0 L 6,2.25 Z" fill-opacity="1" stroke-opacity="1" stroke-width="1" stroke-linecap="butt" stroke-linejoin="miter" stroke-miterlimit="10" id="ygc132_19"/><path fill="rgb(178,235,242)" stroke="rgb(178,235,242)" d="M 6,-2.25 L 0,0 L 6,2.25 Z" fill-opacity="1" stroke-opacity="1" stroke-width="1" stroke-linecap="butt" stroke-linejoin="miter" stroke-miterlimit="10" id="ygc132_20"/><path fill="rgb(142,36,170)" stroke="rgb(142,36,170)" d="M 6,-2.25 L 0,0 L 6,2.25 Z" fill-opacity="1" stroke-opacity="1" stroke-width="1" stroke-linecap="butt" stroke-linejoin="miter" stroke-miterlimit="10" id="ygc132_21"/><path fill="rgb(0,0,0)" stroke="rgb(0,0,0)" d="M 6,-2.25 L 0,0 L 6,2.25 Z" fill-opacity="1" stroke-opacity="1" stroke-width="1" stroke-linecap="butt" stroke-linejoin="miter" stroke-miterlimit="10" id="ygc132_22"/><path fill="rgb(0,0,0)" stroke="rgb(0,0,0)" d="M 6,-2.25 L 0,0 L 6,2.25 Z" fill-opacity="1" stroke-opacity="1" stroke-width="1" stroke-linecap="butt" stroke-linejoin="miter" stroke-miterlimit="10" id="ygc132_23"/><path fill="rgb(178,235,242)" stroke="rgb(178,235,242)" d="M 6,-2.25 L 0,0 L 6,2.25 Z" fill-opacity="1" stroke-opacity="1" stroke-width="1" stroke-linecap="butt" stroke-linejoin="miter" stroke-miterlimit="10" id="ygc132_24"/><path fill="rgb(142,36,170)" stroke="rgb(142,36,170)" d="M 6,-2.25 L 0,0 L 6,2.25 Z" fill-opacity="1" stroke-opacity="1" stroke-width="1" stroke-linecap="butt" stroke-linejoin="miter" stroke-miterlimit="10" id="ygc132_25"/><path fill="rgb(178,235,242)" stroke="rgb(178,235,242)" d="M 6,-2.25 L 0,0 L 6,2.25 Z" fill-opacity="1" stroke-opacity="1" stroke-width="1" stroke-linecap="butt" stroke-linejoin="miter" stroke-miterlimit="10" id="ygc132_26"/><path fill="rgb(142,36,170)" stroke="rgb(142,36,170)" d="M 6,-2.25 L 0,0 L 6,2.25 Z" fill-opacity="1" stroke-opacity="1" stroke-width="1" stroke-linecap="butt" stroke-linejoin="miter" stroke-miterlimit="10" id="ygc132_27"/><path fill="rgb(0,0,0)" stroke="rgb(0,0,0)" d="M 6,-2.25 L 0,0 L 6,2.25 Z" fill-opacity="1" stroke-opacity="1" stroke-width="1" stroke-linecap="butt" stroke-linejoin="miter" stroke-miterlimit="10" id="ygc132_28"/><path fill="rgb(142,36,170)" stroke="rgb(142,36,170)" d="M 6,-2.25 L 0,0 L 6,2.25 Z" fill-opacity="1" stroke-opacity="1" stroke-width="1" stroke-linecap="butt" stroke-linejoin="miter" stroke-miterlimit="10" id="ygc132_29"/><path fill="rgb(239,154,154)" stroke="rgb(239,154,154)" d="M 6,-2.25 L 0,0 L 6,2.25 Z" fill-opacity="1" stroke-opacity="1" stroke-width="1" stroke-linecap="butt" stroke-linejoin="miter" stroke-miterlimit="10" id="ygc132_30"/><path fill="rgb(239,154,154)" stroke="rgb(239,154,154)" d="M 6,-2.25 L 0,0 L 6,2.25 Z" fill-opacity="1" stroke-opacity="1" stroke-width="1" stroke-linecap="butt" stroke-linejoin="miter" stroke-miterlimit="10" id="ygc132_31"/><path fill="rgb(142,36,170)" stroke="rgb(142,36,170)" d="M 6,-2.25 L 0,0 L 6,2.25 Z" fill-opacity="1" stroke-opacity="1" stroke-width="1" stroke-linecap="butt" stroke-linejoin="miter" stroke-miterlimit="10" id="ygc132_32"/></defs></svg>