<svg xmlns="http://www.w3.org/2000/svg" style="display: block; width: 1242px; height: 1086px; overflow: auto;" width="1242px" height="1086px" viewBox="0 0 1242 1086" xmlns:xlink="http://www.w3.org/1999/xlink"><rect width="1242px" height="1086px" fill="white"/><clipPath id="ygc71_1"><rect x="25" y="25" width="1191.9" height="1035.2"/></clipPath><g clip-path="url(#ygc71_1)"><g style="pointer-events: visiblepainted;" transform="translate(30 30)" image-rendering="auto" shape-rendering="auto"><g style="box-sizing: initial;"><g><path fill="none" stroke="rgb(102,56,0)" d="M 770.0808885882308,549.7382699981862 L 799.1711023274191,453.84068709649443" stroke-opacity="1" stroke-width="1" stroke-linecap="butt" stroke-linejoin="miter" stroke-miterlimit="10"/><use transform="matrix(-0.29028467725446216 0.9569403357322088 -0.9569403357322088 -0.29028467725446216 800.9128103909459 448.0990450821012)" xlink:href="#ygc71_0"/></g><g><path fill="none" stroke="rgb(102,56,0)" d="M 868.0767009347443,433.7873967157324 L 1051.5181114994884,451.8547986760719" stroke-opacity="1" stroke-width="1" stroke-linecap="butt" stroke-linejoin="miter" stroke-miterlimit="10"/><use transform="matrix(-0.9951847266721969 -0.09801714032956095 0.09801714032956095 -0.9951847266721969 1057.4892198595217 452.44290151804927)" xlink:href="#ygc71_0"/></g><g><path fill="none" stroke="rgb(102,56,0)" d="M 805.3038556743153,409.7794211109454 L 795.3395880403498,308.6105140355558" stroke-opacity="1" stroke-width="1" stroke-linecap="butt" stroke-linejoin="miter" stroke-miterlimit="10"/><use transform="matrix(0.09801714032955905 0.995184726672197 -0.995184726672197 0.09801714032955905 794.7514851983724 302.6394056755226)" xlink:href="#ygc71_0"/></g><g><path fill="none" stroke="rgb(102,56,0)" d="M 75.77221823491588,372.2972798237996 L 377.1809321670872,739.5648603930882" stroke-opacity="1" stroke-width="1" stroke-linecap="butt" stroke-linejoin="miter" stroke-miterlimit="10"/><use transform="matrix(-0.6343932841636454 -0.773010453362737 0.773010453362737 -0.6343932841636454 380.9872918720691 744.2029231132647)" xlink:href="#ygc71_0"/></g><g><path fill="none" stroke="rgb(102,56,0)" d="M 82.93306346058358,372.2972798237996 L 514.4047196556489,726.3969169068052" stroke-opacity="1" stroke-width="1" stroke-linecap="butt" stroke-linejoin="miter" stroke-miterlimit="10"/><use transform="matrix(-0.7730104533627371 -0.6343932841636455 0.6343932841636455 -0.7730104533627371 519.0427823758254 730.203276611787)" xlink:href="#ygc71_0"/></g><g><path fill="none" stroke="rgb(102,56,0)" d="M 70.62120044711425,372.2972798237996 L 243.74618408416612,696.1913430019151" stroke-opacity="1" stroke-width="1" stroke-linecap="butt" stroke-linejoin="miter" stroke-miterlimit="10"/><use transform="matrix(-0.47139673682599736 -0.8819212643483553 0.8819212643483553 -0.47139673682599736 246.57456450512208 701.4828705880052)" xlink:href="#ygc71_0"/></g><g><path fill="none" stroke="rgb(102,56,0)" d="M 116.6187542562486,371.1690444738044 L 700.9406280415009,548.4211470457885" stroke-opacity="1" stroke-width="1" stroke-linecap="butt" stroke-linejoin="miter" stroke-miterlimit="10"/><use transform="matrix(-0.956940335732209 -0.29028467725446205 0.29028467725446205 -0.956940335732209 706.6822700558942 550.1628551093153)" xlink:href="#ygc71_0"/></g><g><path fill="none" stroke="rgb(102,56,0)" d="M 137.13168406365452,232.338430936559 L 723.5157115897064,545.7672235929089" stroke-opacity="1" stroke-width="1" stroke-linecap="butt" stroke-linejoin="miter" stroke-miterlimit="10"/><use transform="matrix(-0.8819212643483554 -0.47139673682599725 0.47139673682599725 -0.8819212643483554 728.8072391757964 548.5956040138649)" xlink:href="#ygc71_0"/></g><g><path fill="none" stroke="rgb(102,56,0)" d="M 218.17332686995718,119.28054300912527 L 736.175744281059,544.3941405763909" stroke-opacity="1" stroke-width="1" stroke-linecap="butt" stroke-linejoin="miter" stroke-miterlimit="10"/><use transform="matrix(-0.7730104533627372 -0.6343932841636452 0.6343932841636452 -0.7730104533627372 740.8138070012354 548.2005002813727)" xlink:href="#ygc71_0"/></g><g><path fill="none" stroke="rgb(102,56,0)" d="M 201.70050371430577,119.28054300912527 L 389.3916812164733,738.0154349491951" stroke-opacity="1" stroke-width="1" stroke-linecap="butt" stroke-linejoin="miter" stroke-miterlimit="10"/><use transform="matrix(-0.29028467725446233 -0.9569403357322088 0.9569403357322088 -0.29028467725446233 391.1333892800001 743.7570769635884)" xlink:href="#ygc71_0"/></g><g><path fill="none" stroke="rgb(102,56,0)" d="M 205.86146385648786,119.28054300912527 L 529.2573768054968,724.3117410472174" stroke-opacity="1" stroke-width="1" stroke-linecap="butt" stroke-linejoin="miter" stroke-miterlimit="10"/><use transform="matrix(-0.47139673682599764 -0.881921264348355 0.881921264348355 -0.47139673682599764 532.0857572264529 729.6032686333075)" xlink:href="#ygc71_0"/></g><g><path fill="none" stroke="rgb(102,56,0)" d="M 198.01310866980253,119.28054300912527 L 254.73988922480828,695.2372115245978" stroke-opacity="1" stroke-width="1" stroke-linecap="butt" stroke-linejoin="miter" stroke-miterlimit="10"/><use transform="matrix(-0.09801714032956026 -0.995184726672197 0.995184726672197 -0.09801714032956026 255.32799206678564 701.2083198846309)" xlink:href="#ygc71_0"/></g><g><path fill="none" stroke="rgb(102,56,0)" d="M 113.07725309855972,232.338430936559 L 383.70503297140687,738.6473956533611" stroke-opacity="1" stroke-width="1" stroke-linecap="butt" stroke-linejoin="miter" stroke-miterlimit="10"/><use transform="matrix(-0.4713967368259977 -0.881921264348355 0.881921264348355 -0.4713967368259977 386.5334133923629 743.9389232394511)" xlink:href="#ygc71_0"/></g><g><path fill="none" stroke="rgb(102,56,0)" d="M 118.22827088636136,232.338430936559 L 522.7332760011773,725.2292057869446" stroke-opacity="1" stroke-width="1" stroke-linecap="butt" stroke-linejoin="miter" stroke-miterlimit="10"/><use transform="matrix(-0.6343932841636455 -0.773010453362737 0.773010453362737 -0.6343932841636455 526.5396357061591 729.867268507121)" xlink:href="#ygc71_0"/></g><g><path fill="none" stroke="rgb(102,56,0)" d="M 108.91629295637763,232.338430936559 L 249.43283232923253,695.5593822977492" stroke-opacity="1" stroke-width="1" stroke-linecap="butt" stroke-linejoin="miter" stroke-miterlimit="10"/><use transform="matrix(-0.29028467725446194 -0.9569403357322089 0.9569403357322089 -0.29028467725446194 251.1745403927593 701.3010243121424)" xlink:href="#ygc71_0"/></g><g><path fill="none" stroke="rgb(102,56,0)" d="M 347.1601407374385,50.33565460614432 L 778.6317969325047,404.4352916891502" stroke-opacity="1" stroke-width="1" stroke-linecap="butt" stroke-linejoin="miter" stroke-miterlimit="10"/><use transform="matrix(-0.7730104533627374 -0.6343932841636449 0.6343932841636449 -0.7730104533627374 783.2698596526811 408.2416513941321)" xlink:href="#ygc71_0"/></g><g><path fill="none" stroke="rgb(102,56,0)" d="M 330.687317581787,50.33565460614432 L 534.9440250505633,723.6797803430516" stroke-opacity="1" stroke-width="1" stroke-linecap="butt" stroke-linejoin="miter" stroke-miterlimit="10"/><use transform="matrix(-0.29028467725446244 -0.9569403357322087 0.9569403357322087 -0.29028467725446244 536.68573311409 729.4214223574448)" xlink:href="#ygc71_0"/></g><g><path fill="none" stroke="rgb(102,56,0)" d="M 480.400621558059,36 L 751.028401430907,542.3089647168031" stroke-opacity="1" stroke-width="1" stroke-linecap="butt" stroke-linejoin="miter" stroke-miterlimit="10"/><use transform="matrix(-0.47139673682599803 -0.8819212643483547 0.8819212643483547 -0.47139673682599803 753.856781851863 547.6004923028931)" xlink:href="#ygc71_0"/></g><g><path fill="none" stroke="rgb(102,56,0)" d="M 465.3191808060126,36 L 265.2440295438828,695.5593822977492" stroke-opacity="1" stroke-width="1" stroke-linecap="butt" stroke-linejoin="miter" stroke-miterlimit="10"/><use transform="matrix(0.2902846772544628 -0.9569403357322087 0.9569403357322087 0.2902846772544628 263.502321480356 701.3010243121424)" xlink:href="#ygc71_0"/></g><g><path fill="none" stroke="rgb(102,56,0)" d="M 472.5522663713737,36 L 540.2510819461389,723.3576095699001" stroke-opacity="1" stroke-width="1" stroke-linecap="butt" stroke-linejoin="miter" stroke-miterlimit="10"/><use transform="matrix(-0.09801714032956053 -0.9951847266721969 0.9951847266721969 -0.09801714032956053 540.8391847881163 729.3287179299332)" xlink:href="#ygc71_0"/></g><g><path fill="none" stroke="rgb(102,56,0)" d="M 469.00657585051584,36 L 399.8958215355477,737.6932641760437" stroke-opacity="1" stroke-width="1" stroke-linecap="butt" stroke-linejoin="miter" stroke-miterlimit="10"/><use transform="matrix(0.09801714032956085 -0.9951847266721968 0.9951847266721968 0.09801714032956085 399.30771869357034 743.6643725360768)" xlink:href="#ygc71_0"/></g><g><path fill="none" stroke="rgb(102,56,0)" d="M 620.3594704452998,78.45605265144559 L 793.4844540823527,402.35011582956236" stroke-opacity="1" stroke-width="1" stroke-linecap="butt" stroke-linejoin="miter" stroke-miterlimit="10"/><use transform="matrix(-0.4713967368259981 -0.8819212643483548 0.8819212643483548 -0.4713967368259981 796.3128345033087 407.6416434156525)" xlink:href="#ygc71_0"/></g><g><path fill="none" stroke="rgb(102,56,0)" d="M 608.9654247377566,78.45605265144559 L 545.4481653696379,723.3576095699001" stroke-opacity="1" stroke-width="1" stroke-linecap="butt" stroke-linejoin="miter" stroke-miterlimit="10"/><use transform="matrix(0.09801714032956065 -0.9951847266721969 0.9951847266721969 0.09801714032956065 544.8600625276605 729.3287179299332)" xlink:href="#ygc71_0"/></g><g><path fill="none" stroke="rgb(102,56,0)" d="M 605.2780296932534,78.45605265144559 L 405.2028784311235,738.0154349491952" stroke-opacity="1" stroke-width="1" stroke-linecap="butt" stroke-linejoin="miter" stroke-miterlimit="10"/><use transform="matrix(0.2902846772544627 -0.9569403357322088 0.9569403357322088 0.2902846772544627 403.4611703675967 743.7570769635885)" xlink:href="#ygc71_0"/></g><g><path fill="none" stroke="rgb(102,56,0)" d="M 733.4173583727336,171.24026340937382 L 779.1487994762088,256.7977719954724" stroke-opacity="1" stroke-width="1" stroke-linecap="butt" stroke-linejoin="miter" stroke-miterlimit="10"/><use transform="matrix(-0.4713967368259978 -0.8819212643483549 0.8819212643483549 -0.4713967368259978 781.9771798971648 262.08929958156256)" xlink:href="#ygc71_0"/></g><g><path fill="none" stroke="rgb(102,56,0)" d="M 709.0239396907034,171.24026340937382 L 277.4547785932688,697.1088077416423" stroke-opacity="1" stroke-width="1" stroke-linecap="butt" stroke-linejoin="miter" stroke-miterlimit="10"/><use transform="matrix(0.6343932841636462 -0.7730104533627364 0.7730104533627364 0.6343932841636462 273.6484188882869 701.7468704618187)" xlink:href="#ygc71_0"/></g><g><path fill="none" stroke="rgb(102,56,0)" d="M 675.8714062317459,698.7961579256198 L 739.1275054650946,980.9816887330996" stroke-opacity="1" stroke-width="1" stroke-linecap="butt" stroke-linejoin="miter" stroke-miterlimit="10"/><use transform="matrix(-0.218736540054155 -0.975783954595041 0.975783954595041 -0.218736540054155 740.4399247054195 986.8363924606699)" xlink:href="#ygc71_0"/></g><g><path fill="none" stroke="rgb(102,56,0)" d="M 686.6086557602858,698.7961579256198 L 851.7717689286931,900.0479936184107" stroke-opacity="1" stroke-width="1" stroke-linecap="butt" stroke-linejoin="miter" stroke-miterlimit="10"/><use transform="matrix(-0.634393284163644 -0.7730104533627381 0.7730104533627381 -0.634393284163644 855.5781286336749 904.686056338587)" xlink:href="#ygc71_0"/></g><g><path fill="none" stroke="rgb(102,56,0)" d="M 199.89929726537392,645.7082021753756 L 479.16960341609064,730.4239233762028" stroke-opacity="1" stroke-width="1" stroke-linecap="butt" stroke-linejoin="miter" stroke-miterlimit="10"/><use transform="matrix(-0.9569403357322087 -0.2902846772544625 0.2902846772544625 -0.9569403357322087 484.91124543048386 732.1656314397295)" xlink:href="#ygc71_0"/></g><g><path fill="none" stroke="rgb(102,56,0)" d="M 177.95617442133428,646.8364375253708 L 356.19234313020627,742.1056545294668" stroke-opacity="1" stroke-width="1" stroke-linecap="butt" stroke-linejoin="miter" stroke-miterlimit="10"/><use transform="matrix(-0.8819212643483552 -0.4713967368259974 0.4713967368259974 -0.8819212643483552 361.48387071629645 744.9340349504229)" xlink:href="#ygc71_0"/></g><g><path fill="none" stroke="rgb(102,56,0)" d="M 166.21360646970882,646.8364375253708 L 228.89352693431812,698.276518861503" stroke-opacity="1" stroke-width="1" stroke-linecap="butt" stroke-linejoin="miter" stroke-miterlimit="10"/><use transform="matrix(-0.7730104533627371 -0.6343932841636455 0.6343932841636455 -0.7730104533627371 233.53158965449455 702.0828785664847)" xlink:href="#ygc71_0"/></g><g><path fill="none" stroke="rgb(102,56,0)" d="M 205.28054300912527,634.8444131301578 L 602.4530007666696,673.9624858695123" stroke-opacity="1" stroke-width="1" stroke-linecap="butt" stroke-linejoin="miter" stroke-miterlimit="10"/><use transform="matrix(-0.9951847266721969 -0.09801714032956038 0.09801714032956038 -0.9951847266721969 608.4241091267027 674.5505887114897)" xlink:href="#ygc71_0"/></g><g><path fill="none" stroke="rgb(102,56,0)" d="M 686.608655760286,662.7961579256198 L 744.5043006265873,592.2501105398421" stroke-opacity="1" stroke-width="1" stroke-linecap="butt" stroke-linejoin="miter" stroke-miterlimit="10"/><use transform="matrix(-0.6343932841636454 0.7730104533627371 -0.7730104533627371 -0.6343932841636454 748.3106603315691 587.6120478196657)" xlink:href="#ygc71_0"/></g><g><path fill="none" stroke="rgb(102,56,0)" d="M 937.0473301035529,798.2374767979095 L 720.1873684658548,702.2070322798078" stroke-opacity="1" stroke-width="1" stroke-linecap="butt" stroke-linejoin="miter" stroke-miterlimit="10"/><use transform="matrix(0.9143611574846103 0.4048995846915671 -0.4048995846915671 0.9143611574846103 714.7012015209472 699.7776347716584)" xlink:href="#ygc71_0"/></g><g><path fill="none" stroke="rgb(102,56,0)" d="M 136.33565460614432,505.8575992626765 L 695.2372115245981,560.9045979420787" stroke-opacity="1" stroke-width="1" stroke-linecap="butt" stroke-linejoin="miter" stroke-miterlimit="10"/><use transform="matrix(-0.9951847266721969 -0.09801714032955998 0.09801714032955998 -0.9951847266721969 701.2083198846312 561.4927007840561)" xlink:href="#ygc71_0"/></g><g><path fill="none" stroke="rgb(102,56,0)" d="M 90.10787284106019,517.8496236578895 L 237.22208327984652,697.1088077416423" stroke-opacity="1" stroke-width="1" stroke-linecap="butt" stroke-linejoin="miter" stroke-miterlimit="10"/><use transform="matrix(-0.6343932841636453 -0.7730104533627372 0.7730104533627372 -0.6343932841636453 241.0284429848284 701.7468704618187)" xlink:href="#ygc71_0"/></g><g><path fill="none" stroke="rgb(102,56,0)" d="M 97.2687180667279,517.8496236578895 L 368.85237582155884,740.7325715129489" stroke-opacity="1" stroke-width="1" stroke-linecap="butt" stroke-linejoin="miter" stroke-miterlimit="10"/><use transform="matrix(-0.773010453362737 -0.6343932841636455 0.6343932841636455 -0.773010453362737 373.4904385417353 744.5389312179307)" xlink:href="#ygc71_0"/></g><g><path fill="none" stroke="rgb(102,56,0)" d="M 109.01128601835333,517.8496236578895 L 501.74468696429636,727.7699999233232" stroke-opacity="1" stroke-width="1" stroke-linecap="butt" stroke-linejoin="miter" stroke-miterlimit="10"/><use transform="matrix(-0.8819212643483552 -0.47139673682599764 0.47139673682599764 -0.8819212643483552 507.03621455038655 730.5983803442792)" xlink:href="#ygc71_0"/></g><path fill="rgb(139,195,74)" stroke="rgb(33,33,33)" d="M 0,10 C 0,4.47715250169206 4.47715250169206,0 10,0 L 112,0 C 117.52284749830794,0 122,4.47715250169206 122,10 L 122,26 C 122,31.52284749830794 117.52284749830794,36 112,36 L 10,36 C 4.47715250169206,36 0,31.52284749830794 0,26 Z" fill-opacity="1" stroke-opacity="1" stroke-width="1" stroke-linecap="butt" stroke-linejoin="miter" stroke-miterlimit="10" transform="translate(481.8496236578884 731.7410463286005)"/><path fill="rgb(139,195,74)" stroke="rgb(33,33,33)" d="M 0,10 C 0,4.47715250169206 4.47715250169206,0 10,0 L 112,0 C 117.52284749830794,0 122,4.47715250169206 122,10 L 122,26 C 122,31.52284749830794 117.52284749830794,36 112,36 L 10,36 C 4.47715250169206,36 0,31.52284749830794 0,26 Z" fill-opacity="1" stroke-opacity="1" stroke-width="1" stroke-linecap="butt" stroke-linejoin="miter" stroke-miterlimit="10" transform="translate(336.29727982379836 746.0767009347442)"/><path fill="rgb(128,222,234)" stroke="rgb(33,33,33)" d="M 0,10 C 0,4.47715250169206 4.47715250169206,0 10,0 L 112,0 C 117.52284749830794,0 122,4.47715250169206 122,10 L 122,26 C 122,31.52284749830794 117.52284749830794,36 112,36 L 10,36 C 4.47715250169206,36 0,31.52284749830794 0,26 Z" fill-opacity="1" stroke-opacity="1" stroke-width="1" stroke-linecap="butt" stroke-linejoin="miter" stroke-miterlimit="10" transform="translate(746.0767009347443 409.7794211109454)"/><path fill="rgb(128,222,234)" stroke="rgb(33,33,33)" d="M 0,10 C 0,4.47715250169206 4.47715250169206,0 10,0 L 112,0 C 117.52284749830794,0 122,4.47715250169206 122,10 L 122,26 C 122,31.52284749830794 117.52284749830794,36 112,36 L 10,36 C 4.47715250169206,36 0,31.52284749830794 0,26 Z" fill-opacity="1" stroke-opacity="1" stroke-width="1" stroke-linecap="butt" stroke-linejoin="miter" stroke-miterlimit="10" transform="translate(703.6206482832986 549.7382699981862)"/><path fill="rgb(128,222,234)" stroke="rgb(33,33,33)" d="M 0,10 C 0,4.47715250169206 4.47715250169206,0 10,0 L 112,0 C 117.52284749830794,0 122,4.47715250169206 122,10 L 122,26 C 122,31.52284749830794 117.52284749830794,36 112,36 L 10,36 C 4.47715250169206,36 0,31.52284749830794 0,26 Z" fill-opacity="1" stroke-opacity="1" stroke-width="1" stroke-linecap="butt" stroke-linejoin="miter" stroke-miterlimit="10" transform="translate(1059.9015482581888 440.6884707321793)"/><path fill="rgb(128,222,234)" stroke="rgb(33,33,33)" d="M 0,10 C 0,4.47715250169206 4.47715250169206,0 10,0 L 112,0 C 117.52284749830794,0 122,4.47715250169206 122,10 L 122,26 C 122,31.52284749830794 117.52284749830794,36 112,36 L 10,36 C 4.47715250169206,36 0,31.52284749830794 0,26 Z" fill-opacity="1" stroke-opacity="1" stroke-width="1" stroke-linecap="butt" stroke-linejoin="miter" stroke-miterlimit="10" transform="translate(731.7410463286003 264.2270772768554)"/><path fill="rgb(139,195,74)" stroke="rgb(33,33,33)" d="M 0,10 C 0,4.47715250169206 4.47715250169206,0 10,0 L 112,0 C 117.52284749830794,0 122,4.47715250169206 122,10 L 122,26 C 122,31.52284749830794 117.52284749830794,36 112,36 L 10,36 C 4.47715250169206,36 0,31.52284749830794 0,26 Z" fill-opacity="1" stroke-opacity="1" stroke-width="1" stroke-linecap="butt" stroke-linejoin="miter" stroke-miterlimit="10" transform="translate(196.33843093655764 703.6206482832982)"/><path fill="rgb(255,255,255)" stroke="rgb(33,33,33)" d="M 0,10 C 0,4.47715250169206 4.47715250169206,0 10,0 L 112,0 C 117.52284749830794,0 122,4.47715250169206 122,10 L 122,26 C 122,31.52284749830794 117.52284749830794,36 112,36 L 10,36 C 4.47715250169206,36 0,31.52284749830794 0,26 Z" fill-opacity="1" stroke-opacity="1" stroke-width="1" stroke-linecap="butt" stroke-linejoin="miter" stroke-miterlimit="10" transform="translate(0 336.2972798237996)"/><path fill="rgb(255,255,255)" stroke="rgb(33,33,33)" d="M 0,10 C 0,4.47715250169206 4.47715250169206,0 10,0 L 112,0 C 117.52284749830794,0 122,4.47715250169206 122,10 L 122,26 C 122,31.52284749830794 117.52284749830794,36 112,36 L 10,36 C 4.47715250169206,36 0,31.52284749830794 0,26 Z" fill-opacity="1" stroke-opacity="1" stroke-width="1" stroke-linecap="butt" stroke-linejoin="miter" stroke-miterlimit="10" transform="translate(42.456052651445475 196.338430936559)"/><path fill="rgb(255,255,255)" stroke="rgb(33,33,33)" d="M 0,10 C 0,4.47715250169206 4.47715250169206,0 10,0 L 112,0 C 117.52284749830794,0 122,4.47715250169206 122,10 L 122,26 C 122,31.52284749830794 117.52284749830794,36 112,36 L 10,36 C 4.47715250169206,36 0,31.52284749830794 0,26 Z" fill-opacity="1" stroke-opacity="1" stroke-width="1" stroke-linecap="butt" stroke-linejoin="miter" stroke-miterlimit="10" transform="translate(135.2402634093736 83.28054300912527)"/><path fill="rgb(255,255,255)" stroke="rgb(33,33,33)" d="M 0,10 C 0,4.47715250169206 4.47715250169206,0 10,0 L 112,0 C 117.52284749830794,0 122,4.47715250169206 122,10 L 122,26 C 122,31.52284749830794 117.52284749830794,36 112,36 L 10,36 C 4.47715250169206,36 0,31.52284749830794 0,26 Z" fill-opacity="1" stroke-opacity="1" stroke-width="1" stroke-linecap="butt" stroke-linejoin="miter" stroke-miterlimit="10" transform="translate(264.22707727685486 14.335654606144317)"/><path fill="rgb(255,255,255)" stroke="rgb(33,33,33)" d="M 0,10 C 0,4.47715250169206 4.47715250169206,0 10,0 L 112,0 C 117.52284749830794,0 122,4.47715250169206 122,10 L 122,26 C 122,31.52284749830794 117.52284749830794,36 112,36 L 10,36 C 4.47715250169206,36 0,31.52284749830794 0,26 Z" fill-opacity="1" stroke-opacity="1" stroke-width="1" stroke-linecap="butt" stroke-linejoin="miter" stroke-miterlimit="10" transform="translate(409.7794211109448 0)"/><path fill="rgb(255,255,255)" stroke="rgb(33,33,33)" d="M 0,10 C 0,4.47715250169206 4.47715250169206,0 10,0 L 112,0 C 117.52284749830794,0 122,4.47715250169206 122,10 L 122,26 C 122,31.52284749830794 117.52284749830794,36 112,36 L 10,36 C 4.47715250169206,36 0,31.52284749830794 0,26 Z" fill-opacity="1" stroke-opacity="1" stroke-width="1" stroke-linecap="butt" stroke-linejoin="miter" stroke-miterlimit="10" transform="translate(549.7382699981856 42.45605265144559)"/><path fill="rgb(255,255,255)" stroke="rgb(33,33,33)" d="M 0,10 C 0,4.47715250169206 4.47715250169206,0 10,0 L 112,0 C 117.52284749830794,0 122,4.47715250169206 122,10 L 122,26 C 122,31.52284749830794 117.52284749830794,36 112,36 L 10,36 C 4.47715250169206,36 0,31.52284749830794 0,26 Z" fill-opacity="1" stroke-opacity="1" stroke-width="1" stroke-linecap="butt" stroke-linejoin="miter" stroke-miterlimit="10" transform="translate(662.7961579256194 135.24026340937382)"/><path fill="rgb(255,255,255)" stroke="rgb(33,33,33)" d="M 0,10 C 0,4.47715250169206 4.47715250169206,0 10,0 L 112,0 C 117.52284749830794,0 122,4.47715250169206 122,10 L 122,26 C 122,31.52284749830794 117.52284749830794,36 112,36 L 10,36 C 4.47715250169206,36 0,31.52284749830794 0,26 Z" fill-opacity="1" stroke-opacity="1" stroke-width="1" stroke-linecap="butt" stroke-linejoin="miter" stroke-miterlimit="10" transform="translate(83.28054300912527 610.8364375253708)"/><path fill="rgb(255,255,255)" stroke="rgb(33,33,33)" d="M 0,10 C 0,4.47715250169206 4.47715250169206,0 10,0 L 112,0 C 117.52284749830794,0 122,4.47715250169206 122,10 L 122,26 C 122,31.52284749830794 117.52284749830794,36 112,36 L 10,36 C 4.47715250169206,36 0,31.52284749830794 0,26 Z" fill-opacity="1" stroke-opacity="1" stroke-width="1" stroke-linecap="butt" stroke-linejoin="miter" stroke-miterlimit="10" transform="translate(684.0051109214264 989.2016933757118)"/><path fill="rgb(255,255,255)" stroke="rgb(33,33,33)" d="M 0,10 C 0,4.47715250169206 4.47715250169206,0 10,0 L 112,0 C 117.52284749830794,0 122,4.47715250169206 122,10 L 122,26 C 122,31.52284749830794 117.52284749830794,36 112,36 L 10,36 C 4.47715250169206,36 0,31.52284749830794 0,26 Z" fill-opacity="1" stroke-opacity="1" stroke-width="1" stroke-linecap="butt" stroke-linejoin="miter" stroke-miterlimit="10" transform="translate(810.8881165854042 906.5598341600667)"/><path fill="rgb(128,222,234)" stroke="rgb(33,33,33)" d="M 0,10 C 0,4.47715250169206 4.47715250169206,0 10,0 L 112,0 C 117.52284749830794,0 122,4.47715250169206 122,10 L 122,26 C 122,31.52284749830794 117.52284749830794,36 112,36 L 10,36 C 4.47715250169206,36 0,31.52284749830794 0,26 Z" fill-opacity="1" stroke-opacity="1" stroke-width="1" stroke-linecap="butt" stroke-linejoin="miter" stroke-miterlimit="10" transform="translate(610.83643752537 662.7961579256198)"/><path fill="rgb(255,255,255)" stroke="rgb(33,33,33)" d="M 0,10 C 0,4.47715250169206 4.47715250169206,0 10,0 L 112,0 C 117.52284749830794,0 122,4.47715250169206 122,10 L 122,26 C 122,31.52284749830794 117.52284749830794,36 112,36 L 10,36 C 4.47715250169206,36 0,31.52284749830794 0,26 Z" fill-opacity="1" stroke-opacity="1" stroke-width="1" stroke-linecap="butt" stroke-linejoin="miter" stroke-miterlimit="10" transform="translate(916.6956820826251 798.2374767979095)"/><path fill="rgb(255,255,255)" stroke="rgb(33,33,33)" d="M 0,10 C 0,4.47715250169206 4.47715250169206,0 10,0 L 112,0 C 117.52284749830794,0 122,4.47715250169206 122,10 L 122,26 C 122,31.52284749830794 117.52284749830794,36 112,36 L 10,36 C 4.47715250169206,36 0,31.52284749830794 0,26 Z" fill-opacity="1" stroke-opacity="1" stroke-width="1" stroke-linecap="butt" stroke-linejoin="miter" stroke-miterlimit="10" transform="translate(14.335654606144317 481.84962365788954)"/><g transform="translate(511.8496236578884 742.7410463286005)"><text font-family="Arial" font-size="12px" font-style="normal" font-weight="normal" text-decoration="none" text-anchor="middle" fill="black" dy="0.9166666666666666em" xml:space="preserve" transform="translate(31 0)">Temporality</text></g><g transform="translate(377.79727982379836 757.0767009347442)"><text font-family="Arial" font-size="12px" font-style="normal" font-weight="normal" text-decoration="none" text-anchor="middle" fill="black" dy="0.9166666666666666em" xml:space="preserve" transform="translate(19.5 0)">Sensor</text></g><g transform="translate(793.5767009347443 420.7794211109454)"><text font-family="Arial" font-size="12px" font-style="normal" font-weight="normal" text-decoration="none" text-anchor="middle" fill="black" dy="0.9166666666666666em" xml:space="preserve" transform="translate(13.5 0)">Field</text></g><g transform="translate(754.1206482832986 560.7382699981862)"><text font-family="Arial" font-size="12px" font-style="normal" font-weight="normal" text-decoration="none" text-anchor="middle" fill="black" dy="0.9166666666666666em" xml:space="preserve" transform="translate(10.5 0)">Plot</text></g><g transform="translate(1101.4015482581888 451.6884707321793)"><text font-family="Arial" font-size="12px" font-style="normal" font-weight="normal" text-decoration="none" text-anchor="middle" fill="black" dy="0.9166666666666666em" xml:space="preserve" transform="translate(19.5 0)">Region</text></g><g transform="translate(774.7410463286003 275.2270772768554)"><text font-family="Arial" font-size="12px" font-style="normal" font-weight="normal" text-decoration="none" text-anchor="middle" fill="black" dy="0.9166666666666666em" xml:space="preserve" transform="translate(18 0)">Safran</text></g><g transform="translate(244.33843093655764 714.6206482832982)"><text font-family="Arial" font-size="12px" font-style="normal" font-weight="normal" text-decoration="none" text-anchor="middle" fill="black" dy="0.9166666666666666em" xml:space="preserve" transform="translate(13 0)">Date</text></g><g transform="translate(42 347.2972798237996)"><text font-family="Arial" font-size="12px" font-style="normal" font-weight="normal" text-decoration="none" text-anchor="middle" fill="black" dy="0.9166666666666666em" xml:space="preserve" transform="translate(19 0)">Weeds</text></g><g transform="translate(73.95605265144548 207.338430936559)"><text font-family="Arial" font-size="12px" font-style="normal" font-weight="normal" text-decoration="none" text-anchor="middle" fill="black" dy="0.9166666666666666em" xml:space="preserve" transform="translate(29.5 0)">Biomasses</text></g><g transform="translate(179.7402634093736 94.28054300912527)"><text font-family="Arial" font-size="12px" font-style="normal" font-weight="normal" text-decoration="none" text-anchor="middle" fill="black" dy="0.9166666666666666em" xml:space="preserve" transform="translate(16.5 0)">Yields</text></g><g transform="translate(311.72707727685486 25.335654606144317)"><text font-family="Arial" font-size="12px" font-style="normal" font-weight="normal" text-decoration="none" text-anchor="middle" fill="black" dy="0.9166666666666666em" xml:space="preserve" transform="translate(13.5 0)">Soils</text></g><g transform="translate(459.7794211109448 11)"><text font-family="Arial" font-size="12px" font-style="normal" font-weight="normal" text-decoration="none" text-anchor="middle" fill="black" dy="0.9166666666666666em" xml:space="preserve" transform="translate(11 0)">Nirs</text></g><g transform="translate(555.7382699981856 53.45605265144559)"><text font-family="Arial" font-size="12px" font-style="normal" font-weight="normal" text-decoration="none" text-anchor="middle" fill="black" dy="0.9166666666666666em" xml:space="preserve" transform="translate(55 0)">AgriculturalPractices</text></g><g transform="translate(702.2961579256194 146.24026340937382)"><text font-family="Arial" font-size="12px" font-style="normal" font-weight="normal" text-decoration="none" text-anchor="middle" fill="black" dy="0.9166666666666666em" xml:space="preserve" transform="translate(21.5 0)">Climatic</text></g><g transform="translate(108.78054300912527 621.8364375253708)"><text font-family="Arial" font-size="12px" font-style="normal" font-weight="normal" text-decoration="none" text-anchor="middle" fill="black" dy="0.9166666666666666em" xml:space="preserve" transform="translate(35.5 0)">Bioagressors</text></g><g transform="translate(709.5051109214264 1000.2016933757118)"><text font-family="Arial" font-size="12px" font-style="normal" font-weight="normal" text-decoration="none" text-anchor="middle" fill="black" dy="0.9166666666666666em" xml:space="preserve" transform="translate(35.5 0)">LabSampling</text></g><g transform="translate(833.3881165854042 917.5598341600667)"><text font-family="Arial" font-size="12px" font-style="normal" font-weight="normal" text-decoration="none" text-anchor="middle" fill="black" dy="0.9166666666666666em" xml:space="preserve" transform="translate(38.5 0)">FieldSampling</text></g><g transform="translate(634.33643752537 673.7961579256198)"><text font-family="Arial" font-size="12px" font-style="normal" font-weight="normal" text-decoration="none" text-anchor="middle" fill="black" dy="0.9166666666666666em" xml:space="preserve" transform="translate(37.5 0)">SampledPlant</text></g><g transform="translate(935.1956820826251 809.2374767979095)"><text font-family="Arial" font-size="12px" font-style="normal" font-weight="normal" text-decoration="none" text-anchor="middle" fill="black" dy="0.9166666666666666em" xml:space="preserve" transform="translate(42.5 0)">PlantPhenotype</text></g><g transform="translate(29.335654606144317 492.84962365788954)"><text font-family="Arial" font-size="12px" font-style="normal" font-weight="normal" text-decoration="none" text-anchor="middle" fill="black" dy="0.9166666666666666em" xml:space="preserve" transform="translate(46 0)">PlotGeneralState</text></g></g></g></g><defs><path fill="rgb(102,56,0)" stroke="rgb(102,56,0)" d="M 6,-2.25 L 0,0 L 6,2.25 Z" fill-opacity="1" stroke-opacity="1" stroke-width="1" stroke-linecap="butt" stroke-linejoin="miter" stroke-miterlimit="10" id="ygc71_0"/></defs></svg>